<svg id="Layer_1" data-name="Layer 1" xmlns="http://www.w3.org/2000/svg" width="295" height="290" viewBox="0 0 295 290"><defs><style>.cls-1{fill:#736258;}.cls-2{fill:#f2d0e3;}.cls-3{fill:#fff;}.cls-4{fill:#f2dde3;}.cls-5{fill:#ed1c24;}.cls-6{fill:none;stroke:#000;stroke-miterlimit:10;stroke-width:1.66px;}.cls-7{fill:#333;}</style></defs><ellipse class="cls-1" cx="101.08" cy="58.17" rx="5.47" ry="14.62" transform="translate(22 143.89) rotate(-77.23)"/><ellipse class="cls-1" cx="18.62" cy="59.37" rx="12.12" ry="5.39" transform="translate(-22.69 12.84) rotate(-24.19)"/><path class="cls-2" d="M162,239.63a2.22,2.22,0,0,0,4.44,0V221.25a2.22,2.22,0,0,0-4.44,0Z"/><path class="cls-2" d="M157,237.52a2.22,2.22,0,0,0,4.44,0V219.15a2.22,2.22,0,0,0-4.44,0Z"/><path class="cls-2" d="M150.08,238.3a2.85,2.85,0,1,0,5.69,0V221.18a2.85,2.85,0,1,0-5.69,0Z"/><ellipse class="cls-2" cx="160.31" cy="221.67" rx="12.42" ry="13.86"/><path class="cls-3" d="M83.94,250.48a7.39,7.39,0,1,0,14.78,0V212.35a7.39,7.39,0,0,0-14.78,0Z"/><path class="cls-1" d="M86.18,253.65a4.67,4.67,0,0,0,4.67,4.67h4.91a4.68,4.68,0,0,0,0-9.35H90.85a4.68,4.68,0,0,0-4.67,4.68Z"/><path class="cls-3" d="M75.45,262.65a9.26,9.26,0,0,0,18.52,0V204.2a9.26,9.26,0,0,0-18.52,0Z"/><path class="cls-1" d="M74.07,267.78a6.52,6.52,0,0,0,6.51,6.52h8.26a6.52,6.52,0,0,0,0-13H80.58a6.51,6.51,0,0,0-6.51,6.51Z"/><path class="cls-3" d="M179.16,251.74a6.13,6.13,0,0,0,12.26,0V219.32a6.13,6.13,0,0,0-12.26,0Z"/><path class="cls-1" d="M181,254.48a3.75,3.75,0,0,0,3.75,3.75h3.72a3.75,3.75,0,1,0,0-7.49H184.7a3.74,3.74,0,0,0-3.75,3.74Z"/><path class="cls-3" d="M167.87,269.44a8.32,8.32,0,1,0,16.63,0v-48a8.32,8.32,0,1,0-16.63,0Z"/><ellipse class="cls-3" cx="255.45" cy="162.9" rx="7.7" ry="48.29" transform="translate(-47.42 155.17) rotate(-31.06)"/><ellipse class="cls-3" cx="153.24" cy="160.42" rx="100.28" ry="65.99"/><path class="cls-3" d="M25.38,88.27a33.23,33.23,0,0,0,66.46,0v-34a33.23,33.23,0,0,0-66.46,0Z"/><path class="cls-4" d="M12.76,116.19a29.69,29.69,0,0,0,29.7,29.7H76.59a29.7,29.7,0,1,0,0-59.4H42.46a29.69,29.69,0,0,0-29.7,29.7Z"/><ellipse class="cls-3" cx="70.64" cy="108.73" rx="4.33" ry="12.02"/><ellipse class="cls-3" cx="50.76" cy="106.89" rx="5.66" ry="13.51"/><path class="cls-1" d="M165.6,276.71a6.52,6.52,0,0,0,6.52,6.52h8.25a6.52,6.52,0,1,0,0-13h-8.25a6.51,6.51,0,0,0-6.52,6.51Z"/><ellipse cx="46.04" cy="52.31" rx="5.97" ry="6.67"/><ellipse cx="68.21" cy="52.48" rx="5.19" ry="5.79"/><ellipse class="cls-3" cx="278.47" cy="201" rx="8.34" ry="12.27" transform="translate(-64.76 212.86) rotate(-37.8)"/><ellipse class="cls-5" cx="74.08" cy="134.36" rx="2.84" ry="4.82" transform="translate(-58.48 57.1) rotate(-30.89)"/><path class="cls-6" d="M77.48,126a21.1,21.1,0,0,1-11,6.76,31.4,31.4,0,0,1-25.75-5.2"/><ellipse class="cls-7" cx="202.12" cy="156.73" rx="21.47" ry="12.1" transform="translate(-48.73 206.62) rotate(-49.04)"/><ellipse class="cls-7" cx="144.5" cy="115.44" rx="12.17" ry="20.93" transform="translate(-37.33 149.27) rotate(-49.16)"/><ellipse class="cls-7" cx="128.43" cy="180.73" rx="9.94" ry="23.64" transform="translate(-66.06 287.18) rotate(-83.29)"/></svg>