<svg id="Layer_1" data-name="Layer 1" xmlns="http://www.w3.org/2000/svg" width="260" height="260" viewBox="0 0 260 260"><defs><style>.cls-1,.cls-2{fill:#0d0d0d;}.cls-2{stroke:#000;stroke-miterlimit:10;stroke-width:4px;}.cls-3{fill:#fff;}.cls-4{fill:#736258;}.cls-5{fill:#f2d0e3;}.cls-6{fill:#333;}</style></defs><polygon class="cls-1" points="187.31 233.37 189.2 230.2 187.31 227.03 183.51 227.03 181.62 230.2 183.51 233.37 187.31 233.37"/><polygon class="cls-2" points="180.87 251.78 183.42 247.12 181.04 242.36 176.1 242.26 173.55 246.93 175.93 251.69 180.87 251.78"/><polygon class="cls-1" points="98.87 238.33 101.67 233.37 98.87 228.41 93.28 228.41 90.48 233.37 93.28 238.33 98.87 238.33"/><polygon class="cls-2" points="92.29 259 95.08 254.04 92.29 249.08 86.69 249.08 83.9 254.04 86.69 259 92.29 259"/><polygon class="cls-3" points="256.24 163.06 247.06 168.48 212.41 107.02 221.59 101.6 256.24 163.06"/><rect class="cls-3" x="93.57" y="185.28" width="8.1" height="47.79"/><rect class="cls-3" x="83.66" y="186.8" width="11.3" height="66.68"/><rect class="cls-3" x="173.5" y="189.48" width="10.03" height="57.12"/><rect class="cls-3" x="183.16" y="188.7" width="5.94" height="41.33"/><polygon class="cls-4" points="0 59.91 2.96 62.72 13 51.62 10.03 48.81 0 59.91"/><polygon class="cls-4" points="82.08 56.89 79.81 60.3 69.36 53.01 71.63 49.6 82.08 56.89"/><polygon class="cls-4" points="23.6 95.77 39.14 83.26 40.75 103.43 53.86 68.09 71.25 46.67 63.81 37.34 72.95 3.93 55.24 33.51 43.5 34.27 39.99 61.89 23.6 95.77"/><polygon class="cls-4" points="75 105.53 53.57 92.24 48.51 117.36 33.7 75.55 10.71 51.52 22.99 38.97 13.83 -1 36.23 33.06 53.57 32.38 55.13 65.98 75 105.53"/><rect class="cls-3" x="43.02" y="101.41" width="178.16" height="88.74"/><rect class="cls-3" x="9.13" y="30.63" width="62.98" height="69.23"/><rect class="cls-5" x="18.81" y="79.67" width="48.26" height="79" transform="translate(-76.23 162.12) rotate(-90)"/><ellipse class="cls-3" cx="59.44" cy="116.68" rx="3.5" ry="10.61"/><ellipse class="cls-3" cx="30.1" cy="116.68" rx="4.84" ry="10.61"/><ellipse cx="28.76" cy="53.38" rx="5.11" ry="6.83"/><ellipse cx="52.57" cy="55.23" rx="5.51" ry="8.68"/><polygon points="35.55 48.08 23.11 40.73 23.92 39.29 36.36 46.64 35.55 48.08"/><polygon points="57.39 40.13 41.91 47.87 41.04 46.05 56.52 38.32 57.39 40.13"/><polygon class="cls-4" points="260 167.38 248.94 173.92 243.99 165.14 255.05 158.6 260 167.38"/><path class="cls-6" d="M118.79,140.4c0-.61-10.5-4.94-10.5-4.18,0,.55-12.71,2.84-12.71,1.62,0-.51,4.55-13.61,4.55-14.18,0,2.17-7.73-8.07-7.73-10.07,0,2.07,13.32,2.89,13.32,3.29,0-2.9,7.92-11.23,7.92-11.76,0-4.34,3.68,8.85,3.68,14,0,.23,12.64,3.79,12.64,2.63,0-1.31-11.05,4.76-11.05,5.83C118.91,129.19,118.79,145,118.79,140.4Z"/><path class="cls-6" d="M161.42,181.2c0-2.45-10-3.44-10-3.95,0-1.11-11,4.57-11,5.73,0,.06,3-14.12,3-17,0,1.38-7.79-7.6-7.79-4.73,0-1.94,11.87-.06,11.87.09,0-5.45,6.15-10.29,6.15-16.31,0,.27,4.35,13,4.35,14.49,0-1.21,11.58,4.17,11.58,3.35,0,1.93-9.19,6.8-9.19,6.89C160.4,167.46,161.42,180.45,161.42,181.2Z"/><path class="cls-6" d="M180.34,133c-1.78,0,.9-10.07,2.65-10.07-.6,0-8.66-7-5.78-7-1.8,0,7.89-1.6,5.73-1.6,2.74,0,7.39-9.2,5.71-9.2.84,0,3.15,9.08,5.29,9.08.74,0,11,1.33,10.88,1.33-2.32,0-7.78,7.21-10.55,7.21.34,0,5.9,10,3.92,10,2.09,0-7.37-4.62-8-4.62C187.87,128.18,180.29,133,180.34,133Z"/></svg>