<svg xmlns="http://www.w3.org/2000/svg" xmlns:xlink="http://www.w3.org/1999/xlink" width="677.33mm" height="381mm" viewBox="0 0 1920 1080"><defs><style>.cls-1{isolation:isolate;}.cls-2{fill:url(#linear-gradient);}.cls-3{fill:#96a65d;}.cls-4{fill:#6f8c30;}.cls-5{fill:#387404;mix-blend-mode:darken;}.cls-6{fill:#f2e641;}.cls-7{fill:#fff;}.cls-8{opacity:0.92;}.cls-9{opacity:0.67;}.cls-10{opacity:0.77;}.cls-11{opacity:0.66;}.cls-12{fill:#754c24;}.cls-13{fill:url(#linear-gradient-2);}</style><linearGradient id="linear-gradient" x1="106.93" y1="1173.65" x2="2295.9" y2="-453.56" gradientUnits="userSpaceOnUse"><stop offset="0" stop-color="#4cacf7"/><stop offset="1" stop-color="#fff"/></linearGradient><linearGradient id="linear-gradient-2" x1="-25.66" y1="898.98" x2="1938.35" y2="898.98" gradientTransform="matrix(1.01, 0.04, -0.03, 1.15, 31.65, -168.54)" gradientUnits="userSpaceOnUse"><stop offset="0" stop-color="#8c6239"/><stop offset="0.49" stop-color="#724922"/><stop offset="0.55" stop-color="#6f4721"/><stop offset="1" stop-color="#42210b"/></linearGradient></defs><g class="cls-1"><g id="Layer_1" data-name="Layer 1"><rect class="cls-2" x="0.5" y="-0.5" width="1919" height="1080"/><ellipse class="cls-3" cx="1512.04" cy="801.79" rx="474.96" ry="184.79"/><ellipse class="cls-4" cx="536.5" cy="840.65" rx="575.5" ry="223.91"/><ellipse class="cls-5" cx="990.54" cy="1038.54" rx="1105.54" ry="236.29"/><path class="cls-6" d="M1888.71,161.5c0,1.48-84,.9-84.07,2.36s83.58,9.09,83.44,10.54-83.69-7.31-83.9-5.86,82.3,17.22,82,18.66-82.58-15.45-82.93-14,80.24,25.11,79.82,26.52-80.71-23.32-81.2-21.93,77.49,32.62,76.94,34S1800.64,181,1800,182.32s74.17,39.61,73.49,40.92-75.08-37.71-75.82-36.43,70.37,46,69.58,47.26-71.53-44.07-72.37-42.86,66.22,51.81,65.32,53-67.64-49.84-68.58-48.71,61.82,57,60.84,58.1-63.51-55-64.53-54,57.24,61.59,56.18,62.61-59.19-59.65-60.29-58.67,52.56,65.64,51.42,66.58-54.73-63.76-55.9-62.86,47.8,69.17,46.6,70-50.2-67.38-51.43-66.56,43,72.25,41.75,73-45.62-70.57-46.89-69.83,38.2,74.9,36.9,75.59-41-73.35-42.32-72.7,33.39,77.17,32,77.78-36.36-75.77-37.72-75.2,28.6,79.07,27.23,79.6-31.71-77.83-33.1-77.34,23.82,80.64,22.42,81.08-27.06-79.56-28.47-79.16,19.07,81.89,17.64,82.26-22.41-81-23.85-80.68,14.35,82.85,12.91,83.13-17.78-82.14-19.24-81.9,9.67,83.53,8.21,83.73-13.17-83-14.64-82.84,5,83.93,3.57,84-8.6-83.61-10.07-83.53.46,84.09-1,84.13-4.06-83.95-5.54-83.95-4.07,84-5.54,83.95.45-84.05-1-84.13-8.61,83.65-10.07,83.53,5-83.9,3.56-84-13.18,83-14.64,82.84,9.66-83.49,8.21-83.73-17.79,82.18-19.23,81.9,14.33-82.81,12.9-83.13-22.43,81-23.85,80.68,19.06-81.86,17.65-82.26-27.08,79.61-28.48,79.16,23.81-80.6,22.42-81.08-31.73,77.86-33.1,77.34,28.58-79,27.23-79.6-36.39,75.8-37.72,75.2,33.37-77.13,32.06-77.78-41,73.39-42.33,72.7,38.17-74.86,36.91-75.6-45.66,70.61-46.91,69.84,43-72.21,41.76-73-50.24,67.42-51.43,66.57,47.76-69.14,46.6-70-54.78,63.79-55.91,62.85,52.52-65.6,51.42-66.57-59.23,59.68-60.29,58.66,57.21-61.55,56.19-62.6-63.56,55-64.54,53.95,61.78-56.95,60.85-58.08-67.71,49.86-68.59,48.69,66.17-51.77,65.33-53-71.59,44.1-72.38,42.86,70.32-46,69.58-47.26-75.14,37.73-75.81,36.43,74.1-39.59,73.49-40.92-78.24,30.79-78.8,29.43,77.43-32.59,76.94-34-80.77,23.34-81.2,21.93,80.18-25.09,79.82-26.52-82.64,15.46-82.93,14,82.23-17.19,82-18.65-83.77,7.33-83.91,5.86,83.52-9.06,83.45-10.54S1540,163,1540,161.5s84-.9,84.08-2.36-83.59-9.09-83.45-10.54,83.69,7.31,83.91,5.86-82.3-17.22-82-18.66,82.58,15.45,82.93,14-80.24-25.11-79.82-26.52,80.72,23.32,81.21,21.93-77.5-32.62-76.94-34,78.17,30.77,78.79,29.43-74.16-39.61-73.49-40.92,75.08,37.71,75.82,36.43-70.37-46-69.58-47.26S1633,133,1633.81,131.79s-66.22-51.81-65.33-53,67.64,49.84,68.58,48.71-61.82-57-60.83-58.1,63.5,55,64.52,54-57.24-61.59-56.17-62.61,59.18,59.65,60.28,58.67-52.56-65.64-51.42-66.58,54.74,63.76,55.9,62.86-47.8-69.17-46.6-70,50.21,67.38,51.43,66.56-43-72.25-41.75-73,45.62,70.57,46.9,69.83-38.21-74.9-36.9-75.59,41,73.35,42.32,72.7-33.4-77.17-32.06-77.78,36.36,75.77,37.72,75.2-28.6-79.07-27.22-79.6,31.7,77.83,33.1,77.34-23.83-80.64-22.42-81.08,27.05,79.56,28.47,79.16-19.08-81.89-17.65-82.26,22.41,81,23.85,80.68S1674.18,15,1675.63,14.7s17.78,82.14,19.23,81.9-9.67-83.53-8.21-83.73,13.17,83,14.64,82.84-5-83.93-3.57-84,8.6,83.61,10.07,83.53-.45-84.09,1-84.13,4.06,84,5.54,84,4.07-84,5.54-83.95-.45,84.05,1,84.13,8.6-83.65,10.06-83.53-5,83.9-3.56,84.05,13.19-83,14.64-82.84-9.66,83.49-8.21,83.73,17.8-82.18,19.23-81.9-14.33,82.81-12.9,83.13,22.43-81,23.85-80.68S1745,99,1746.38,99.41s27.07-79.61,28.47-79.16-23.8,80.6-22.42,81.08,31.73-77.86,33.1-77.34-28.58,79-27.23,79.6,36.39-75.8,37.72-75.2-33.37,77.13-32,77.78,41-73.39,42.32-72.7-38.17,74.86-36.9,75.6,45.65-70.61,46.9-69.84-43,72.21-41.76,73,50.25-67.42,51.44-66.57-47.77,69.14-46.61,70,54.78-63.79,55.91-62.85-52.52,65.6-51.42,66.57,59.23-59.68,60.29-58.66-57.2,61.55-56.19,62.6,63.56-55,64.54-53.95-61.78,56.95-60.84,58.08,67.7-49.86,68.59-48.69-66.18,51.77-65.34,53,71.6-44.1,72.38-42.86-70.31,46-69.58,47.26,75.14-37.73,75.82-36.43-74.11,39.59-73.5,40.92,78.25-30.79,78.8-29.43-77.43,32.59-76.94,34,80.78-23.34,81.2-21.93-80.18,25.09-79.82,26.52,82.65-15.46,82.93-14-82.23,17.19-82,18.65,83.76-7.33,83.9-5.86-83.52,9.06-83.44,10.54S1888.71,160,1888.71,161.5Z"/><circle class="cls-7" cx="1667.58" cy="130.17" r="5.14"/><circle class="cls-7" cx="1730.25" cy="133.91" r="5.14"/><path class="cls-7" d="M1755,179.27c-6.31,8.83-18.71,15-43,19.64-23.33,4.49-37.16-10.51-43-19.64-8.42-13.09,19.27,7.91,43,8.42C1736.27,188.21,1759.72,172.72,1755,179.27Z"/><ellipse class="cls-7" cx="723.5" cy="162.11" rx="96.5" ry="79.11"/><ellipse class="cls-7" cx="807" cy="185" rx="83" ry="56"/><ellipse class="cls-7" cx="694.5" cy="255.5" rx="96.5" ry="43.5"/><ellipse class="cls-7" cx="888.5" cy="249.5" rx="121.5" ry="49.5"/><ellipse class="cls-7" cx="843" cy="162.5" rx="67" ry="49.5"/><g class="cls-8"><ellipse class="cls-7" cx="155.5" cy="155" rx="88.5" ry="70"/><ellipse class="cls-7" cx="244.5" cy="126.5" rx="66.5" ry="58.5"/><ellipse class="cls-7" cx="216.5" cy="234" rx="85.5" ry="67"/><ellipse class="cls-7" cx="109" cy="257" rx="55" ry="105" transform="translate(-164.2 199.63) rotate(-55.16)"/></g><g class="cls-9"><ellipse class="cls-7" cx="953.79" cy="82.24" rx="42.79" ry="25.24"/><ellipse class="cls-7" cx="1008.62" cy="101.96" rx="29.38" ry="23.66"/><ellipse class="cls-7" cx="963.65" cy="111.03" rx="28.99" ry="18.14"/></g><g class="cls-10"><ellipse class="cls-7" cx="1258.5" cy="135" rx="108.5" ry="64"/><ellipse class="cls-7" cx="1397.5" cy="185" rx="74.5" ry="60"/><ellipse class="cls-7" cx="1283.5" cy="208" rx="73.5" ry="46"/></g><g class="cls-11"><ellipse class="cls-7" cx="445.52" cy="98.5" rx="48.29" ry="39.59"/><ellipse class="cls-7" cx="487.31" cy="109.96" rx="41.53" ry="28.02"/><ellipse class="cls-7" cx="431.01" cy="145.23" rx="48.29" ry="21.77"/><ellipse class="cls-7" cx="528.09" cy="142.23" rx="60.8" ry="24.77"/><ellipse class="cls-7" cx="505.32" cy="98.7" rx="33.53" ry="24.77"/></g><path class="cls-12" d="M224.87,1080.84c-1.31,1.34-3.74,0-5.62,0s-1.87-4.39-3.74-4.39-1.88-.23-3.75-.23-1.87.8-3.75.8-1.87,4.61-3.75,4.61-1.87,0-3.75,0-1.87-3.88-3.75-3.88-1.87,4.07-3.75,4.07-1.87-5.34-3.75-5.34-1.87,3.77-3.75,3.77-1.88-3.68-3.75-3.68-2,3.39-3.36,2.06-1.89-1.5-1.89-3.39.45-1.9.45-3.8,1.91-1.89,1.91-3.79.73-1.9.73-3.79-3.83-1.9-3.83-3.79,4.71-1.9,4.71-3.79-.13-1.9-.13-3.79-.63-1.9-.63-3.8-1.22-1.89-1.22-3.79-2.49-1.9-2.49-3.8,2.06-1.89,2.06-3.79-1.5-1.9-1.5-3.79-1.14-1.9-1.14-3.79.41-1.9.41-3.8-.81-1.89-.81-3.79,1.42-1.9,1.42-3.8,2.79-1.89,2.79-3.79-2-1.9-2-3.79-.17-1.9-.17-3.8.57-1.9.57-3.8-1-1.89-1-3.79,2.21-1.9,2.21-3.8.38-1.89.38-3.79-.87-1.9-.87-3.8.79-1.9.79-3.79-.07-1.9-.07-3.8-.81-1.9-.81-3.8-1.49-1.89-1.49-3.79,3.89-1.9,3.89-3.8,0-1.9,0-3.79-1.49-1.9-1.49-3.8.41-1.9.41-3.8-3.75-1.9-3.75-3.8S177,951.88,177,950s-1.94-1.9-1.94-3.8.42-1.9.42-3.79,4.14-1.9,4.14-3.8.7-1.9.7-3.8-4-1.9-4-3.79,3.74-1.9,3.74-3.8-.92-1.9-.92-3.8-1.8-1.9-1.8-3.8.79-1.9.79-3.8-2.17-1.9-2.17-3.8-.52-1.9-.52-3.8,4.88-1.9,4.88-3.8-1.6-1.9-1.6-3.8-3.22-1.9-3.22-3.8,2.45-1.26,3.78-2.62.66,1.73,2.54,1.73,1.87-2.44,3.74-2.44,1.88,2,3.75,2,1.87-3.35,3.75-3.35,1.87-1.22,3.75-1.22,1.87,1.7,3.75,1.7,1.87.07,3.75.07,1.87-2.41,3.75-2.41,1.87,2.86,3.75,2.86,1.87.95,3.75.95,1.88-1.23,3.75-1.23,3.47-2.19,4.79-.85-2.69,2.92-2.69,4.81,0,1.9,0,3.8.57,1.89.57,3.79-.47,1.9-.47,3.79,1.26,1.9,1.26,3.79-1.35,1.9-1.35,3.79,3.09,1.9,3.09,3.79-3.28,1.9-3.28,3.8,1.15,1.89,1.15,3.79,3.52,1.9,3.52,3.8-1.73,1.89-1.73,3.79-3.48,1.9-3.48,3.79,1.07,1.9,1.07,3.79,2.58,1.9,2.58,3.8-1,1.89-1,3.79,2.35,1.9,2.35,3.8-.14,1.89-.14,3.79.32,1.9.32,3.79-3.39,1.9-3.39,3.8.76,1.9.76,3.8-.13,1.89-.13,3.79.4,1.9.4,3.8.24,1.89.24,3.79.84,1.9.84,3.8-4.12,1.9-4.12,3.79,1.9,1.9,1.9,3.8,2,1.9,2,3.8-.08,1.89-.08,3.79-3.08,1.9-3.08,3.8-.55,1.9-.55,3.79,1.23,1.9,1.23,3.8,3.7,1.9,3.7,3.8-3.71,1.9-3.71,3.8,1.62,1.9,1.62,3.79,1.15,1.9,1.15,3.8,1.27,1.9,1.27,3.79-2.89,1.9-2.89,3.8-2.6,1.9-2.6,3.8,3,1.9,3,3.79-1,1.9-1,3.8,2.46,1.9,2.46,3.8-.21,1.9-.21,3.8,1.29,1.9,1.29,3.8-4.06,1.9-4.06,3.8-.42,1.9-.42,3.8-.26,1.9-.26,3.8,4.45,1.9,4.45,3.8-2.47,1.67-1.77,3.44C225.07,1077.75,226.21,1079.48,224.87,1080.84Z"/><path class="cls-12" d="M1926.22,1098.22c-1.55,1.54-.4.61-2.58.61s-2.18-.66-4.36-.66-2.18-.73-4.36-.73-2.18,3.18-4.36,3.18-2.19-.59-4.37-.59-2.18,1.32-4.36,1.32-2.18,1.22-4.36,1.22-2.18.39-4.37.39-2.18-5.37-4.36-5.37-2.19,1.75-4.37,1.75-4.91,4.3-6.46,2.76,3-4.27,3-6.45,2-2.17,2-4.34-4.34-2.17-4.34-4.34,4.23-2.18,4.23-4.35-5.85-2.17-5.85-4.34,3-2.18,3-4.35-1.34-2.17-1.34-4.34-.34-2.17-.34-4.34,4.88-2.17,4.88-4.34-1.31-2.17-1.31-4.34-4.38-2.17-4.38-4.35.09-2.17.09-4.34,5.55-2.17,5.55-4.35-3-2.17-3-4.34-.28-2.17-.28-4.34-.2-2.17-.2-4.34-.29-2.17-.29-4.34,2-2.18,2-4.35-2.25-2.17-2.25-4.35.32-2.17.32-4.34,3.4-2.17,3.4-4.34-2.31-2.17-2.31-4.35,2.89-2.17,2.89-4.34-5.2-2.18-5.2-4.35-.3-2.17-.3-4.34,2.8-2.18,2.8-4.35.24-2.17.24-4.35-.29-2.17-.29-4.34.36-2.17.36-4.35,1.72-2.17,1.72-4.34-2-2.18-2-4.35,1.38-2.17,1.38-4.35-3.92-2.17-3.92-4.34,3.2-2.18,3.2-4.35.32-2.18.32-4.35-.77-2.17-.77-4.35,2-2.17,2-4.34-2.2-2.18-2.2-4.35-1-2.18-1-4.35,0-2.18,0-4.35.28-2.17.28-4.34,3.15-2.18,3.15-4.35-2.2-2.18-2.2-4.35.54-2.17.54-4.35.57-2.17.57-4.35-3.62-2.17-3.62-4.35,2-2.17,2-4.35-.76-2.17-.76-4.35-1.27-2.17-1.27-4.34,4.42-2.18,4.42-4.36-4.74-2.18-4.74-4.35,1.88-1.5,3.42-3,.87,1,3,1,2.18,1,4.36,1,2.18-.24,4.36-.24,2.18-5,4.36-5h4.37c2.18,0,2.18,4.38,4.36,4.38s2.18-5.43,4.36-5.43,2.18,3.12,4.37,3.12,2.18-2,4.36-2,2.19,3.84,4.37,3.84,5.17-5.86,6.72-4.32.65,4.53.65,6.71-3.24,2.17-3.24,4.34.1,2.17.1,4.34,2.82,2.18,2.82,4.35-3.27,2.17-3.27,4.34-.06,2.18-.06,4.35,2,2.17,2,4.34-.22,2.17-.22,4.34,2.32,2.17,2.32,4.34-4.29,2.17-4.29,4.34-1.56,2.17-1.56,4.35-.69,2.17-.69,4.34,4.53,2.17,4.53,4.35-4.16,2.17-4.16,4.34-.64,2.17-.64,4.34,1.89,2.17,1.89,4.34,3.53,2.17,3.53,4.34-5.21,2.18-5.21,4.35,3.42,2.17,3.42,4.35,1,2.17,1,4.34-2.38,2.17-2.38,4.34,3.86,2.17,3.86,4.35-3.4,2.17-3.4,4.34-2,2.18-2,4.35,1.3,2.17,1.3,4.34.18,2.18.18,4.35,2.74,2.17,2.74,4.35.57,2.17.57,4.34-4.37,2.17-4.37,4.35,1,2.17,1,4.34,4.37,2.18,4.37,4.35-1.23,2.17-1.23,4.35-2,2.17-2,4.34,3.11,2.18,3.11,4.35-3.84,2.18-3.84,4.35-2.53,2.17-2.53,4.35.89,2.17.89,4.34,4.86,2.18,4.86,4.35-4.06,2.18-4.06,4.35,3.71,2.18,3.71,4.35.75,2.17.75,4.34-5.77,2.18-5.77,4.35,1.78,2.18,1.78,4.35,1.5,2.17,1.5,4.35-3,2.17-3,4.35,4.17,2.17,4.17,4.35.75,2.17.75,4.35-4.7,2.17-4.7,4.35,4.46,2.17,4.46,4.34-4.78,2.18-4.78,4.36,4.3,2.24,4.2,4.42C1929.35,1097.29,1927.76,1096.68,1926.22,1098.22Z"/><path class="cls-12" d="M563.58,1083.56c-1.53,1.51-.73,1.34-2.88,1.34s-2.16,2-4.31,2-2.15-2-4.3-2-2.16,1.58-4.31,1.58-2.15-1.88-4.3-1.88-2.16,2.21-4.31,2.21-2.16-4.29-4.31-4.29-2.15,1.19-4.31,1.19-2.15.79-4.3.79-2.16-1.75-4.31-1.75-2.16,4.22-4.31,4.22-2.16-1.88-4.32-1.88-3.51,2.18-5,.67,1.2-2.87,1.2-5,.92-2.11.92-4.22.8-2.11.8-4.22-.09-2.12-.09-4.23-3.28-2.11-3.28-4.23,1.1-2.11,1.1-4.22-.21-2.11-.21-4.22,2.66-2.11,2.66-4.22-4.3-2.12-4.3-4.23,2.65-2.11,2.65-4.23,2.1-2.11,2.1-4.22-2.54-2.11-2.54-4.23.87-2.11.87-4.22-3.7-2.11-3.7-4.22,4.6-2.12,4.6-4.23-3-2.12-3-4.23-.46-2.11-.46-4.22-.34-2.12-.34-4.23.1-2.11.1-4.23-.89-2.11-.89-4.22,1.24-2.12,1.24-4.23-.38-2.11-.38-4.23,1.38-2.11,1.38-4.23,3.65-2.11,3.65-4.22-4.87-2.12-4.87-4.23-.34-2.12-.34-4.23.83-2.11.83-4.23.79-2.11.79-4.23,2.6-2.11,2.6-4.22-4.75-2.12-4.75-4.23.58-2.12.58-4.23,1.79-2.11,1.79-4.22-2.14-2.12-2.14-4.23,2.51-2.12,2.51-4.23-.2-2.11-.2-4.23,2.7-2.11,2.7-4.23-.83-2.11-.83-4.23-3.48-2.11-3.48-4.23.6-2.12.6-4.23-1.05-2.12-1.05-4.23,3-2.12,3-4.23-1.81-2.12-1.81-4.24-.32-2.11-.32-4.23-.14-2.47,1.37-4,1.87-3.46,4-3.46,2.16,5.54,4.31,5.54,2.15.27,4.3.27,2.16-1.82,4.31-1.82,2.15,2.33,4.3,2.33,2.16-5.07,4.31-5.07,2.16,4.6,4.31,4.6,2.15-.91,4.31-.91,2.15-3.83,4.3-3.83,2.16,2.73,4.31,2.73,2.16,1.64,4.31,1.64,2.16-4.94,4.32-4.94,1.28,2.65,2.83,4.16,2.16.59,2.16,2.7,2.48,2.11,2.48,4.22-1.69,2.11-1.69,4.22,1.69,2.12,1.69,4.23S568,918,568,920.12s-2.42,2.11-2.42,4.22,1.54,2.11,1.54,4.22.82,2.11.82,4.22-.3,2.12-.3,4.23-1.63,2.11-1.63,4.23-1.69,2.11-1.69,4.22.76,2.11.76,4.23,2.39,2.11,2.39,4.22-5.39,2.11-5.39,4.22,5.88,2.12,5.88,4.23-1.66,2.12-1.66,4.23-1.8,2.11-1.8,4.22,2.58,2.12,2.58,4.23-3.43,2.11-3.43,4.23-.39,2.11-.39,4.22,4.18,2.12,4.18,4.23-4.19,2.11-4.19,4.23,1.17,2.11,1.17,4.23,1.43,2.11,1.43,4.22-2.89,2.12-2.89,4.23,2.61,2.12,2.61,4.23,1.41,2.11,1.41,4.23.11,2.11.11,4.23.65,2.11.65,4.22-6.08,2.12-6.08,4.23,2.72,2.12,2.72,4.23-.29,2.11-.29,4.22.27,2.12.27,4.23,3.32,2.12,3.32,4.23-5.2,2.11-5.2,4.23,5.57,2.11,5.57,4.23-2.92,2.11-2.92,4.23,2.29,2.11,2.29,4.23-2.9,2.12-2.9,4.23,2.26,2.12,2.26,4.23-4.84,2.12-4.84,4.23,5.81,2.12,5.81,4.24-2.91,2.12-2.88,4.23C564.91,1082.37,565.09,1082.08,563.58,1083.56Z"/><path class="cls-12" d="M1240.43,1078.44c-1.24,1.27-1.2,2.6-3,2.6s-1.77-4.15-3.55-4.15-1.77.42-3.54.42-1.77,3.31-3.54,3.31-1.78-3-3.55-3-1.77,2.42-3.54,2.42-1.77,1.24-3.54,1.24-1.78.36-3.55.36-1.77,0-3.55,0-1.77,0-3.55,0-.89-2.81-2.13-4.08.49-.42.49-2.24-1.75-1.81-1.75-3.62,2.69-1.81,2.69-3.62-.12-1.81-.12-3.63-3.71-1.81-3.71-3.62.86-1.81.86-3.63,1-1.81,1-3.63-.79-1.81-.79-3.63.7-1.81.7-3.62-3.46-1.81-3.46-3.63,5.42-1.81,5.42-3.62-5.09-1.81-5.09-3.63-.22-1.81-.22-3.62.14-1.82.14-3.63,4-1.82,4-3.63-4.41-1.82-4.41-3.63,4.12-1.81,4.12-3.63.63-1.81.63-3.62-3.06-1.82-3.06-3.63,1.91-1.81,1.91-3.63-3.1-1.81-3.1-3.63,4.08-1.81,4.08-3.63-4.54-1.81-4.54-3.62,2.94-1.82,2.94-3.63.53-1.82.53-3.64-2.75-1.81-2.75-3.62,3-1.82,3-3.63-3.23-1.82-3.23-3.63,3.82-1.82,3.82-3.63-4-1.82-4-3.63,1.87-1.82,1.87-3.63-1.17-1.82-1.17-3.63,2.89-1.82,2.89-3.63-1.43-1.82-1.43-3.64-1.58-1.81-1.58-3.63,1.22-1.81,1.22-3.63,1.61-1.81,1.61-3.63-3.65-1.81-3.65-3.63.47-1.82.47-3.63,1.52-1.82,1.52-3.63,1-1.82,1-3.63.18-1.82.18-3.63-2.89-1.82-2.89-3.63,1.43-1.82,1.43-3.63.94-1.82.94-3.63-.86-1.82-.86-3.64-1.11-1.81-1.11-3.63,1.5-1.82,1.5-3.63-1.32-1.82-1.32-3.64-.51-1.82-.51-3.63,1.06-1.82,1.06-3.64,1.64-1.81,1.64-3.63.5-1.82.5-3.64-3.2-3.46-1.93-4.77,2.93,2.52,4.7,2.52,1.77-.76,3.55-.76,1.77-2.91,3.54-2.91,1.77-.13,3.54-.13,1.78,4,3.55,4,1.77.12,3.54.12,1.77.08,3.54.08,1.78-4.56,3.55-4.56,1.77,4.76,3.55,4.76,1.77-.09,3.55-.09,2.91-3.78,4.15-2.51,0,2.4,0,4.22,1.89,1.81,1.89,3.62-2.6,1.81-2.6,3.62.84,1.81.84,3.63-3.57,1.81-3.57,3.62,4.09,1.81,4.09,3.63.51,1.81.51,3.63-.28,1.81-.28,3.63.93,1.81.93,3.62-.45,1.81-.45,3.63-4,1.81-4,3.62,1.56,1.81,1.56,3.63.21,1.81.21,3.62-1.88,1.82-1.88,3.63,3.32,1.82,3.32,3.63,1,1.82,1,3.63-1.43,1.81-1.43,3.63-2.25,1.81-2.25,3.62,3.82,1.82,3.82,3.63-4.27,1.81-4.27,3.63-.17,1.81-.17,3.63,2.13,1.81,2.13,3.63-2,1.81-2,3.62-.72,1.82-.72,3.63.05,1.82.05,3.64,4.47,1.81,4.47,3.62-1.2,1.82-1.2,3.63-1.45,1.82-1.45,3.63-1.44,1.82-1.44,3.63,0,1.82,0,3.63,2.11,1.82,2.11,3.63-1.83,1.82-1.83,3.63,1,1.82,1,3.63,3.21,1.82,3.21,3.64-4.5,1.81-4.5,3.63,2.18,1.81,2.18,3.63-.79,1.81-.79,3.63,1.07,1.81,1.07,3.63.24,1.82.24,3.63.93,1.82.93,3.63-1.37,1.82-1.37,3.63.87,1.82.87,3.63.27,1.82.27,3.63-2.79,1.82-2.79,3.63,4.39,1.82,4.39,3.63-4.71,1.82-4.71,3.64,1.27,1.81,1.27,3.63,1.62,1.82,1.62,3.63,1.74,1.82,1.74,3.64-1.66,1.82-1.66,3.63-2.16,1.82-2.16,3.64,2.64,1.81,2.64,3.63-3.52,2.07-3.28,3.87C1239.42,1077.23,1241.7,1077.14,1240.43,1078.44Z"/><path class="cls-12" d="M1576.55,1085.59c-1.32,1.29-3.4-3.81-5.25-3.81s-1.84,2.15-3.69,2.15-1.85-.78-3.7-.78-1.85,1.06-3.7,1.06-1.85.23-3.7.23-1.85.92-3.7.92-1.85-1.35-3.7-1.35-1.85.86-3.7.86-1.85.27-3.7.27-1.25-1-2.58-2.3-3.84-.63-3.84-2.43,4.64-1.79,4.64-3.59-1.25-1.79-1.25-3.58-1.59-1.79-1.59-3.58-1.72-1.79-1.72-3.58,1.64-1.79,1.64-3.59,2.13-1.79,2.13-3.58-2.61-1.79-2.61-3.59,3.25-1.79,3.25-3.59-2.2-1.79-2.2-3.58-.5-1.8-.5-3.59,3.49-1.79,3.49-3.59-4-1.79-4-3.58,1.77-1.79,1.77-3.58,1.73-1.8,1.73-3.59-1.29-1.8-1.29-3.59-2.12-1.8-2.12-3.59,2.71-1.79,2.71-3.59-2.14-1.79-2.14-3.58,1.73-1.8,1.73-3.59-.09-1.79-.09-3.59,1.67-1.79,1.67-3.59-.48-1.79-.48-3.59-4.23-1.79-4.23-3.58,4.26-1.8,4.26-3.59-1.1-1.8-1.1-3.59,1.12-1.8,1.12-3.59-1.6-1.8-1.6-3.59,1.58-1.79,1.58-3.59.55-1.79.55-3.59-5-1.79-5-3.59,2.23-1.79,2.23-3.59.94-1.79.94-3.59-.23-1.79-.23-3.59.14-1.79.14-3.59-3.21-1.79-3.21-3.59,2.57-1.8,2.57-3.59,1.1-1.8,1.1-3.59-.4-1.8-.4-3.59-1.64-1.8-1.64-3.59,2.12-1.8,2.12-3.59-1.79-1.8-1.79-3.59,1-1.8,1-3.59-1.62-1.8-1.62-3.59,1.36-1.8,1.36-3.59,1.83-1.8,1.83-3.59-4.32-1.8-4.32-3.59.49-1.8.49-3.6.8-1.79.8-3.59-.07-1.8-.07-3.59,2.59-1.8,2.59-3.6.1-1.8.1-3.59.23-1.8.23-3.6-2.19-1.79-2.19-3.59,1-1.8,1-3.6-3.26-3.67-2-4.93,3.15-.92,5-.92,1.84,3.06,3.69,3.06,1.85.21,3.7.21l3.7,0c1.85,0,1.85-2.11,3.7-2.11s1.85,1.36,3.7,1.36,1.85-.27,3.7-.27,1.85-2.66,3.7-2.66,1.85,4.95,3.7,4.95,2.54-3.76,3.87-2.47-2.66,1.95-2.66,3.75-.31,1.79-.31,3.59,3.71,1.79,3.71,3.58-3.15,1.79-3.15,3.58,4.85,1.79,4.85,3.58-3.49,1.79-3.49,3.59-1.16,1.79-1.16,3.58,4.64,1.79,4.64,3.59-2,1.79-2,3.59-1.69,1.79-1.69,3.58,1.06,1.8,1.06,3.59,1.52,1.79,1.52,3.59-3.14,1.79-3.14,3.58.89,1.79.89,3.58-1.3,1.8-1.3,3.59,3.39,1.8,3.39,3.59-1.51,1.8-1.51,3.59-.61,1.79-.61,3.59-.74,1.79-.74,3.58.52,1.8.52,3.59,2.65,1.79,2.65,3.59-2.48,1.79-2.48,3.59,1.33,1.79,1.33,3.59-2.36,1.79-2.36,3.58,2.76,1.8,2.76,3.59-.76,1.8-.76,3.59,2.4,1.8,2.4,3.59-4.64,1.8-4.64,3.59,1.12,1.79,1.12,3.59-.54,1.79-.54,3.59-.61,1.79-.61,3.59,2.64,1.79,2.64,3.59-.49,1.79-.49,3.59,1.09,1.79,1.09,3.59,1,1.79,1,3.59.32,1.79.32,3.59-4.44,1.8-4.44,3.59,1.45,1.8,1.45,3.59,3,1.8,3,3.59-3.21,1.8-3.21,3.59-1.64,1.8-1.64,3.59,3.59,1.8,3.59,3.59-3.5,1.8-3.5,3.59,4.85,1.8,4.85,3.59-2.46,1.8-2.46,3.59,1.11,1.8,1.11,3.59.28,1.8.28,3.59-4,1.8-4,3.6,1.08,1.79,1.08,3.59,3.63,1.8,3.63,3.59-.07,1.8-.07,3.6-4.6,1.8-4.6,3.59,2.49,1.8,2.49,3.6.23,1.79.23,3.59-.49,1.79.14,3.47C1576.34,1083,1577.84,1084.33,1576.55,1085.59Z"/><path class="cls-12" d="M907.49,1081.43c-1.36,1.41-3.45-1.46-5.4-1.46s-2-3-3.92-3-1.95,5.62-3.91,5.62-2-.25-3.91-.25-2-5.15-3.92-5.15-2,2.53-3.92,2.53-2-.2-3.91-.2-2,2.17-3.92,2.17-2,.35-3.92.35-2,0-3.91,0-2-3.88-3.93-3.88-1.42,2.12-2.78.72-3-.92-3-2.94,2.66-2,2.66-4,1.56-2,1.56-4-3.25-2-3.25-4-2-2-2-4,4.24-2,4.24-4-3.13-2-3.13-4,.24-2,.24-4,0-2,0-4,4.48-2,4.48-4-4.19-2-4.19-4,.51-2,.51-4-.43-2-.43-4,3.17-2,3.17-4-2.19-2-2.19-4,2.43-2,2.43-4-.78-2-.78-4-1-2-1-4-.17-2-.17-4-1.13-2-1.13-4-.81-2-.81-4,1.77-2,1.77-4-1.66-2-1.66-4,4.14-2,4.14-4,.48-2,.48-4-5.53-2-5.53-4-.47-2-.47-4,1.11-2,1.11-4,4-2,4-4v-4c0-2-3-2-3-4s1.14-2,1.14-4.05-3.36-2-3.36-4,3.38-2,3.38-4-2.47-2-2.47-4,.09-2,.09-4,5.14-2,5.14-4-.67-2-.67-4-2.85-2-2.85-4-2.39-2-2.39-4,4.36-2,4.36-4-.58-2-.58-4,.06-2,.06-4-2.8-2-2.8-4,3.68-2,3.68-4-.3-2-.3-4-4.17-2-4.17-4,.75-2,.75-4,2.14-2,2.14-4.05-2.09-2.95-.69-4.4,2.33.53,4.28.53,2-1.59,3.92-1.59,1.95,1.69,3.91,1.69,2-.45,3.91-.45,2,.7,3.92.7,2-.83,3.92-.83,2-.3,3.91-.3,2-.22,3.92-.22,2-.82,3.92-.82,2,.8,3.91.8,2,2.69,3.93,2.69,1.84-2.57,3.21-1.16.18,1.33.18,3.35-2.22,2-2.22,4,4.73,2,4.73,4-3.07,2-3.07,4,2,2,2,4-1.46,2-1.46,4-2.51,2-2.51,4,5.72,2,5.72,4-3.07,2-3.07,4,.65,2,.65,4,0,2,0,4,2,2,2,4-2.11,2-2.11,4-3.19,2-3.19,4,3.78,2,3.78,4,1.19,2,1.19,4-1.48,2-1.48,4,.67,2,.67,4-1.9,2-1.9,4,2.24,2,2.24,4-2.47,2-2.47,4,2.24,2,2.24,4-1.06,2-1.06,4,.12,2,.12,4-.95,2-.95,4-2.37,2-2.37,4,3.65,2,3.65,4-2.7,2-2.7,4,4.87,2,4.87,4-3.67,2-3.67,4,.69,2,.69,4,.33,2,.33,4.05.71,2,.71,4-1.09,2-1.09,4-1.32,2-1.32,4,.78,2,.78,4,3.17,2,3.17,4-4.63,2-4.63,4,.46,2,.46,4,3.7,2,3.7,4-3.31,2-3.31,4,2.7,2,2.7,4,1.39,2,1.39,4,.39,2,.39,4,0,2,0,4,0,2,0,4-5.21,2-5.21,4,.08,2,.08,4.05,1.28,2.2,2,4.11C906.85,1078.85,908.89,1080,907.49,1081.43Z"/><path class="cls-13" d="M1950,942.63c-11.94,13.3-13.18,6.45-31,6.45s-17.86,0-35.73,0-17.87-8.2-35.73-8.2-17.87,10.35-35.74,10.35-17.86-4.17-35.73-4.17-17.87,3.85-35.74,3.85-17.86,4.1-35.73,4.1-17.87-2.44-35.74-2.44S1651,943,1633.08,943s-17.87,13.27-35.73,13.27-17.87-19.35-35.74-19.35-17.87,19.14-35.74,19.14-17.86,1.06-35.73,1.06-17.87-8.64-35.74-8.64-17.86,4.66-35.73,4.66-17.87-5.91-35.73-5.91-17.87-.12-35.74-.12-17.87-5.58-35.74-5.58-17.86-1.09-35.73-1.09-17.87-3.87-35.74-3.87-17.87-.49-35.73-.49-17.87,2.93-35.74,2.93-17.87,2.17-35.74,2.17-17.86-6-35.73-6-17.87,20.65-35.74,20.65-17.87,2.71-35.74,2.71-17.87-14.43-35.73-14.43-17.87,2.7-35.74,2.7-17.87,5.69-35.74,5.69-17.87,1.69-35.74,1.69-17.86-14-35.73-14-17.87-5.11-35.73-5.11-17.87.16-35.74.16-17.87,2.65-35.73,2.65S721.82,951.57,704,951.57s-17.87.55-35.73.55-17.87-13.46-35.74-13.46-17.86,1.51-35.73,1.51-17.87,6.68-35.74,6.68-17.87,8.8-35.74,8.8S507.4,935.5,489.53,935.5s-17.86,7.8-35.73,7.8-17.87,9.49-35.74,9.49-17.87,4.48-35.74,4.48-17.87-14.44-35.74-14.44-17.87,12.56-35.74,12.56-17.87-15.2-35.74-15.2-17.87,16.5-35.74,16.5S221.5,954,203.63,954s-17.87-3.62-35.74-3.62S150,937.66,132.15,937.66s-17.88,7-35.75,7-17.87-5.13-35.74-5.13-17.87-1-35.75-1-26.79,24.36-38.74,11.06c-13.29-14.81-7.28-22.59-7.28-42.49s-10.81-32,2.48-46.81C-6.69,846.94,7,873.91,24.9,873.91s17.87-9,35.73-9,17.87,13.25,35.74,13.25,17.87-7.39,35.73-7.39,17.87,7.52,35.74,7.52,17.86-17.85,35.73-17.85,17.87-.49,35.74-.49,17.86,11.3,35.73,11.3,17.87-5.62,35.73-5.62,17.87,13.07,35.74,13.07,17.87-1.57,35.73-1.57,17.87-8.94,35.74-8.94,17.87-2,35.74-2S471.58,871,489.45,871s17.87,1.64,35.74,1.64,17.86-1.4,35.73-1.4,17.87-6.54,35.74-6.54,17.87-3,35.73-3,17.87-4.63,35.74-4.63,17.87,17.61,35.74,17.61,17.86-7.36,35.73-7.36,17.87-4.94,35.74-4.94,17.86-2.34,35.73-2.34,17.87,6.56,35.74,6.56S864.68,856,882.55,856s17.86,8.21,35.73,8.21S936.15,878.8,954,878.8,971.89,859,989.76,859s17.87,11.32,35.74,11.32,17.86,4.24,35.73,4.24,17.87-8.95,35.74-8.95,17.86,9.26,35.73,9.26,17.87-5.82,35.73-5.82,17.87-12,35.74-12,17.87,22,35.74,22,17.86-14.43,35.73-14.43,17.87,7.69,35.73,7.69,17.87,3,35.74,3S1365,864,1382.84,864s17.87,7.93,35.74,7.93,17.87-2.17,35.74-2.17,17.87-1.19,35.74-1.19,17.87-10.19,35.74-10.19,17.87,11,35.74,11,17.86,7.73,35.73,7.73,17.87-12.26,35.74-12.26,17.88,10.35,35.75,10.35,17.86-3.12,35.73-3.12,17.87-8,35.74-8,17.87,1,35.74,1,17.87,8.4,35.74,8.4,17.87-3.83,35.74-3.83,17.88-3.87,35.75-3.87,17.87,3.89,35.74,3.89,29.69-21,41.63-7.7c13.3,14.81-14,26.14-11.2,45.84C1952,926.48,1963.3,927.82,1950,942.63Z"/></g></g></svg>