<svg xmlns="http://www.w3.org/2000/svg" width="21.04mm" height="20.71mm" viewBox="0 0 59.63 58.7"><defs><style>.cls-1{fill:#936037;}.cls-2{fill:#c89d66;}</style></defs><g id="Layer_2" data-name="Layer 2"><g id="Layer_1-2" data-name="Layer 1"><path class="cls-1" d="M56.75,29.13c0,1.58,1.43,3.46,1.16,5s.14,3.71-.39,5.15-2.7,2.57-3.48,3.9-5.6-.41-6.6.77,2,6.29.84,7.28-5.16-2.09-6.51-1.31a21.81,21.81,0,0,1-3.88,1.5A21.47,21.47,0,0,1,34,52.82c-1.5.25-2.63,4.56-4.21,4.55s-3.73,1.57-5.23,1.3-1.27-7.21-2.71-7.74-3.42.87-4.75.09S15.18,48.8,14,47.8s-1.07-2.66-2.06-3.86-8,1.72-8.82.37,3.47-5.29,3-6.76-5.76-1.9-6-3.45S.6,30.41.6,28.83s1.19-3.41,1.46-4.92,1.7-3,2.23-4.43S8.08,18,8.85,16.65s-2.93-6-1.93-7.22a34.16,34.16,0,0,1,4-3.35c1.19-1,5.91,3.08,7.26,2.31s.27-6.8,1.74-7.33,4.57,5.66,6.12,5.4,2.42-6,4-6,2.74,4.11,4.24,4.38S39.15-.5,40.58,0s-.35,8.15,1,8.93,3,.26,4.2,1.26a22.76,22.76,0,0,1,2.81,3.22,22.58,22.58,0,0,1,2.72,3.31c.76,1.34,4.81,1.16,5.33,2.63s2.74,3,3,4.51-2.86,3.65-2.87,5.23"/><rect class="cls-2" x="18.85" y="25.98" width="21.01" height="3.48" transform="translate(25.93 -12.51) rotate(41.77)"/><rect class="cls-2" x="18.04" y="25.84" width="20.94" height="3.47" transform="translate(67.91 23.02) rotate(129.37)"/></g></g></svg>