<svg id="Layer_1" data-name="Layer 1" xmlns="http://www.w3.org/2000/svg" xmlns:xlink="http://www.w3.org/1999/xlink" width="1920" height="1080" viewBox="0 0 1920 1080"><defs><style>.cls-1{fill:url(#linear-gradient);}.cls-2{fill:#96a65d;}.cls-3{fill:#6f8c30;}.cls-4{fill:#387404;}.cls-5{fill:#f2e641;}.cls-6{fill:#fff;}.cls-7{opacity:0.92;}.cls-8{opacity:0.67;}.cls-9{opacity:0.77;}.cls-10{opacity:0.66;}.cls-11{fill:#754c24;}.cls-12{opacity:0.97;}.cls-13{fill:#736258;}.cls-14{fill:#f2d0e3;}.cls-15{fill:#f2dde3;}.cls-16{fill:#ed1c24;}.cls-17,.cls-19{fill:none;stroke:#000;stroke-miterlimit:10;}.cls-18{fill:#333;}.cls-19{stroke-width:2px;}.cls-20{fill:#e1ab85;}.cls-21{fill:#10735a;}.cls-22{fill:#a67c52;}.cls-23{fill:#b9121b;}.cls-24{fill:#4c1b1b;}.cls-25{fill:#8c6239;}.cls-26{fill:#ff836a;}.cls-27{fill:#be393a;}.cls-28{fill:#4d4d4d;}.cls-29{fill:#b88d1e;}.cls-30{fill:#8c8c80;}.cls-31{fill:#104639;}.cls-32{fill:url(#linear-gradient-2);}</style><linearGradient id="linear-gradient" x1="45.55" y1="-43.05" x2="2137.56" y2="1291.95" gradientTransform="matrix(1, 0, 0, -1, 0, 1080)" gradientUnits="userSpaceOnUse"><stop offset="0" stop-color="#4cacf7"/><stop offset="1" stop-color="#fff"/></linearGradient><linearGradient id="linear-gradient-2" x1="-21.61" y1="170.26" x2="1941.91" y2="170.26" gradientTransform="matrix(1.01, 0.04, 0.03, -1.15, -8.91, 1064.22)" gradientUnits="userSpaceOnUse"><stop offset="0" stop-color="#8c6239"/><stop offset="0.49" stop-color="#724922"/><stop offset="0.55" stop-color="#6f4721"/><stop offset="1" stop-color="#42210b"/></linearGradient></defs><g id="Layer_1-2" data-name="Layer 1"><rect class="cls-1" x="0.5" y="-0.5" width="1919" height="1080"/><ellipse class="cls-2" cx="1512.04" cy="801.79" rx="474.96" ry="184.79"/><ellipse class="cls-3" cx="536.5" cy="840.65" rx="575.5" ry="223.9"/><ellipse class="cls-4" cx="990.54" cy="1038.54" rx="1105.54" ry="236.29"/><path class="cls-5" d="M1888.71,161.5c0,1.48-84,.9-84.07,2.36s83.58,9.09,83.44,10.55-83.69-7.32-83.9-5.87,82.3,17.22,82,18.66-82.58-15.45-82.93-14,80.24,25.11,79.82,26.52-80.71-23.32-81.2-21.93,77.5,32.62,76.94,34S1800.64,181,1800,182.32s74.17,39.61,73.49,40.92-75.08-37.71-75.81-36.43,70.36,46,69.57,47.26-71.53-44.07-72.37-42.86,66.22,51.81,65.33,53-67.65-49.84-68.59-48.7,61.82,57,60.84,58.09-63.51-55-64.53-54,57.24,61.59,56.18,62.61-59.18-59.65-60.28-58.67,52.55,65.63,51.42,66.57-54.74-63.76-55.9-62.86,47.8,69.18,46.6,70-50.21-67.39-51.44-66.57,43,72.25,41.76,73-45.62-70.58-46.9-69.84,38.2,74.9,36.9,75.6-41-73.36-42.32-72.7,33.4,77.17,32,77.78-36.36-75.77-37.72-75.2,28.6,79.07,27.23,79.6-31.71-77.83-33.1-77.34,23.82,80.63,22.42,81.08-27.06-79.57-28.48-79.16,19.08,81.89,17.65,82.25-22.41-81-23.85-80.67,14.35,82.85,12.9,83.13-17.78-82.14-19.24-81.9,9.68,83.52,8.21,83.72-13.17-83-14.63-82.84,5,83.93,3.56,84-8.6-83.6-10.07-83.52.46,84.08-1,84.12-4.06-83.94-5.54-83.94-4.07,84-5.53,83.94.44-84-1-84.12-8.61,83.64-10.07,83.52,5-83.89,3.57-84-13.19,83-14.64,82.84,9.65-83.48,8.21-83.72-17.8,82.18-19.24,81.9,14.34-82.81,12.9-83.13-22.43,81-23.85,80.67,19.06-81.85,17.65-82.25-27.08,79.6-28.48,79.16,23.8-80.6,22.42-81.08-31.73,77.86-33.1,77.34,28.58-79,27.23-79.6-36.39,75.8-37.72,75.2,33.37-77.13,32-77.78-41,73.39-42.32,72.7,38.17-74.87,36.9-75.6-45.65,70.61-46.9,69.83,43-72.21,41.76-73-50.25,67.42-51.44,66.56,47.77-69.13,46.61-70-54.78,63.79-55.91,62.85,52.52-65.6,51.42-66.57-59.23,59.68-60.29,58.67,57.2-61.55,56.19-62.6-63.56,55-64.54,54,61.78-57,60.84-58.08-67.7,49.86-68.59,48.7,66.18-51.78,65.34-53-71.6,44.1-72.38,42.86,70.31-46,69.58-47.26-75.14,37.73-75.82,36.43,74.11-39.59,73.5-40.92-78.25,30.79-78.8,29.43,77.43-32.59,76.94-34-80.78,23.34-81.2,21.93,80.17-25.09,79.82-26.52-82.65,15.47-82.93,14,82.23-17.19,82-18.65-83.76,7.33-83.9,5.86,83.52-9.06,83.44-10.54S1540,163,1540,161.51s84-.9,84.07-2.36-83.59-9.08-83.44-10.54,83.69,7.31,83.9,5.86-82.3-17.22-82-18.66,82.58,15.45,82.94,14-80.25-25.12-79.82-26.53,80.71,23.32,81.2,21.93-77.5-32.62-76.94-34S1628,142,1628.66,140.7s-74.16-39.62-73.49-40.93,75.08,37.71,75.82,36.44-70.37-46-69.58-47.27,71.53,44.07,72.38,42.86-66.22-51.81-65.33-53,67.64,49.84,68.58,48.7-61.82-57-60.83-58.09,63.5,55,64.53,54-57.25-61.58-56.18-62.6,59.18,59.65,60.28,58.67-52.54-65.65-51.4-66.59,54.73,63.76,55.9,62.86-47.8-69.17-46.6-70,50.21,67.38,51.43,66.57-43-72.25-41.75-73,45.62,70.57,46.9,69.83-38.2-74.9-36.9-75.6,41,73.36,42.32,72.7-33.4-77.16-32-77.77,36.35,75.76,37.71,75.2-28.6-79.07-27.22-79.6,31.71,77.83,33.1,77.34-23.83-80.64-22.42-81.09,27.05,79.57,28.47,79.17-19.07-81.89-17.64-82.26,22.41,81,23.85,80.68S1674.18,15,1675.64,14.7s17.78,82.13,19.23,81.9-9.67-83.53-8.21-83.73,13.17,83,14.64,82.84-5-83.93-3.57-84,8.6,83.6,10.07,83.53-.46-84.09,1-84.13,4.06,84,5.54,84,4.07-84,5.54-83.95-.45,84.05,1,84.12,8.6-83.64,10.06-83.52-5,83.89-3.56,84.05,13.18-83,14.64-82.84-9.66,83.49-8.21,83.73,17.8-82.18,19.23-81.9-14.33,82.8-12.9,83.13,22.43-81,23.85-80.68S1745,99,1746.39,99.41s27.08-79.6,28.47-79.16-23.8,80.6-22.42,81.08,31.73-77.87,33.1-77.34-28.57,79-27.22,79.6,36.38-75.8,37.72-75.2-33.37,77.13-32.06,77.78,41-73.39,42.32-72.7-38.17,74.87-36.9,75.6,45.66-70.61,46.9-69.84-43,72.22-41.75,73S1824.79,44.84,1826,45.7s-47.76,69.13-46.6,70,54.78-63.79,55.91-62.86-52.52,65.6-51.43,66.58,59.24-59.68,60.29-58.67-57.2,61.55-56.18,62.6,63.56-55,64.53-53.95-61.77,56.95-60.84,58.08,67.7-49.86,68.59-48.7-66.17,51.78-65.33,53,71.59-44.09,72.38-42.85-70.32,46-69.59,47.26,75.14-37.73,75.82-36.43-74.11,39.58-73.49,40.92,78.24-30.79,78.8-29.43-77.43,32.59-76.94,34,80.78-23.33,81.2-21.92-80.2,25.09-79.84,26.52,82.65-15.46,82.93-14-82.23,17.19-82,18.65,83.76-7.33,83.9-5.86-83.52,9.06-83.44,10.54S1888.71,160,1888.71,161.5Z"/><circle class="cls-6" cx="1667.58" cy="130.17" r="5.14"/><circle class="cls-6" cx="1730.25" cy="133.91" r="5.14"/><path class="cls-6" d="M1755,179.27c-6.31,8.83-18.71,15-43,19.64-23.33,4.49-37.16-10.51-43-19.64-8.42-13.09,19.27,7.91,43,8.42C1736.27,188.21,1759.72,172.72,1755,179.27Z"/><ellipse class="cls-6" cx="723.5" cy="162.11" rx="96.5" ry="79.11"/><ellipse class="cls-6" cx="807" cy="185" rx="83" ry="56"/><ellipse class="cls-6" cx="694.5" cy="255.5" rx="96.5" ry="43.5"/><ellipse class="cls-6" cx="888.5" cy="249.5" rx="121.5" ry="49.5"/><ellipse class="cls-6" cx="843" cy="162.5" rx="67" ry="49.5"/><g class="cls-7"><ellipse class="cls-6" cx="155.5" cy="155" rx="88.5" ry="70"/><ellipse class="cls-6" cx="244.5" cy="126.5" rx="66.5" ry="58.5"/><ellipse class="cls-6" cx="216.5" cy="234" rx="85.5" ry="67"/><ellipse class="cls-6" cx="109" cy="257" rx="55" ry="105" transform="translate(-164.2 199.63) rotate(-55.16)"/></g><g class="cls-8"><ellipse class="cls-6" cx="953.79" cy="82.24" rx="42.79" ry="25.24"/><ellipse class="cls-6" cx="1008.62" cy="101.96" rx="29.38" ry="23.67"/><ellipse class="cls-6" cx="963.65" cy="111.03" rx="28.99" ry="18.14"/></g><g class="cls-9"><ellipse class="cls-6" cx="1258.5" cy="135" rx="108.5" ry="64"/><ellipse class="cls-6" cx="1397.5" cy="185" rx="74.5" ry="60"/><ellipse class="cls-6" cx="1283.5" cy="208" rx="73.5" ry="46"/></g><g class="cls-10"><ellipse class="cls-6" cx="445.52" cy="98.5" rx="48.29" ry="39.59"/><ellipse class="cls-6" cx="487.31" cy="109.96" rx="41.53" ry="28.02"/><ellipse class="cls-6" cx="431.01" cy="145.23" rx="48.29" ry="21.77"/><ellipse class="cls-6" cx="528.09" cy="142.23" rx="60.8" ry="24.77"/><ellipse class="cls-6" cx="505.32" cy="98.7" rx="33.53" ry="24.77"/></g><path class="cls-11" d="M224.87,1080.84c-1.31,1.34-3.74,0-5.61,0s-1.88-4.4-3.75-4.4-1.88-.22-3.75-.22-1.87.8-3.75.8-1.87,4.6-3.75,4.6-1.87,0-3.75,0-1.87-3.87-3.75-3.87-1.87,4.06-3.75,4.06-1.87-5.34-3.75-5.34-1.87,3.78-3.75,3.78-1.87-3.68-3.75-3.68-2,3.39-3.36,2-1.9-1.49-1.9-3.39.46-1.9.46-3.8,1.91-1.9,1.91-3.79.72-1.9.72-3.79-3.82-1.9-3.82-3.79,4.71-1.9,4.71-3.79-.13-1.9-.13-3.79-.63-1.9-.63-3.8-1.22-1.9-1.22-3.8-2.5-1.9-2.5-3.8,2.07-1.9,2.07-3.79-1.5-1.89-1.5-3.79-1.14-1.9-1.14-3.79.41-1.9.41-3.8-.81-1.9-.81-3.8,1.42-1.9,1.42-3.79,2.79-1.9,2.79-3.79-2-1.9-2-3.8-.17-1.9-.17-3.79.56-1.9.56-3.8-.95-1.9-.95-3.8,2.21-1.9,2.21-3.79.38-1.9.38-3.8-.87-1.9-.87-3.8.79-1.9.79-3.79-.08-1.9-.08-3.8-.8-1.9-.8-3.8-1.49-1.9-1.49-3.8,3.88-1.9,3.88-3.8,0-1.9,0-3.8-1.49-1.9-1.49-3.8.41-1.9.41-3.8-3.75-1.9-3.75-3.8,1.11-1.9,1.11-3.8S175,948,175,946.13s.41-1.9.41-3.79,4.15-1.9,4.15-3.8.7-1.9.7-3.8-4-1.9-4-3.8,3.74-1.9,3.74-3.8-.92-1.9-.92-3.8-1.8-1.9-1.8-3.8.79-1.9.79-3.8-2.17-1.9-2.17-3.8-.52-1.9-.52-3.8,4.88-1.9,4.88-3.8-1.6-1.9-1.6-3.8-3.22-1.9-3.22-3.81,2.45-1.26,3.79-2.61.66,1.73,2.53,1.73,1.88-2.45,3.75-2.45,1.87,2,3.75,2S191.12,892,193,892s1.88-1.23,3.75-1.23,1.88,1.7,3.75,1.7,1.88.07,3.75.07,1.88-2.4,3.75-2.4,1.88,2.85,3.75,2.85,1.88,1,3.75,1,1.88-1.24,3.76-1.24,3.47-2.18,4.79-.85-2.69,2.92-2.69,4.82,0,1.9,0,3.79.57,1.9.57,3.8-.46,1.9-.46,3.79,1.26,1.89,1.26,3.79-1.36,1.9-1.36,3.79,3.1,1.9,3.1,3.79-3.28,1.9-3.28,3.79,1.15,1.9,1.15,3.8,3.52,1.9,3.52,3.8-1.73,1.9-1.73,3.79-3.48,1.9-3.48,3.79,1.07,1.9,1.07,3.79,2.58,1.9,2.58,3.8-1,1.9-1,3.8,2.35,1.9,2.35,3.79-.15,1.9-.15,3.8.32,1.9.32,3.79-3.38,1.9-3.38,3.79.75,1.9.75,3.8-.12,1.9-.12,3.8.4,1.9.4,3.79.24,1.9.24,3.8.84,1.9.84,3.8-4.12,1.9-4.12,3.8,1.9,1.9,1.9,3.8,2,1.9,2,3.8-.09,1.9-.09,3.79-3.08,1.9-3.08,3.8-.54,1.9-.54,3.8,1.22,1.9,1.22,3.8,3.7,1.9,3.7,3.8-3.71,1.9-3.71,3.8,1.62,1.9,1.62,3.8,1.15,1.9,1.15,3.8,1.27,1.9,1.27,3.79-2.89,1.9-2.89,3.8-2.6,1.9-2.6,3.8,3,1.9,3,3.8-1,1.9-1,3.8,2.46,1.9,2.46,3.8-.21,1.9-.21,3.8,1.29,1.9,1.29,3.8-4.06,1.9-4.06,3.8-.42,1.9-.42,3.8-.26,1.9-.26,3.8,4.45,1.9,4.45,3.8-2.47,1.68-1.77,3.45C225.07,1077.75,226.21,1079.48,224.87,1080.84Z"/><g class="cls-12"><g id="Layer_2" data-name="Layer 2"><g id="Layer_1-2-2" data-name="Layer 1-2"><ellipse class="cls-13" cx="1752.93" cy="603.02" rx="1.7" ry="4.34" transform="translate(142.6 1521.29) rotate(-48.68)"/><ellipse class="cls-13" cx="1726.81" cy="599.15" rx="3.65" ry="1.65" transform="translate(-71.43 926.52) rotate(-29.45)"/><path class="cls-14" d="M1758,662.49a.7.7,0,0,0,.46.88l.09,0a.76.76,0,0,0,.71-.67l1.1-5.5a.77.77,0,0,0-.39-.9.7.7,0,0,0-.85.52s0,.06,0,.1Z"/><path class="cls-14" d="M1756.7,661.55a.7.7,0,0,0,.46.88l.1,0a.76.76,0,0,0,.7-.67l1.1-5.5a.76.76,0,0,0-.39-.9.69.69,0,0,0-.84.52.3.3,0,0,0,0,.1Z"/><path class="cls-14" d="M1754.68,661.37a.9.9,0,0,0,.59,1.13l.14,0a1,1,0,0,0,.89-.86l1-5.06a1,1,0,0,0-.49-1.14.9.9,0,0,0-1.09.65.58.58,0,0,0,0,.14Z"/><ellipse class="cls-14" cx="1758.58" cy="656.88" rx="4.39" ry="3.62" transform="translate(769.76 2252.61) rotate(-78.7)"/><path class="cls-6" d="M1735.08,661.18a2.35,2.35,0,0,0,1.59,2.91l0,0a2.44,2.44,0,0,0,2.51-2.17l2.22-11.1a2.44,2.44,0,0,0-1.48-3,2.35,2.35,0,0,0-2.64,2V650Z"/><path class="cls-13" d="M1735.5,662.6a1.38,1.38,0,0,0,.92,1.71l1.46.29a1.54,1.54,0,0,0,.59-2.94l-1.46-.29A1.39,1.39,0,0,0,1735.5,662.6Z"/><path class="cls-6" d="M1731.91,664.41c-.36,1.82.62,3.54,2.18,3.71a3.09,3.09,0,0,0,3.05-2.73l3.46-17.3a3.08,3.08,0,0,0-1.77-3.69c-1.5-.44-3.07.77-3.44,2.59Z"/><path class="cls-13" d="M1731.16,666.32a2,2,0,0,0,1.29,2.41h0l2.56.51a1.94,1.94,0,0,0,2.15-1.68,2,2,0,0,0-1.25-2.44l-.08,0-2.56-.51a1.94,1.94,0,0,0-2.11,1.71v0Z"/><path class="cls-6" d="M1762.24,667.06a1.94,1.94,0,0,0,1.3,2.41h0a2,2,0,0,0,2.07-1.79l1.89-9.44a2,2,0,0,0-1.22-2.46,2,2,0,0,0-2.18,1.67v0Z"/><path class="cls-13" d="M1762.54,668.29a1.12,1.12,0,0,0,.74,1.39h0l1.06.21a1.1,1.1,0,0,0,1.2-.8,1.17,1.17,0,0,0-.59-1.54l-.11,0-1.08-.21a1.12,1.12,0,0,0-1.23,1Z"/><path class="cls-6" d="M1757.92,671.83a2.63,2.63,0,0,0,1.75,3.28l.19,0a2.78,2.78,0,0,0,2.74-2.45l2.83-14.13a2.77,2.77,0,0,0-1.59-3.31,2.62,2.62,0,0,0-3,2.12l0,.2Z"/><ellipse class="cls-6" cx="1789.44" cy="644.11" rx="2.29" ry="14.97" transform="translate(-111.05 572.55) rotate(-17.64)"/><ellipse class="cls-6" cx="1759.49" cy="633.62" rx="22.51" ry="28.46" transform="translate(793.3 2234.8) rotate(-78.7)"/><path class="cls-6" d="M1728.29,605.83c-1.34,6.69,2.13,13,7.73,13.93,5.38.9,10.69-3.64,12-10.12l1.3-6.5c1.3-6.49-1.85-12.73-7.17-14-5.52-1.29-11.15,3.2-12.49,9.9Z"/><path class="cls-15" d="M1722.59,615.69c-1,4.93,1.51,9.59,5.59,10.4h0l12.6,2.52c4,.8,8.08-2.33,9.18-7.13,1.15-5-1.37-9.88-5.52-10.71l-12.69-2.53c-4.07-.82-8.17,2.52-9.16,7.45Z"/><ellipse class="cls-6" cx="1739.94" cy="616.73" rx="3.8" ry="1.26" transform="translate(794.15 2202.04) rotate(-78.7)"/><ellipse class="cls-6" cx="1734.37" cy="615.02" rx="4.28" ry="1.65" transform="translate(791.34 2195.2) rotate(-78.7)"/><path class="cls-13" d="M1756.76,674.26a1.94,1.94,0,0,0,1.29,2.41h0l2.53.51a1.87,1.87,0,0,0,2-1.31,2,2,0,0,0-.94-2.72,1,1,0,0,0-.24-.1l-2.55-.51a2,2,0,0,0-2.12,1.72Z"/><ellipse cx="1736.4" cy="597.82" rx="2.11" ry="1.74" transform="translate(809.85 2183.37) rotate(-78.7)"/><ellipse cx="1742.73" cy="599.14" rx="1.83" ry="1.51" transform="translate(813.64 2190.64) rotate(-78.7)"/><ellipse class="cls-6" cx="1793.66" cy="657.24" rx="2.46" ry="3.84" transform="translate(-69.51 235.61) rotate(-7.37)"/><ellipse class="cls-16" cx="1739.57" cy="625.18" rx="0.84" ry="1.5" transform="translate(-104.19 492.83) rotate(-15.66)"/><path class="cls-17" d="M1740.84,622.49a6.4,6.4,0,0,1-3.69,2,7.29,7.29,0,0,1-7-3.5"/><ellipse class="cls-18" cx="1774.58" cy="639.14" rx="6.58" ry="3.64" transform="translate(29.08 1353.87) rotate(-42.08)"/><ellipse class="cls-18" cx="1760.22" cy="625.22" rx="3.71" ry="6.34" transform="translate(-55.5 1063.9) rotate(-33.14)"/><ellipse class="cls-18" cx="1752.02" cy="642.38" rx="3.14" ry="6.9" transform="translate(577.86 2092.74) rotate(-71.14)"/></g></g></g><g id="Layer_2-2" data-name="Layer 2-2"><g id="Layer_1-2-2-2" data-name="Layer 1-2-2"><ellipse class="cls-13" cx="1656.16" cy="660.33" rx="2.54" ry="6.81" transform="translate(352.16 1876.26) rotate(-64.74)"/><ellipse class="cls-13" cx="1614.1" cy="663.72" rx="5.64" ry="2.5" transform="translate(-57.89 1164.02) rotate(-39.01)"/><path class="cls-14" d="M1685.57,743.37a1.07,1.07,0,0,0,1,1.09h.15a1.14,1.14,0,0,0,.85-1.2l-.27-8.2a1.13,1.13,0,0,0-.94-1.14,1.06,1.06,0,0,0-1.12,1v.15Z"/><path class="cls-14" d="M1683.2,742.47a1.08,1.08,0,0,0,1,1.1h.15a1.13,1.13,0,0,0,.86-1.2l-.28-8.2A1.13,1.13,0,0,0,1684,733a1.07,1.07,0,0,0-1.12,1,.75.75,0,0,0,0,.15Z"/><path class="cls-14" d="M1680,742.9a1.36,1.36,0,0,0,1.33,1.41.89.89,0,0,0,.23,0,1.45,1.45,0,0,0,1.07-1.53l-.25-7.55a1.46,1.46,0,0,0-1.18-1.45,1.36,1.36,0,0,0-1.46,1.27.88.88,0,0,0,0,.23Z"/><ellipse class="cls-14" cx="1684.46" cy="735.19" rx="5.79" ry="6.42" transform="translate(-23.83 57.21) rotate(-1.93)"/><path class="cls-6" d="M1649.41,749.28a3.55,3.55,0,0,0,3.49,3.62h.12a3.66,3.66,0,0,0,3.12-3.94l-.56-16.57a3.65,3.65,0,0,0-3.38-3.72,3.56,3.56,0,0,0-3.37,3.73s0,.08,0,.12Z"/><path class="cls-13" d="M1650.58,751.17a2.09,2.09,0,0,0,2.05,2.12l2.37-.08a2.22,2.22,0,0,0-.14-4.39l-2.38.09A2.09,2.09,0,0,0,1650.58,751.17Z"/><path class="cls-6" d="M1645.64,755a4.46,4.46,0,0,0,4.37,4.55h.35a4.61,4.61,0,0,0,3.77-4.92l-.87-25.82a4.62,4.62,0,0,0-4.09-4.67,4.47,4.47,0,0,0-4.43,4.5c0,.12,0,.24,0,.36Z"/><path class="cls-13" d="M1645.15,757.94a3,3,0,0,0,2.89,3h0l4.16-.14a2.92,2.92,0,0,0,2.74-3.1h0a3,3,0,0,0-2.82-3.07H1652l-4.18.14a3,3,0,0,0-2.66,3.17v0Z"/><path class="cls-6" d="M1693.81,748.44a2.94,2.94,0,0,0,2.88,3h.1a3,3,0,0,0,2.58-3.26l-.47-14.1a3,3,0,0,0-2.8-3.07,2.93,2.93,0,0,0-2.78,3.08.31.31,0,0,0,0,.1Z"/><path class="cls-13" d="M1694.72,750.08a1.71,1.71,0,0,0,1.67,1.74h0l1.71-.06a1.7,1.7,0,0,0,1.59-1.55,1.73,1.73,0,0,0-1.43-2l-.23,0-1.76.06a1.7,1.7,0,0,0-1.55,1.84Z"/><path class="cls-6" d="M1688.81,756.71a4,4,0,0,0,3.92,4.08h.31a4.14,4.14,0,0,0,3.38-4.42l-.71-21.1a4.13,4.13,0,0,0-3.67-4.18,4,4,0,0,0-4,4c0,.11,0,.22,0,.32Z"/><ellipse class="cls-6" cx="1727.61" cy="706.21" rx="3.58" ry="22.41" transform="translate(-104.9 1060.15) rotate(-33.17)"/><ellipse class="cls-6" cx="1677.47" cy="701.73" rx="45.49" ry="32.97" transform="translate(-22.7 56.95) rotate(-1.93)"/><path class="cls-6" d="M1618.82,672.72c.33,10,8,17.8,17.06,17.23,8.71-.54,15.33-8.83,15-18.5l-.33-9.7c-.32-9.68-7.49-17.5-16.21-17.46-9.06.05-16.2,8.36-15.87,18.35Z"/><path class="cls-15" d="M1613.51,688.71c.25,7.36,5.82,13.15,12.46,12.92h0l20.52-.69c6.5-.22,11.74-6.06,11.72-13.28,0-7.58-5.7-13.61-12.47-13.38l-20.67.7c-6.64.22-11.81,6.37-11.56,13.73Z"/><ellipse class="cls-6" cx="1640.91" cy="684.3" rx="2.02" ry="5.57" transform="translate(-22.14 55.71) rotate(-1.93)"/><ellipse class="cls-6" cx="1631.12" cy="683" rx="2.64" ry="6.26" transform="translate(-22.29 55.88) rotate(-1.95)"/><path class="cls-13" d="M1687.88,760.57a3,3,0,0,0,2.89,3h0l4.12-.14a2.89,2.89,0,0,0,2.69-2.55,3,3,0,0,0-2.36-3.57,4,4,0,0,0-.5-.06l-4.16.14a3,3,0,0,0-2.68,3.19Z"/><ellipse cx="1628.57" cy="658.56" rx="2.79" ry="3.09" transform="translate(-21.28 55.28) rotate(-1.93)"/><ellipse cx="1638.9" cy="658.29" rx="2.42" ry="2.68" transform="translate(-21.26 55.63) rotate(-1.93)"/><ellipse class="cls-6" cx="1739.19" cy="723.76" rx="3.89" ry="5.69" transform="translate(-143.13 797.83) rotate(-24.85)"/><ellipse class="cls-16" cx="1642.92" cy="696.1" rx="1.32" ry="2.24" transform="matrix(0.84, -0.55, 0.55, 0.84, -113.25, 1011.7)"/><path class="cls-19" d="M1644.37,692.2a9.85,9.85,0,0,1-5,3.31,14.71,14.71,0,0,1-12.08-2"/><ellipse class="cls-18" cx="1702.93" cy="704.45" rx="9.97" ry="5.63" transform="translate(78.19 1574.19) rotate(-50.63)"/><ellipse class="cls-18" cx="1675.55" cy="689.5" rx="5.66" ry="9.73" transform="translate(92.06 1570.08) rotate(-51.45)"/><ellipse class="cls-18" cx="1668.97" cy="716.73" rx="4.61" ry="11.02" transform="translate(817.36 2321.08) rotate(-85.28)"/></g></g><g id="Layer_2-3" data-name="Layer 2-3"><g id="Layer_1-2-3" data-name="Layer 1-2-3"><ellipse class="cls-20" cx="1344.6" cy="662.53" rx="26.06" ry="7.86" transform="translate(-115.3 1002.5) rotate(-39.34)"/><path class="cls-21" d="M1391.47,742.88l-13.84,87.37c-15.26-13.67-25.42-48.59-25.42-87.37,0-51.22,17.72-93.36,39.26-93.36s39.26,42.14,39.26,93.36c0,37.32-9.4,71.2-23.84,85.86Z"/><path d="M1460.62,589.52c-3.11,5.83-20.09-10.08-25.7-6.59s5.24,20.94-.36,24.43-16.47-14-22.07-10.46,1.15,25.75-5.45,26-1.32-22.44-7.15-25.55-15.5,15-21.33,11.9,3.86-21.24-2-24.35-21.73,13.86-25.22,8.25,18.78-12.37,18.56-19-20.76-5.93-21-12.53,20.32-7.27,20.11-13.87-22.89-11.88-19.77-17.7,20.1,10.08,25.7,6.59-5.24-20.94.36-24.43,16.46,14,22.07,10.48-1.16-25.76,5.44-26,1.32,22.44,7.15,25.56,15.5-15,21.33-11.9-3.86,21.24,2,24.35,21.73-13.88,25.22-8.27-18.78,12.37-18.56,19,20.76,5.92,21,12.52-22,12.35-19,18.23C1446.86,585.67,1463.73,583.7,1460.62,589.52Z"/><path d="M1432.66,589.47c-3.12,5.82-20.1-10.08-25.7-6.59s5.24,20.94-.36,24.42-16.47-14-22.07-10.47,1.15,25.75-5.45,26-1.33-22.43-7.15-25.55-15.52,15-21.33,11.9,3.86-21.24-2-24.35-21.72,13.87-25.21,8.27,18.78-12.38,18.56-19-20.76-5.92-21-12.52,20.32-7.28,20.1-13.88-22.88-11.88-19.77-17.7,20.1,10.07,25.7,6.59-5.24-20.94.36-24.43,16.46,14,22.07,10.47-1.15-25.75,5.45-26,1.32,22.44,7.14,25.56,15.52-15,21.33-11.9-3.85,21.23,2,24.34,21.73-13.87,25.22-8.26-18.78,12.37-18.56,19,20.76,5.93,21,12.53-22,12.35-19,18.23C1418.89,585.62,1435.77,583.65,1432.66,589.47Z"/><ellipse class="cls-20" cx="1428" cy="659.66" rx="7.44" ry="28.75" transform="translate(5.12 1330.3) rotate(-50.03)"/><ellipse class="cls-20" cx="1391.42" cy="583.2" rx="51.17" ry="50.69"/><ellipse class="cls-20" cx="1440.92" cy="685.38" rx="14.3" ry="3.7" transform="translate(-9.97 1349.4) rotate(-50.03)"/><ellipse class="cls-20" cx="1338.88" cy="687.24" rx="6.28" ry="20.81" transform="translate(-93.81 1148.02) rotate(-45)"/><circle class="cls-20" cx="1431.95" cy="695.55" r="6.28"/><circle class="cls-20" cx="1351.05" cy="700.37" r="5.14"/><ellipse class="cls-22" cx="1374.01" cy="827.54" rx="5.56" ry="16.04"/><ellipse class="cls-22" cx="1409.66" cy="826.07" rx="4.3" ry="13.53"/><rect class="cls-23" x="1406.13" y="833.08" width="7.34" height="11.74" rx="1.89"/><rect class="cls-24" x="1406.13" y="838.32" width="15.31" height="7.55" rx="1.89"/><rect class="cls-23" x="1369.44" y="834.97" width="8.6" height="14.89" rx="1.89"/><rect class="cls-24" x="1361.26" y="841.89" width="17.4" height="8.81" rx="1.89"/><ellipse class="cls-25" cx="1372.23" cy="580.11" rx="4.51" ry="6.29"/><ellipse class="cls-25" cx="1396.35" cy="580.32" rx="4.93" ry="7.13"/><path class="cls-26" d="M1382,602.21h18.46c0,3.85-8.33,7-18.46,7s-18.45-3.17-18.45-7a2.94,2.94,0,0,1,.42-1.47Z"/><ellipse class="cls-27" cx="1393.62" cy="652.87" rx="30.45" ry="19.08"/><path class="cls-28" d="M1374.68,666.19a3.15,3.15,0,0,0,3.15,3.14l.35,0a3.2,3.2,0,0,0,2.79-3.21V639.85a3.2,3.2,0,0,0-2.79-3.21,3.15,3.15,0,0,0-3.48,2.77c0,.12,0,.24,0,.35Z"/><ellipse class="cls-27" cx="1357.66" cy="652.97" rx="13.79" ry="8.96" transform="translate(-137.35 467.09) rotate(-18.6)"/><ellipse class="cls-27" cx="1424.96" cy="656.17" rx="8.63" ry="14.45" transform="translate(6.71 1326.72) rotate(-50.03)"/><path class="cls-28" d="M1404.67,667.34a2.83,2.83,0,0,0,2.83,2.83l.32,0a2.89,2.89,0,0,0,2.51-2.89V638.9a2.89,2.89,0,0,0-2.51-2.89,2.83,2.83,0,0,0-3.13,2.5,1.67,1.67,0,0,0,0,.32Z"/><ellipse cx="1391.52" cy="544.25" rx="44.87" ry="19.19"/><ellipse cx="1355.7" cy="556.29" rx="22.29" ry="9.21" transform="translate(86.83 1289.34) rotate(-52.33)"/><ellipse cx="1429.03" cy="558.24" rx="6.32" ry="22.33" transform="translate(-45.28 982.72) rotate(-37.4)"/><circle class="cls-29" cx="1407.67" cy="666.19" r="2.73"/><circle class="cls-30" cx="1407.67" cy="666.4" r="0.63"/><ellipse class="cls-29" cx="1377.89" cy="665.24" rx="2.52" ry="2.41"/><ellipse class="cls-30" cx="1377.89" cy="665.66" rx="0.42" ry="0.52"/><path class="cls-31" d="M1370.05,699.51l11,.42c-.1,14.89-5,27-11,27s-11-12.39-11-27.44Z"/></g></g><g id="Layer_2-4" data-name="Layer 2-4"><g id="Layer_1-2-4" data-name="Layer 1-2-4"><ellipse class="cls-13" cx="1588.44" cy="591.26" rx="3.77" ry="1.41" transform="translate(-94.62 791.37) rotate(-27.2)"/><ellipse class="cls-13" cx="1612.02" cy="592.07" rx="1.38" ry="3.12" transform="translate(167.79 1521.25) rotate(-52.92)"/><path class="cls-14" d="M1573.73,637.74a.61.61,0,0,1-.56.62h-.08a.62.62,0,0,1-.5-.65v-4.54a.62.62,0,0,1,.5-.65.58.58,0,0,1,.63.54.28.28,0,0,1,0,.09Z"/><path class="cls-14" d="M1575,637.2a.59.59,0,0,1-.55.63h-.09a.65.65,0,0,1-.5-.65v-4.55a.64.64,0,0,1,.5-.65.59.59,0,0,1,.64.54v4.68Z"/><path class="cls-14" d="M1576.81,637.38a.77.77,0,0,1-.72.8H1576a.81.81,0,0,1-.62-.83v-4.18a.81.81,0,0,1,.62-.83.76.76,0,0,1,.83.68.49.49,0,0,1,0,.12Z"/><ellipse class="cls-14" cx="1574.19" cy="633.19" rx="3.2" ry="3.55"/><path class="cls-6" d="M1593.84,640.33a2,2,0,0,1-1.87,2.07h-.06a2,2,0,0,1-1.8-2.12v-9.17a2,2,0,0,1,1.8-2.13,2,2,0,0,1,1.93,2v9.34Z"/><path class="cls-13" d="M1593.23,641.4a1.15,1.15,0,0,1-1.1,1.21h-1.31a1.22,1.22,0,0,1,0-2.42h1.31A1.15,1.15,0,0,1,1593.23,641.4Z"/><path class="cls-6" d="M1596,643.41a2.46,2.46,0,0,1-2.33,2.59h-.2a2.58,2.58,0,0,1-2.18-2.66V629.06a2.57,2.57,0,0,1,2.18-2.66,2.48,2.48,0,0,1,2.53,2.41v14.6Z"/><path class="cls-13" d="M1596.35,645a1.62,1.62,0,0,1-1.54,1.71h-2.3a1.63,1.63,0,0,1-1.58-1.67h0a1.65,1.65,0,0,1,1.5-1.75h2.39a1.63,1.63,0,0,1,1.53,1.7Z"/><path class="cls-6" d="M1569.27,640.69a1.64,1.64,0,0,1-1.54,1.71h-.06a1.69,1.69,0,0,1-1.49-1.75v-7.8a1.69,1.69,0,0,1,1.49-1.76,1.64,1.64,0,0,1,1.6,1.66v7.94Z"/><path class="cls-13" d="M1568.79,641.62a.94.94,0,0,1-.89,1h-1a.93.93,0,0,1-.9-.83,1,1,0,0,1,.75-1.13l.13,0h1A.94.94,0,0,1,1568.79,641.62Z"/><path class="cls-6" d="M1572.19,645.18a2.22,2.22,0,0,1-2.1,2.33h-.17a2.28,2.28,0,0,1-2-2.38V633.45a2.28,2.28,0,0,1,2-2.38,2.21,2.21,0,0,1,2.27,2.15v12Z"/><ellipse class="cls-6" cx="1549.63" cy="618.12" rx="12.4" ry="1.98" transform="matrix(0.52, -0.86, 0.86, 0.52, 217.76, 1622.89)"/><ellipse class="cls-6" cx="1577.43" cy="614.56" rx="25.17" ry="18.24"/><path class="cls-6" d="M1609.33,597.42c0,5.53-4.1,10-9.12,9.85-4.83-.14-8.64-4.6-8.64-10v-5.37c0-5.36,3.81-9.81,8.64-10,5-.15,9.12,4.32,9.12,9.85Z"/><path class="cls-15" d="M1612.56,606.16c0,4.08-3,7.38-6.65,7.38h-11.36c-3.6,0-6.61-3.13-6.73-7.12-.13-4.19,2.9-7.64,6.64-7.64h11.45C1609.58,598.78,1612.56,602.08,1612.56,606.16Z"/><ellipse class="cls-6" cx="1597.32" cy="604.24" rx="1.12" ry="3.08"/><ellipse class="cls-6" cx="1602.45" cy="603.76" rx="1.46" ry="3.47"/><path class="cls-13" d="M1572.77,647.29a1.63,1.63,0,0,1-1.54,1.71H1569a1.6,1.6,0,0,1-1.54-1.36,1.68,1.68,0,0,1,1.24-2l.27,0h2.31a1.63,1.63,0,0,1,1.54,1.71Z"/><ellipse cx="1603.67" cy="589.77" rx="1.54" ry="1.71"/><ellipse cx="1597.95" cy="589.81" rx="1.34" ry="1.48"/><ellipse class="cls-6" cx="1543.71" cy="627.89" rx="3.15" ry="2.15" transform="translate(364.28 1805.28) rotate(-67.08)"/><ellipse class="cls-16" cx="1596.42" cy="610.79" rx="1.24" ry="0.73" transform="translate(246.67 1659.51) rotate(-58.78)"/><path class="cls-17" d="M1595.56,608.67a5.46,5.46,0,0,0,2.84,1.73,8.13,8.13,0,0,0,6.64-1.33"/><ellipse class="cls-18" cx="1563.4" cy="616.55" rx="3.11" ry="5.52" transform="translate(-18.07 1185.15) rotate(-41.3)"/><ellipse class="cls-18" cx="1578.27" cy="607.76" rx="5.38" ry="3.13" transform="translate(-16.7 1170.23) rotate(-40.49)"/><ellipse class="cls-18" cx="1582.41" cy="622.7" rx="6.1" ry="2.55" transform="translate(-61.47 187.47) rotate(-6.65)"/></g></g><path class="cls-11" d="M1926.22,1098.22c-1.54,1.54-.4.61-2.58.61s-2.18-.66-4.36-.66-2.18-.73-4.36-.73-2.18,3.18-4.36,3.18-2.19-.59-4.37-.59-2.18,1.32-4.36,1.32-2.18,1.22-4.36,1.22-2.18.39-4.37.39-2.18-5.37-4.36-5.37-2.19,1.75-4.37,1.75-4.91,4.3-6.46,2.76,3-4.27,3-6.45,2-2.17,2-4.34-4.33-2.17-4.33-4.34,4.23-2.18,4.23-4.35-5.85-2.17-5.85-4.34,3-2.18,3-4.35-1.34-2.17-1.34-4.34-.34-2.17-.34-4.34,4.88-2.17,4.88-4.34-1.3-2.17-1.3-4.34-4.39-2.17-4.39-4.34.09-2.18.09-4.35,5.55-2.17,5.55-4.34-3-2.18-3-4.35-.28-2.17-.28-4.34-.2-2.17-.2-4.34-.29-2.17-.29-4.34,2-2.18,2-4.35-2.24-2.17-2.24-4.34.32-2.18.32-4.35,3.39-2.17,3.39-4.34-2.31-2.17-2.31-4.35,2.9-2.17,2.9-4.34-5.21-2.18-5.21-4.35-.3-2.17-.3-4.34,2.8-2.17,2.8-4.35.24-2.17.24-4.35-.28-2.17-.28-4.34.36-2.17.36-4.35,1.71-2.17,1.71-4.34-2-2.18-2-4.35,1.37-2.17,1.37-4.35-3.92-2.17-3.92-4.34,3.21-2.18,3.21-4.35.32-2.17.32-4.35-.77-2.17-.77-4.35,2-2.17,2-4.34-2.2-2.18-2.2-4.35-1-2.18-1-4.35-.06-2.18-.06-4.35.28-2.17.28-4.34,3.15-2.18,3.15-4.35-2.19-2.17-2.19-4.35.54-2.17.54-4.35.57-2.17.57-4.35-3.63-2.17-3.63-4.35,2-2.17,2-4.35-.77-2.17-.77-4.34-1.26-2.18-1.26-4.35,4.42-2.18,4.42-4.36-4.74-2.18-4.74-4.35,1.88-1.5,3.42-3,.87,1,3,1,2.18,1,4.36,1,2.18-.24,4.36-.24,2.18-5,4.36-5h4.37c2.18,0,2.18,4.38,4.36,4.38s2.18-5.43,4.36-5.43,2.18,3.12,4.36,3.12,2.19-2,4.37-2,2.18,3.84,4.37,3.84,5.17-5.86,6.72-4.32.65,4.54.65,6.71-3.25,2.17-3.25,4.34.11,2.18.11,4.35,2.81,2.17,2.81,4.34-3.27,2.18-3.27,4.35-.05,2.17-.05,4.34,2,2.18,2,4.35-.21,2.17-.21,4.34,2.32,2.17,2.32,4.34-4.3,2.17-4.3,4.34-1.55,2.17-1.55,4.34-.69,2.17-.69,4.34,4.52,2.18,4.52,4.35-4.15,2.17-4.15,4.34-.64,2.17-.64,4.34,1.89,2.17,1.89,4.35,3.53,2.17,3.53,4.34-5.22,2.17-5.22,4.34,3.42,2.18,3.42,4.35,1,2.17,1,4.34-2.37,2.17-2.37,4.35,3.86,2.17,3.86,4.34-3.4,2.17-3.4,4.35-2,2.17-2,4.34,1.3,2.18,1.3,4.35.18,2.17.18,4.34,2.74,2.18,2.74,4.35.56,2.17.56,4.34-4.36,2.18-4.36,4.35,1,2.17,1,4.35,4.36,2.17,4.36,4.34-1.22,2.18-1.22,4.35-2,2.18-2,4.35,3.1,2.17,3.1,4.35-3.83,2.17-3.83,4.34-2.53,2.18-2.53,4.35.88,2.18.88,4.35,4.86,2.17,4.86,4.35-4,2.17-4,4.35,3.71,2.17,3.71,4.34.74,2.18.74,4.35-5.77,2.17-5.77,4.35,1.79,2.17,1.79,4.34,1.5,2.18,1.5,4.35-3,2.18-3,4.35,4.16,2.18,4.16,4.35.76,2.18.76,4.35-4.71,2.18-4.71,4.35,4.47,2.17,4.47,4.35-4.79,2.18-4.79,4.35,4.31,2.25,4.21,4.42C1929.35,1097.29,1927.76,1096.68,1926.22,1098.22Z"/><path class="cls-11" d="M563.58,1083.56c-1.53,1.51-.73,1.34-2.88,1.34s-2.16,2-4.3,2-2.16-2-4.31-2-2.15,1.58-4.3,1.58-2.15-1.88-4.31-1.88-2.15,2.21-4.31,2.21-2.15-4.29-4.3-4.29-2.16,1.19-4.31,1.19-2.15.79-4.31.79-2.15-1.75-4.31-1.75-2.15,4.22-4.31,4.22-2.15-1.88-4.31-1.88-3.52,2.18-5.06.67,1.2-2.87,1.2-5,.93-2.11.93-4.22.79-2.11.79-4.22-.09-2.12-.09-4.23-3.28-2.11-3.28-4.23,1.1-2.11,1.1-4.22-.21-2.11-.21-4.22,2.66-2.11,2.66-4.22-4.3-2.12-4.3-4.23,2.65-2.11,2.65-4.22,2.1-2.12,2.1-4.23-2.54-2.11-2.54-4.22.88-2.12.88-4.23-3.71-2.11-3.71-4.22,4.6-2.12,4.6-4.23-3-2.12-3-4.23-.45-2.11-.45-4.22-.35-2.12-.35-4.23.1-2.11.1-4.23-.89-2.11-.89-4.22,1.24-2.12,1.24-4.23-.37-2.11-.37-4.23,1.37-2.11,1.37-4.22,3.66-2.12,3.66-4.23-4.87-2.12-4.87-4.23-.34-2.11-.34-4.23.83-2.11.83-4.23.79-2.11.79-4.23,2.6-2.11,2.6-4.22-4.76-2.12-4.76-4.23.59-2.11.59-4.23,1.78-2.11,1.78-4.22-2.14-2.12-2.14-4.23,2.52-2.12,2.52-4.23-.2-2.11-.2-4.23,2.7-2.11,2.7-4.23-.84-2.11-.84-4.23-3.47-2.11-3.47-4.23.59-2.11.59-4.23-1-2.12-1-4.23,3-2.12,3-4.23-1.82-2.12-1.82-4.24-.31-2.11-.31-4.23-.15-2.47,1.36-4,1.88-3.46,4-3.46,2.15,5.54,4.3,5.54,2.15.27,4.31.27,2.15-1.82,4.3-1.82,2.15,2.33,4.3,2.33,2.16-5.07,4.31-5.07,2.15,4.6,4.31,4.6,2.15-.91,4.31-.91,2.15-3.82,4.3-3.82,2.16,2.73,4.31,2.73,2.16,1.64,4.31,1.64,2.16-4.94,4.32-4.94,1.28,2.64,2.82,4.15,2.17.6,2.17,2.7,2.48,2.11,2.48,4.22-1.69,2.12-1.69,4.23,1.69,2.11,1.69,4.22S568,918,568,920.12s-2.42,2.11-2.42,4.22,1.54,2.11,1.54,4.23.82,2.11.82,4.22-.3,2.11-.3,4.22-1.63,2.12-1.63,4.23-1.69,2.11-1.69,4.22.76,2.12.76,4.23,2.39,2.11,2.39,4.22-5.39,2.12-5.39,4.23,5.88,2.11,5.88,4.23-1.66,2.11-1.66,4.22-1.8,2.11-1.8,4.23,2.58,2.11,2.58,4.22-3.43,2.12-3.43,4.23-.39,2.11-.39,4.23,4.18,2.11,4.18,4.22-4.19,2.12-4.19,4.23,1.17,2.12,1.17,4.23,1.43,2.11,1.43,4.23-2.9,2.11-2.9,4.22,2.62,2.12,2.62,4.23,1.41,2.12,1.41,4.23.1,2.12.1,4.23.66,2.11.66,4.23-6.08,2.11-6.08,4.23,2.71,2.11,2.71,4.22-.29,2.11-.29,4.23.28,2.11.28,4.22,3.32,2.12,3.32,4.23-5.2,2.12-5.2,4.23,5.57,2.12,5.57,4.23-2.92,2.12-2.92,4.23,2.29,2.12,2.29,4.23-2.9,2.12-2.9,4.23,2.26,2.12,2.26,4.23-4.84,2.12-4.84,4.23,5.81,2.12,5.81,4.24-2.92,2.12-2.88,4.24C564.91,1082.38,565.09,1082.08,563.58,1083.56Z"/><path class="cls-11" d="M1240.43,1078.44c-1.24,1.27-1.2,2.6-3,2.6s-1.78-4.15-3.55-4.15-1.77.42-3.54.42-1.77,3.31-3.54,3.31-1.78-3-3.55-3-1.77,2.42-3.54,2.42-1.77,1.24-3.55,1.24-1.77.36-3.54.36-1.77,0-3.55,0-1.77,0-3.55,0-.89-2.82-2.13-4.09.49-.42.49-2.24-1.75-1.81-1.75-3.62,2.69-1.81,2.69-3.62-.12-1.81-.12-3.63-3.71-1.81-3.71-3.62.86-1.81.86-3.63,1-1.81,1-3.63-.78-1.81-.78-3.63.7-1.81.7-3.62-3.46-1.81-3.46-3.63,5.41-1.81,5.41-3.62-5.09-1.81-5.09-3.63-.21-1.81-.21-3.62.14-1.82.14-3.63,4-1.82,4-3.63-4.41-1.82-4.41-3.63,4.13-1.81,4.13-3.62.62-1.82.62-3.63-3.06-1.82-3.06-3.63,1.91-1.81,1.91-3.63-3.1-1.81-3.1-3.63,4.08-1.81,4.08-3.63-4.54-1.81-4.54-3.62,2.94-1.82,2.94-3.63.53-1.82.53-3.63-2.74-1.82-2.74-3.63,3-1.82,3-3.63-3.23-1.82-3.23-3.63,3.82-1.82,3.82-3.63-4-1.82-4-3.63,1.87-1.82,1.87-3.63-1.17-1.82-1.17-3.63,2.88-1.82,2.88-3.63-1.42-1.82-1.42-3.64-1.58-1.81-1.58-3.63,1.21-1.81,1.21-3.63,1.61-1.81,1.61-3.63-3.64-1.81-3.64-3.63.46-1.82.46-3.63,1.53-1.82,1.53-3.63,1-1.82,1-3.63.17-1.82.17-3.63-2.88-1.82-2.88-3.63,1.43-1.82,1.43-3.63.93-1.82.93-3.63-.86-1.82-.86-3.64-1.11-1.81-1.11-3.63,1.5-1.82,1.5-3.63-1.32-1.82-1.32-3.64-.5-1.81-.5-3.63,1-1.82,1-3.63,1.64-1.82,1.64-3.64.5-1.82.5-3.64-3.2-3.46-1.93-4.77,2.93,2.52,4.7,2.52,1.77-.76,3.54-.76,1.77-2.91,3.55-2.91,1.77-.13,3.54-.13,1.77,4,3.55,4,1.77.12,3.54.12,1.77.08,3.54.08,1.77-4.56,3.55-4.56,1.77,4.76,3.54,4.76,1.78-.09,3.55-.09,2.92-3.78,4.16-2.51,0,2.4,0,4.22,1.89,1.81,1.89,3.62-2.6,1.81-2.6,3.62.85,1.82.85,3.63-3.58,1.81-3.58,3.62,4.09,1.82,4.09,3.63.51,1.81.51,3.63-.28,1.81-.28,3.63.94,1.81.94,3.62-.45,1.81-.45,3.63-4,1.81-4,3.62,1.56,1.81,1.56,3.63.22,1.81.22,3.62-1.89,1.82-1.89,3.63,3.32,1.82,3.32,3.63,1,1.82,1,3.63-1.44,1.81-1.44,3.63-2.25,1.81-2.25,3.62,3.82,1.82,3.82,3.63-4.27,1.82-4.27,3.63-.17,1.81-.17,3.63,2.13,1.81,2.13,3.63-2,1.81-2,3.62-.73,1.82-.73,3.63,0,1.82,0,3.64,4.48,1.81,4.48,3.62-1.2,1.82-1.2,3.63-1.46,1.82-1.46,3.63-1.44,1.82-1.44,3.63,0,1.82,0,3.63,2.11,1.82,2.11,3.63-1.83,1.82-1.83,3.63,1,1.82,1,3.63,3.21,1.82,3.21,3.64-4.5,1.81-4.5,3.63,2.18,1.81,2.18,3.63-.79,1.81-.79,3.63,1.07,1.82,1.07,3.63.23,1.82.23,3.63.94,1.82.94,3.63-1.37,1.82-1.37,3.63.87,1.82.87,3.63.27,1.82.27,3.63-2.8,1.82-2.8,3.63,4.39,1.82,4.39,3.63-4.7,1.82-4.7,3.64,1.27,1.81,1.27,3.63,1.62,1.82,1.62,3.64,1.74,1.81,1.74,3.63-1.66,1.82-1.66,3.63-2.16,1.82-2.16,3.64,2.64,1.81,2.64,3.63-3.52,2.07-3.28,3.87C1239.42,1077.23,1241.7,1077.14,1240.43,1078.44Z"/><path class="cls-11" d="M1576.55,1085.59c-1.33,1.29-3.4-3.81-5.25-3.81s-1.85,2.15-3.7,2.15-1.84-.78-3.7-.78-1.85,1.06-3.7,1.06-1.85.23-3.7.23-1.84.92-3.7.92-1.84-1.35-3.7-1.35-1.85.86-3.7.86-1.85.27-3.7.27-1.25-1-2.58-2.3-3.83-.63-3.83-2.42,4.63-1.8,4.63-3.59-1.25-1.79-1.25-3.58-1.59-1.8-1.59-3.59-1.72-1.79-1.72-3.58,1.64-1.79,1.64-3.58,2.13-1.79,2.13-3.59-2.61-1.79-2.61-3.58,3.26-1.8,3.26-3.59-2.2-1.8-2.2-3.59-.5-1.79-.5-3.59,3.49-1.79,3.49-3.58-4-1.79-4-3.59,1.76-1.79,1.76-3.58,1.73-1.79,1.73-3.59-1.29-1.8-1.29-3.59-2.12-1.8-2.12-3.59,2.71-1.79,2.71-3.58-2.14-1.8-2.14-3.59,1.74-1.79,1.74-3.59-.09-1.79-.09-3.58,1.66-1.8,1.66-3.59-.48-1.8-.48-3.59-4.23-1.8-4.23-3.59,4.27-1.79,4.27-3.59-1.1-1.79-1.1-3.59,1.12-1.79,1.12-3.59-1.6-1.79-1.6-3.59,1.58-1.79,1.58-3.58.55-1.8.55-3.59-5-1.8-5-3.6,2.23-1.79,2.23-3.58.94-1.8.94-3.59-.23-1.8-.23-3.6.14-1.79.14-3.59-3.21-1.8-3.21-3.59,2.57-1.8,2.57-3.59,1.1-1.8,1.1-3.59-.4-1.79-.4-3.59-1.64-1.79-1.64-3.59,2.12-1.79,2.12-3.59-1.8-1.8-1.8-3.59,1-1.79,1-3.59-1.62-1.8-1.62-3.59,1.36-1.8,1.36-3.59,1.82-1.8,1.82-3.59-4.32-1.8-4.32-3.59.5-1.8.5-3.59.8-1.8.8-3.6-.07-1.8-.07-3.59,2.58-1.8,2.58-3.6.1-1.8.1-3.59.24-1.8.24-3.59-2.19-1.8-2.19-3.6,1-1.8,1-3.6-3.27-3.67-2-4.93,3.15-.91,5-.91,1.84,3,3.7,3,1.84.21,3.7.21l3.7,0c1.85,0,1.85-2.11,3.7-2.11s1.84,1.36,3.7,1.36,1.84-.27,3.7-.27,1.85-2.66,3.7-2.66,1.85,4.95,3.7,4.95,2.53-3.76,3.86-2.47-2.66,2-2.66,3.75-.31,1.79-.31,3.59,3.71,1.79,3.71,3.58-3.14,1.79-3.14,3.58,4.85,1.79,4.85,3.59-3.5,1.79-3.5,3.58-1.16,1.79-1.16,3.58,4.64,1.8,4.64,3.59-2,1.79-2,3.59-1.69,1.79-1.69,3.59,1.06,1.79,1.06,3.58,1.52,1.8,1.52,3.59-3.14,1.79-3.14,3.58.89,1.79.89,3.59-1.3,1.79-1.3,3.58,3.39,1.8,3.39,3.59-1.52,1.8-1.52,3.59-.61,1.8-.61,3.59-.73,1.79-.73,3.59.52,1.79.52,3.58,2.64,1.8,2.64,3.59-2.48,1.79-2.48,3.59,1.33,1.79,1.33,3.59-2.35,1.79-2.35,3.59,2.75,1.79,2.75,3.58-.75,1.8-.75,3.59,2.39,1.8,2.39,3.59-4.63,1.8-4.63,3.59,1.12,1.8,1.12,3.59-.55,1.8-.55,3.59-.61,1.8-.61,3.59,2.64,1.8,2.64,3.59-.49,1.8-.49,3.59,1.09,1.8,1.09,3.59,1,1.8,1,3.59.33,1.8.33,3.59-4.45,1.8-4.45,3.59,1.45,1.8,1.45,3.6,3,1.79,3,3.59-3.21,1.8-3.21,3.59-1.64,1.79-1.64,3.59,3.59,1.79,3.59,3.59-3.5,1.79-3.5,3.58,4.85,1.8,4.85,3.59-2.46,1.8-2.46,3.59,1.11,1.8,1.11,3.6.28,1.79.28,3.59-4,1.8-4,3.59,1.09,1.8,1.09,3.59,3.63,1.8,3.63,3.6-.08,1.8-.08,3.59-4.6,1.8-4.6,3.59,2.49,1.8,2.49,3.6.23,1.8.23,3.6-.49,1.79.14,3.47C1576.34,1083,1577.84,1084.33,1576.55,1085.59Z"/><path class="cls-11" d="M907.48,1081.43c-1.35,1.41-3.44-1.46-5.4-1.46s-2-3-3.91-3-2,5.62-3.91,5.62-2-.25-3.92-.25-2-5.15-3.91-5.15-2,2.53-3.92,2.53-2-.19-3.92-.19-2,2.16-3.91,2.16-2,.35-3.92.35-2,0-3.92,0-2-3.88-3.92-3.88-1.42,2.12-2.79.72-3-.92-3-2.94,2.65-2,2.65-4,1.57-2,1.57-4-3.25-2-3.25-4-2-2-2-4,4.23-2,4.23-4-3.12-2-3.12-4,.23-2,.23-4,0-2,0-4,4.49-2,4.49-4-4.19-2-4.19-4,.51-2,.51-4-.44-2-.44-4,3.18-2,3.18-4-2.19-2-2.19-4,2.43-2,2.43-4-.78-2-.78-4-1-2-1-4-.16-2-.16-4-1.13-2-1.13-4-.82-2-.82-4,1.77-2,1.77-4-1.66-2-1.66-4,4.14-2,4.14-4,.49-2,.49-4-5.53-2-5.53-4-.48-2-.48-4,1.11-2,1.11-4,4-2,4-4,0-2,0-4-3-2-3-4,1.13-2,1.13-4-3.35-2-3.35-4,3.37-2,3.37-4-2.47-2-2.47-4,.09-2,.09-4,5.14-2,5.14-4-.67-2-.67-4-2.85-2-2.85-4-2.38-2-2.38-4,4.35-2,4.35-4-.58-2-.58-4,.06-2,.06-4-2.8-2-2.8-4,3.68-2,3.68-4-.3-2-.3-4-4.17-2-4.17-4,.76-2,.76-4,2.13-2,2.13-4.05-2.09-2.95-.68-4.4,2.32.53,4.28.53,2-1.59,3.91-1.59,2,1.7,3.91,1.7,2-.46,3.92-.46,2,.7,3.91.7,2-.83,3.92-.83,2-.3,3.92-.3,2-.22,3.91-.22,2-.82,3.92-.82,2,.8,3.92.8,2,2.69,3.92,2.69,1.85-2.57,3.21-1.16.18,1.33.18,3.35-2.22,2-2.22,4,4.73,2,4.73,4-3.06,2-3.06,4,2,2,2,4-1.46,2-1.46,4-2.5,2-2.5,4,5.71,2,5.71,4-3.06,2-3.06,4,.65,2,.65,4-.05,2-.05,4,2,2,2,4-2.12,2-2.12,4-3.18,2-3.18,4,3.78,2,3.78,4,1.18,2,1.18,4-1.48,2-1.48,4,.68,2,.68,4-1.9,2-1.9,4,2.24,2,2.24,4-2.47,2-2.47,4,2.24,2,2.24,4-1.06,2-1.06,4,.12,2,.12,4-1,2-1,4-2.38,2-2.38,4,3.66,2,3.66,4-2.7,2-2.7,4,4.87,2,4.87,4-3.68,2-3.68,4,.7,2,.7,4,.33,2,.33,4,.71,2,.71,4-1.09,2-1.09,4-1.32,2-1.32,4,.78,2,.78,4,3.17,2,3.17,4-4.63,2-4.63,4,.46,2,.46,4,3.7,2,3.7,4-3.3,2-3.3,4,2.7,2,2.7,4,1.39,2,1.39,4,.4,2,.4,4,0,2,0,4,0,2,0,4-5.22,2-5.22,4,.08,2,.08,4.05,1.28,2.2,2,4.11C906.85,1078.85,908.89,1080,907.48,1081.43Z"/><path class="cls-32" d="M1950,942.63c-11.94,13.3-13.18,6.45-31,6.45s-17.86,0-35.73,0-17.86-8.2-35.73-8.2-17.87,10.34-35.74,10.34-17.86-4.16-35.73-4.16-17.87,3.85-35.74,3.85-17.86,4.1-35.73,4.1-17.87-2.44-35.73-2.44S1651,943,1633.08,943s-17.87,13.27-35.73,13.27-17.87-19.35-35.74-19.35S1543.74,956,1525.88,956s-17.87,1.07-35.74,1.07-17.87-8.65-35.73-8.65-17.87,4.67-35.74,4.67-17.87-5.91-35.73-5.91-17.87-.13-35.74-.13-17.87-5.57-35.73-5.57-17.87-1.1-35.74-1.1-17.87-3.86-35.74-3.86-17.87-.49-35.73-.49-17.87,2.93-35.74,2.93-17.87,2.17-35.74,2.17-17.86-6-35.73-6-17.87,20.65-35.74,20.65-17.87,2.71-35.74,2.71-17.87-14.43-35.73-14.43-17.87,2.7-35.74,2.7-17.87,5.69-35.74,5.69-17.87,1.69-35.74,1.69-17.86-14-35.73-14-17.87-5.1-35.73-5.1-17.87.15-35.74.15-17.87,2.65-35.74,2.65S721.82,951.57,704,951.57s-17.87.55-35.73.55-17.87-13.45-35.74-13.45-17.87,1.5-35.73,1.5-17.87,6.68-35.74,6.68-17.87,8.8-35.74,8.8S507.4,935.5,489.54,935.5s-17.87,7.8-35.74,7.8-17.87,9.48-35.74,9.48-17.87,4.49-35.74,4.49-17.87-14.44-35.74-14.44-17.87,12.55-35.74,12.55S293,940.19,275.1,940.19s-17.87,16.5-35.73,16.5S221.5,954,203.63,954s-17.87-3.62-35.74-3.62S150,937.66,132.15,937.66s-17.88,7-35.75,7-17.87-5.13-35.74-5.13-17.87-1-35.75-1-26.8,24.36-38.74,11.06c-13.3-14.81-7.28-22.59-7.28-42.49s-10.82-32,2.48-46.81C-6.69,846.93,7,873.91,24.9,873.91s17.87-9,35.73-9,17.87,13.25,35.74,13.25,17.87-7.39,35.73-7.39,17.87,7.52,35.74,7.52,17.86-17.85,35.73-17.85,17.87-.5,35.73-.5,17.87,11.3,35.74,11.3,17.87-5.61,35.73-5.61,17.87,13.07,35.74,13.07,17.87-1.57,35.73-1.57,17.87-8.94,35.74-8.94,17.87-2,35.73-2S471.58,871,489.45,871s17.87,1.65,35.74,1.65,17.86-1.4,35.73-1.4,17.87-6.54,35.74-6.54,17.86-3,35.73-3,17.87-4.63,35.74-4.63,17.87,17.61,35.74,17.61,17.86-7.36,35.73-7.36,17.87-4.94,35.74-4.94,17.86-2.34,35.73-2.34,17.87,6.56,35.74,6.56S864.68,856,882.55,856s17.86,8.21,35.73,8.21S936.15,878.8,954,878.8,971.89,859,989.76,859s17.87,11.32,35.73,11.32,17.87,4.24,35.74,4.24,17.87-8.95,35.74-8.95,17.86,9.26,35.73,9.26,17.87-5.82,35.73-5.82,17.87-12,35.74-12,17.87,22,35.74,22,17.86-14.43,35.73-14.43,17.87,7.68,35.73,7.68,17.87,3,35.74,3S1365,864,1382.84,864s17.87,7.93,35.74,7.93,17.87-2.17,35.74-2.17,17.87-1.2,35.74-1.2,17.87-10.19,35.74-10.19,17.87,11,35.73,11,17.87,7.74,35.74,7.74,17.87-12.26,35.74-12.26,17.87,10.35,35.75,10.35,17.86-3.13,35.73-3.13,17.87-8,35.74-8,17.87,1,35.74,1,17.87,8.4,35.74,8.4,17.87-3.83,35.74-3.83,17.87-3.87,35.75-3.87,17.87,3.89,35.74,3.89,29.69-21,41.63-7.7c13.3,14.81-14,26.14-11.2,45.84C1952,926.48,1963.3,927.82,1950,942.63Z"/></g></svg>