<svg id="Layer_2" data-name="Layer 2" xmlns="http://www.w3.org/2000/svg" width="95.16mm" height="48.04mm" viewBox="0 0 269.74 136.16"><defs><style>.cls-1{fill:#c79b66;}.cls-2{opacity:0.14;}.cls-3{fill:#fff;}.cls-4{fill:none;stroke:#1d1e1c;stroke-miterlimit:10;}.cls-5{fill:#be3b3b;}</style></defs><path class="cls-1" d="M13.63,118.18c0,6.08-2,7.12,4.1,7.12,9.08,0,9.08-2.74,18.15-2.74S45,127.91,54,127.91s9.08,3.89,18.15,3.89,9.08.27,18.15.27,9.08-5.16,18.15-5.16,9.07,9.25,18.15,9.25,9.07-10.86,18.15-10.86,9.07-.86,18.15-.86,9.07,8.76,18.14,8.76,9.08-10.6,18.16-10.6,9.07,4.35,18.15,4.35,9.08-3.93,18.16-3.93,9.08,4.55,18.15,4.55c6.08,0,4.29-3.31,4.29-9.39,0-8.37,10.19-8.37,10.19-16.75s1.58-8.38,1.58-16.75-3.25-8.38-3.25-16.76-.5-8.38-.5-16.76-2.71-8.38-2.71-16.76,1-8.38,1-16.76c0-6.08-4.53-12.89-10.61-12.89-9.07,0-9.07-4.75-18.14-4.75s-9.07,1.41-18.15,1.41-9.07,3.72-18.14,3.72-9.08,4.21-18.15,4.21S172,8.86,163,8.86s-9.08,4.3-18.15,4.3-9.07-3.45-18.15-3.45-9.07-3.87-18.15-3.87S99.43,4.23,90.35,4.23s-9.07,8.58-18.15,8.58-9.08-.06-18.15-.06S45,2.68,35.89,2.68s-9.08,9.05-18.16,9.05c-6.07,0-16.07-.17-16.07,5.91C1.66,26,4.73,26,4.73,34.39S2.31,42.77,2.31,51.15,0,59.53,0,67.9s1.84,8.38,1.84,16.76,8.93,7,11.15,15C15.43,108.6,13.63,109.8,13.63,118.18Z"/><g class="cls-2"><path class="cls-3" d="M49,104.29c0,6.07,1.42,11.13,7.49,11.13,9.2,0,9.2.54,18.41.54s9.2,4.37,18.4,4.37,9.21-10,18.41-10,9.2,1.26,18.41,1.26,9.2,1,18.4,1,9.21,7.69,18.41,7.69,9.21-2.33,18.42-2.33,9.2,4.48,18.41,4.48,9.21-10.25,18.41-10.25c6.08,0,9.51-1.8,9.51-7.87,0-9.2,3.84-9.2,3.84-18.4S226,76.69,226,67.49s11.4-9.2,11.4-18.4S226,39.89,226,30.69c0-6.07,2.29-12-3.79-12-9.2,0-9.2,1.1-18.4,1.1s-9.2,6.6-18.41,6.6-9.2-12.52-18.4-12.52-9.21,6.67-18.41,6.67-9.21-4.37-18.41-4.37-9.2,4.2-18.41,4.2S102.54,25,93.33,25s-9.21.71-18.41.71S65.71,15.11,56.5,15.11c-6.07,0-14.38,9.51-14.38,15.58,0,9.2,3.15,9.2,3.15,18.4s4,9.2,4,18.4-.2,8.67,1,17.8C51.42,94.62,49,95.09,49,104.29Z"/><path class="cls-4" d="M49,104.29c0,6.07,1.42,11.13,7.49,11.13,9.2,0,9.2.54,18.41.54s9.2,4.37,18.4,4.37,9.21-10,18.41-10,9.2,1.26,18.41,1.26,9.2,1,18.4,1,9.21,7.69,18.41,7.69,9.21-2.33,18.42-2.33,9.2,4.48,18.41,4.48,9.21-10.25,18.41-10.25c6.08,0,9.51-1.8,9.51-7.87,0-9.2,3.84-9.2,3.84-18.4S226,76.69,226,67.49s11.4-9.2,11.4-18.4S226,39.89,226,30.69c0-6.07,2.29-12-3.79-12-9.2,0-9.2,1.1-18.4,1.1s-9.2,6.6-18.41,6.6-9.2-12.52-18.4-12.52-9.21,6.67-18.41,6.67-9.21-4.37-18.41-4.37-9.2,4.2-18.41,4.2S102.54,25,93.33,25s-9.21.71-18.41.71S65.71,15.11,56.5,15.11c-6.07,0-14.38,9.51-14.38,15.58,0,9.2,3.15,9.2,3.15,18.4s4,9.2,4,18.4-.2,8.67,1,17.8C51.42,94.62,49,95.09,49,104.29Z"/></g><path class="cls-5" d="M193.9,85.18s15.56-10.28,19.74-17.67l.93-1.66a11.84,11.84,0,0,0-20.68-11.42,11.84,11.84,0,0,0-20.68,11.42l.92,1.66c4.19,7.39,19.74,17.67,19.74,17.67Z"/><path class="cls-5" d="M78.71,85.18S94.26,74.9,98.45,67.51l.93-1.66A11.84,11.84,0,0,0,78.7,54.43,11.84,11.84,0,0,0,58,65.85l.93,1.66c4.19,7.39,19.74,17.67,19.74,17.67Z"/><path class="cls-5" d="M135.44,85.18S151,74.9,155.18,67.51l.93-1.66a11.84,11.84,0,0,0-20.68-11.42,11.84,11.84,0,0,0-20.68,11.42l.92,1.66c4.19,7.39,19.74,17.67,19.74,17.67Z"/></svg>