<svg id="Layer_1" data-name="Layer 1" xmlns="http://www.w3.org/2000/svg" width="200" height="495" viewBox="0 0 200 495"><defs><style>.cls-1{fill:#e1ab85;}.cls-2{fill:#10735a;}.cls-3{fill:#a67c52;}.cls-4{fill:#b9121b;}.cls-5{fill:#4c1b1b;}.cls-6{fill:#8c6239;}.cls-7{fill:#ff836a;}.cls-8{fill:#be393a;}.cls-9{fill:#4d4d4d;}.cls-10{fill:#b88d1e;}.cls-11{fill:#8c8c80;}.cls-12{fill:#104639;}</style></defs><ellipse class="cls-1" cx="37.79" cy="233.89" rx="35.81" ry="10.84" transform="translate(-141.77 79.33) rotate(-40.1)"/><path class="cls-2" d="M101.62,345.79,82.77,467.47C62,448.43,48.15,399.8,48.15,345.79c0-71.33,24.14-130,53.47-130s53.46,58.69,53.46,130c0,52-12.81,99.16-32.46,119.57Z"/><path d="M196,132c-4.19,8-27.77-13.63-35.41-8.77s7.56,28.73-.07,33.59-22.83-19-30.47-14.16,1.85,35.49-7.19,35.79-1.63-30.89-9.56-35.22-21.5,20.5-29.43,16.17,5.64-29.17-2.29-33.5-30,18.82-34.74,11.1,25.94-17,25.64-26.19-28.58-8.28-28.87-17.47,28-10.1,27.69-19.3S39.75,57.75,44,49.6s27.77,13.63,35.41,8.77-7.56-28.73.08-33.59,22.82,19,30.46,14.16-1.85-35.49,7.2-35.8S118.77,34,126.7,38.37s21.5-20.5,29.43-16.17-5.64,29.17,2.29,33.5,30-18.82,34.74-11.1-25.94,17-25.64,26.19,28.58,8.28,28.87,17.47-30.33,17.09-26.14,25.28C177,126.68,200.24,123.88,196,132Z"/><path d="M157.9,132c-4.19,8-27.77-13.64-35.41-8.78s7.56,28.73-.07,33.59-22.83-19-30.47-14.16,1.85,35.49-7.19,35.8-1.63-30.89-9.56-35.23-21.5,20.5-29.43,16.17,5.64-29.17-2.29-33.5-30,18.82-34.74,11.1,25.94-17,25.64-26.19S5.8,102.48,5.51,93.29,33.49,83.19,33.2,74,1.67,57.67,5.92,49.52s27.77,13.63,35.41,8.77-7.56-28.73.08-33.59,22.82,19,30.46,14.16S70,3.37,79.07,3.07,80.69,34,88.62,38.29s21.5-20.5,29.43-16.16-5.64,29.16,2.29,33.5,30-18.83,34.74-11.11-25.94,17-25.64,26.19S158,79,158.32,88.18s-30.34,17.1-26.15,25.28C138.89,126.6,162.16,123.8,157.9,132Z"/><ellipse class="cls-1" cx="151.37" cy="229.89" rx="10.27" ry="39.52" transform="translate(-121.63 194.77) rotate(-49.31)"/><ellipse class="cls-1" cx="101.55" cy="123.42" rx="69.67" ry="70.6"/><ellipse class="cls-1" cx="168.96" cy="265.7" rx="19.73" ry="5.09" transform="translate(-143.7 228.46) rotate(-50.76)"/><ellipse class="cls-1" cx="30" cy="268.3" rx="8.64" ry="28.67" transform="translate(-178.64 96.97) rotate(-44.23)"/><ellipse class="cls-1" cx="156.75" cy="279.88" rx="8.56" ry="8.75"/><ellipse class="cls-1" cx="46.58" cy="286.58" rx="7" ry="7.15"/><ellipse class="cls-3" cx="78.13" cy="465.88" rx="7.29" ry="20.15"/><ellipse class="cls-3" cx="126.39" cy="461.65" rx="5.85" ry="18.84"/><rect class="cls-4" x="121.67" y="471.46" width="10.01" height="16.3" rx="2.6"/><rect class="cls-5" x="121.53" y="478.9" width="20.71" height="10.39" rx="2.6"/><rect class="cls-4" x="71.78" y="473.94" width="11.64" height="20.68" rx="2.6"/><rect class="cls-5" x="60.57" y="483.86" width="23.71" height="12.07" rx="2.6"/><ellipse class="cls-6" cx="75.42" cy="119.11" rx="6.14" ry="8.76"/><ellipse class="cls-6" cx="108.26" cy="119.4" rx="6.71" ry="9.93"/><path class="cls-7" d="M88.7,149.92h25.13c0,5.37-11.35,9.78-25.13,9.78s-25.13-4.41-25.13-9.78a4.29,4.29,0,0,1,.56-2.06Z"/><ellipse class="cls-8" cx="104.55" cy="220.44" rx="41.46" ry="26.57"/><path class="cls-9" d="M78.83,239.05a4.31,4.31,0,1,0,8.61,0V202.12a4.31,4.31,0,0,0-8.61,0Z"/><ellipse class="cls-8" cx="55.08" cy="220.81" rx="18.82" ry="12.44" transform="translate(-70.84 31.24) rotate(-19.59)"/><ellipse class="cls-8" cx="147.22" cy="225.03" rx="11.9" ry="19.86" transform="translate(-118.99 187.06) rotate(-48.69)"/><path class="cls-9" d="M119.66,240.65a3.88,3.88,0,1,0,7.75,0V200.82a3.88,3.88,0,1,0-7.75,0Z"/><ellipse cx="101.69" cy="69.18" rx="61.1" ry="26.72"/><ellipse cx="53.14" cy="85.5" rx="30.85" ry="12.67" transform="translate(-47.2 77.31) rotate(-53.47)"/><ellipse cx="152.76" cy="88.67" rx="8.68" ry="30.85" transform="matrix(0.8, -0.6, 0.6, 0.8, -22.72, 108.79)"/><ellipse class="cls-10" cx="123.68" cy="238.98" rx="3.71" ry="3.8"/><ellipse class="cls-11" cx="123.68" cy="239.28" rx="0.86" ry="0.88"/><ellipse class="cls-10" cx="83.13" cy="237.67" rx="3.43" ry="3.36"/><ellipse class="cls-11" cx="83.13" cy="238.25" rx="0.57" ry="0.73"/><path class="cls-12" d="M72.45,285.45l15,.59c-.13,20.74-6.87,37.63-15,37.63s-15-17.25-15-38.22Z"/></svg>