<svg xmlns="http://www.w3.org/2000/svg" width="13.33mm" height="13.11mm" viewBox="0 0 37.78 37.16"><defs><style>.cls-1{fill:#936037;}.cls-2{fill:#fff;}</style></defs><g id="Layer_2" data-name="Layer 2"><g id="Layer_1-2" data-name="Layer 1"><path class="cls-1" d="M36,18.36c0,1,.92,2.18.75,3.13s.1,2.34-.23,3.26-1.7,1.63-2.19,2.48-3.55-.24-4.18.51,1.31,4,.55,4.6S27.4,31,26.54,31.53a14.17,14.17,0,0,1-2.45,1,13.5,13.5,0,0,1-2.49.92c-1,.17-1.65,2.9-2.65,2.9s-2.36,1-3.31.83-.84-4.55-1.75-4.88-2.17.56-3,.07-1.21-1.4-2-2-.69-1.67-1.32-2.43S2.51,29,2,28.14s2.18-3.36,1.84-4.29S.21,22.67,0,21.69s.34-2.33.34-3.33.74-2.16.9-3.11,1.07-1.9,1.4-2.81,2.4-1,2.89-1.81S3.67,6.82,4.3,6.07A22.84,22.84,0,0,1,6.85,3.94c.75-.63,3.75,1.93,4.6,1.44s.15-4.3,1.08-4.64,2.92,3.56,3.9,3.39S18,.3,19,.3s1.75,2.59,2.7,2.76,3.06-3.37,4-3-.19,5.16.65,5.65,1.92.15,2.67.78a14.37,14.37,0,0,1,1.79,2,15.07,15.07,0,0,1,1.74,2.09c.48.84,3.05.72,3.39,1.65S37.6,14.06,37.77,15,36,17.36,36,18.36"/><path class="cls-2" d="M23,12.58a3.57,3.57,0,0,1-.77,2.54,12.51,12.51,0,0,1-1.94,1.81,9.09,9.09,0,0,0-1.81,1.82c-.23.37-.42.53-.58.5-.39-.08-.95-.56-1.69-1.45a.29.29,0,0,1-.05-.17,1.09,1.09,0,0,1,.28-.66,16.16,16.16,0,0,1,2-1.84A18.34,18.34,0,0,0,20.65,13c.64-.79.78-1.42.44-1.87a1.1,1.1,0,0,0-.95-.39,6.67,6.67,0,0,0-3,1.07l-.1,0c-.17,0-.43-.19-.77-.56a6.57,6.57,0,0,1-.68-.92.42.42,0,0,1,.1-.51A3.68,3.68,0,0,1,17,9.11a7.12,7.12,0,0,1,2.4-.47A3.05,3.05,0,0,1,21,9,4.34,4.34,0,0,1,23,12.58ZM19.21,21.8a.31.31,0,0,1,0,.13.64.64,0,0,1-.22.37,1,1,0,0,0-.27.38l-.24.7c-.13.35-.28.5-.48.46a4.49,4.49,0,0,1-1.87-1.35.16.16,0,0,1-.05-.17.83.83,0,0,0,.07-.13c.08-.21.17-.41.26-.61a1.93,1.93,0,0,0,.13-.74.39.39,0,0,1,.21-.36.92.92,0,0,1,.51-.15,2,2,0,0,1,1.08.57A2.87,2.87,0,0,1,19.21,21.8Z"/></g></g></svg>