<svg id="Layer_2" data-name="Layer 2" xmlns="http://www.w3.org/2000/svg" width="96.08mm" height="47.9mm" viewBox="0 0 272.36 135.78"><defs><style>.cls-1{fill:#c79b66;}.cls-2{opacity:0.14;}.cls-3{fill:#fff;}.cls-4,.cls-5{fill:none;stroke-miterlimit:10;}.cls-4{stroke:#1d1e1c;}.cls-5{stroke:#be3b3b;stroke-width:6px;}</style></defs><path class="cls-1" d="M3.86,118.5c0,6.07,8.16,17,14.23,17,9.08,0,9.08-2,18.15-2s9.07-3.72,18.14-3.72,9.08,2.09,18.15,2.09,9.08,3.89,18.15,3.89,9.07-2,18.15-2,9.07-11.22,18.15-11.22,9.07.34,18.15.34,9.07,6.74,18.15,6.74,9.07,5.86,18.14,5.86,9.08-10.41,18.16-10.41,9.07,2.84,18.15,2.84,9.08,2.76,18.16,2.76,9.07-6.48,18.15-6.48c6.08,0,18.19.38,18.19-5.69,0-8.38-9.81-8.38-9.81-16.76S259,93.36,259,85s.65-8.38.65-16.76,2.91-8.38,2.91-16.76,9.76-8.38,9.76-16.76S264.2,26.33,264.2,18c0-6.07-4.08-16.19-10.16-16.19-9.07,0-9.07.38-18.14.38s-9.07,10.24-18.15,10.24-9.07-5-18.14-5S190.53,4,181.46,4s-9.08,3.73-18.15,3.73-9.08,5.17-18.15,5.17S136.09,0,127,0s-9.08,1.26-18.15,1.26S99.79,9.44,90.71,9.44s-9.07,4.67-18.15,4.67S63.48,6.56,54.41,6.56,45.33,1.13,36.25,1.13s-9.08.52-18.16.52C12,1.65,9.92,11.88,9.92,18c0,8.38-2.65,8.38-2.65,16.76s4.88,8.37,4.88,16.75S3.83,59.84,3.83,68.22,1.47,76.6,1.47,85,1.23,92.53.16,100.85C-.93,109.35,3.86,110.12,3.86,118.5Z"/><g class="cls-2"><path class="cls-3" d="M52.91,104.6c0,6.08-2.12,15.35,4,15.35,9.2,0,9.2-3.44,18.41-3.44s9.2,1.29,18.4,1.29,9.21,1.34,18.41,1.34,9.2-9.45,18.41-9.45,9.2,3,18.4,3,9.21-.07,18.41-.07,9.21,2.64,18.41,2.64,9.21-4.55,18.42-4.55,9.21-1.93,18.41-1.93c6.08,0,8.09,1.91,8.09-4.17,0-9.2,1.51-9.2,1.51-18.39s8.59-9.2,8.59-18.4-12.18-9.2-12.18-18.4,7.65-9.2,7.65-18.4c0-6.08-7.58-17.81-13.66-17.81-9.2,0-9.2,13.18-18.4,13.18s-9.21-3.81-18.41-3.81-9.2-1.7-18.41-1.7-9.2,1.53-18.4,1.53-9.21-3.52-18.41-3.52-9.2-6.19-18.41-6.19-9.2,10.14-18.41,10.14-9.21-6.48-18.41-6.48S66.07,16,56.86,16c-6.07,0-18.4,9-18.4,15.06,0,9.2.78,9.2.78,18.39s1.92,9.2,1.92,18.4S40.7,78,43,86.94C45.45,96.63,52.91,95.4,52.91,104.6Z"/><path class="cls-4" d="M52.91,104.6c0,6.08-2.12,15.35,4,15.35,9.2,0,9.2-3.44,18.41-3.44s9.2,1.29,18.4,1.29,9.21,1.34,18.41,1.34,9.2-9.45,18.41-9.45,9.2,3,18.4,3,9.21-.07,18.41-.07,9.21,2.64,18.41,2.64,9.21-4.55,18.42-4.55,9.21-1.93,18.41-1.93c6.08,0,8.09,1.91,8.09-4.17,0-9.2,1.51-9.2,1.51-18.39s8.59-9.2,8.59-18.4-12.18-9.2-12.18-18.4,7.65-9.2,7.65-18.4c0-6.08-7.58-17.81-13.66-17.81-9.2,0-9.2,13.18-18.4,13.18s-9.21-3.81-18.41-3.81-9.2-1.7-18.41-1.7-9.2,1.53-18.4,1.53-9.21-3.52-18.41-3.52-9.2-6.19-18.41-6.19-9.2,10.14-18.41,10.14-9.21-6.48-18.41-6.48S66.07,16,56.86,16c-6.07,0-18.4,9-18.4,15.06,0,9.2.78,9.2.78,18.39s1.92,9.2,1.92,18.4S40.7,78,43,86.94C45.45,96.63,52.91,95.4,52.91,104.6Z"/></g><path class="cls-5" d="M194.26,85.5S209.81,75.21,214,67.82l.93-1.66a11.73,11.73,0,0,0,1.11-5,11.84,11.84,0,0,0-21.79-6.43,11.84,11.84,0,0,0-20.68,11.42l.92,1.66c4.19,7.39,19.74,17.68,19.74,17.68Z"/><path class="cls-5" d="M79.07,85.5S94.62,75.21,98.81,67.82l.93-1.66A11.84,11.84,0,0,0,79.06,54.74,11.84,11.84,0,0,0,58.37,66.16l.93,1.66C63.49,75.21,79,85.5,79,85.5Z"/><path class="cls-5" d="M135.8,85.5s15.55-10.29,19.74-17.68l.93-1.66a11.84,11.84,0,0,0-20.68-11.42A11.84,11.84,0,0,0,115.1,66.16l.93,1.66c4.19,7.39,19.74,17.68,19.74,17.68Z"/></svg>