<svg xmlns="http://www.w3.org/2000/svg" width="70.56" height="75.26" viewBox="0 0 70.56 75.26"><defs><style>.cls-1{fill:#916036;}.cls-2{fill:#c79b66;}</style></defs><g id="Layer_2" data-name="Layer 2"><g id="Layer_1-2" data-name="Layer 1"><path class="cls-1" d="M70.56,37.43c0,2.06-1.29,4.07-1.63,6s.61,4.51-.07,6.4-.24,4.83-1.25,6.57-3.87,2.73-5.17,4.28-4.14,1.69-5.69,3-.23,7.44-2,8.46a45.83,45.83,0,0,1-6.48,2.59c-1.88.69-4.91.09-6.93.45s-4.6-1.77-6.66-1.77-3.4-5.28-5.36-5.62-4.57,2.75-6.45,2.07-6.3,2.91-8,1.91.6-8.29-.94-9.59-6,.36-7.33-1.19,1.92-6.13.9-7.89S.76,52,.06,50s4.71-5.25,4.36-7.26a27,27,0,0,1-.35-5.35c0-2.06-3.1-3.92-2.75-5.89s3.11-3,3.8-4.87S8,24.36,9,22.62,4.29,14.56,5.59,13s4.49-1.75,6.05-3.06,1.46-5.84,3.22-6.86S20,3.13,22,2.44,26.08.37,28.1,0s4.53,6.77,6.59,6.77S39.22.25,41.19.59s2,7.78,3.83,8.47,7.5-6.52,9.24-5.51.05,7.36,1.6,8.66,4.92.68,6.23,2.24.69,4.42,1.71,6.18,3.44,2.78,4.14,4.7-3.1,4.7-2.75,6.72S70.56,35.37,70.56,37.43Z"/><rect class="cls-2" x="11.75" y="29.84" width="20.46" height="14.2"/><path class="cls-2" d="M37.66,49.76c0,1.56-1.07,2.19-2.41,1.39l-22-13c-1.35-.8-1.34-2.09,0-2.87L34.86,22.77c1.35-.78,2.47-.14,2.49,1.42Z"/><polygon class="cls-2" points="51.78 31.96 51.25 31.42 45.95 36.63 40.74 31.33 40.2 31.86 45.41 37.16 40.11 42.37 40.64 42.91 45.94 37.7 51.15 43 51.69 42.47 46.48 37.17 51.78 31.96"/></g></g></svg>