<svg id="Layer_2" data-name="Layer 2" xmlns="http://www.w3.org/2000/svg" width="94.59mm" height="47.72mm" viewBox="0 0 268.14 135.28"><defs><style>.cls-1{fill:#c79b66;}.cls-2{opacity:0.14;}.cls-3{fill:#fff;}.cls-4,.cls-6{fill:none;stroke-miterlimit:10;}.cls-4{stroke:#1d1e1c;}.cls-5{fill:#be3b3b;}.cls-6{stroke:#be3b3b;stroke-width:6px;}</style></defs><path class="cls-1" d="M5.37,117.32c0,6.07,4.25,12.82,10.32,12.82,9.08,0,9.08-6.07,18.15-6.07s9.07,2,18.14,2,9.08,8.72,18.15,8.72,9.08-1.12,18.15-1.12,9.07-4.47,18.15-4.47S115.5,134,124.58,134s9.07-9.11,18.15-9.11,9.07,5.75,18.15,5.75,9.07-.56,18.14-.56,9.08-6.58,18.16-6.58,9.07,5,18.15,5,9.08,5.23,18.16,5.23,9.07,1.55,18.15,1.55c6.08,0,16.5-11.89,16.5-18,0-8.38-5.15-8.38-5.15-16.76s-4.28-8.38-4.28-16.75,7.16-8.38,7.16-16.76,2.25-8.38,2.25-16.76-.8-8.38-.8-16.76-1.24-8.38-1.24-16.76c0-6.08-8.36-6.52-14.44-6.52-9.07,0-9.07.72-18.14.72s-9.07-1.3-18.15-1.3-9.07-.78-18.14-.78-9.08-4.48-18.15-4.48-9.08,6-18.15,6-9.08-6.13-18.15-6.13S133.69,0,124.61,0s-9.08,10.66-18.15,10.66S97.39,7.54,88.31,7.54,79.24,5.08,70.16,5.08,61.08,2.55,52,2.55,42.93,5.13,33.85,5.13s-9.08,2.6-18.16,2.6c-6.07,0-15.69,3-15.69,9,0,8.38,7.18,8.38,7.18,16.76s-.56,8.37-.56,16.75S3.5,58.66,3.5,67s5,8.37,5,16.75S1.78,92.25,2,100.63,5.37,108.94,5.37,117.32Z"/><g class="cls-2"><path class="cls-3" d="M49.38,103.42c0,6.08-1,13.22,5.08,13.22,9.2,0,9.2.38,18.41.38s9.2,2,18.4,2,9.21-10.83,18.41-10.83,9.2,11.34,18.41,11.34,9.2.94,18.4.94,9.21-2.84,18.41-2.84,9.21-.39,18.41-.39,9.21-9.66,18.42-9.66,9.21,14.1,18.41,14.1c6.08,0,8.67-12.16,8.67-18.24,0-9.2-3.17-9.2-3.17-18.4s7-9.19,7-18.39S225,57.43,225,48.23s3.32-9.2,3.32-18.4c0-6.08-2.07-16.2-8.15-16.2-9.2,0-9.2,8.15-18.4,8.15s-9.21-3.64-18.41-3.64S174.13,21,164.92,21s-9.2-.49-18.4-.49-9.21,4.73-18.41,4.73-9.2-5.32-18.41-5.32-9.2,2.17-18.41,2.17-9.21-4.78-18.41-4.78-9.21-.37-18.42-.37c-6.07,0-7.81,6.85-7.81,12.93,0,9.19.49,9.19.49,18.39s-5.94,9.2-5.94,18.4,2.46,8.95,4.39,17.94C47.65,94.12,49.38,94.22,49.38,103.42Z"/><path class="cls-4" d="M49.38,103.42c0,6.08-1,13.22,5.08,13.22,9.2,0,9.2.38,18.41.38s9.2,2,18.4,2,9.21-10.83,18.41-10.83,9.2,11.34,18.41,11.34,9.2.94,18.4.94,9.21-2.84,18.41-2.84,9.21-.39,18.41-.39,9.21-9.66,18.42-9.66,9.21,14.1,18.41,14.1c6.08,0,8.67-12.16,8.67-18.24,0-9.2-3.17-9.2-3.17-18.4s7-9.19,7-18.39S225,57.43,225,48.23s3.32-9.2,3.32-18.4c0-6.08-2.07-16.2-8.15-16.2-9.2,0-9.2,8.15-18.4,8.15s-9.21-3.64-18.41-3.64S174.13,21,164.92,21s-9.2-.49-18.4-.49-9.21,4.73-18.41,4.73-9.2-5.32-18.41-5.32-9.2,2.17-18.41,2.17-9.21-4.78-18.41-4.78-9.21-.37-18.42-.37c-6.07,0-7.81,6.85-7.81,12.93,0,9.19.49,9.19.49,18.39s-5.94,9.2-5.94,18.4,2.46,8.95,4.39,17.94C47.65,94.12,49.38,94.22,49.38,103.42Z"/></g><path class="cls-5" d="M191.86,84.32S207.41,74,211.6,66.64l.93-1.66a11.73,11.73,0,0,0,1.11-5,11.84,11.84,0,0,0-21.79-6.43A11.84,11.84,0,0,0,171.17,65l.92,1.66c4.19,7.39,19.74,17.68,19.74,17.68Z"/><path class="cls-6" d="M76.67,84.32S92.22,74,96.41,66.64L97.34,65A11.84,11.84,0,0,0,76.66,53.56,11.84,11.84,0,0,0,56,65l.93,1.66C61.09,74,76.64,84.32,76.64,84.32Z"/><path class="cls-5" d="M133.4,84.32S149,74,153.14,66.64l.93-1.66a11.84,11.84,0,0,0-20.68-11.42A11.84,11.84,0,0,0,112.7,65l.93,1.66c4.19,7.39,19.74,17.68,19.74,17.68Z"/></svg>