<svg id="Layer_1" data-name="Layer 1" xmlns="http://www.w3.org/2000/svg" width="210" height="90" viewBox="0 0 210 90"><defs><style>.cls-1{fill:#936037;}.cls-2{fill:#fff;}</style></defs><path class="cls-1" d="M207.84,49.76c0,5.67.29,5.53-8.82,10.07a93.15,93.15,0,0,1-19.8,7.52c-6.7,1.72-11.65,14.9-19.7,16.06-7.09,1-15.59-3.83-23.49-3.31-7.29.49-14.92,1.58-22.71,1.58s-15.16-4.62-22.45-5.11c-7.9-.52-16.2,5-23.29,4-8-1.17-14.66-7.18-21.36-8.9-8.37-2.15-16.46-2.46-22.14-5.3C15,61.82,1.68,55.43,1.68,49.76s18-3.44,27.08-8c5.68-2.83,9.07-11.84,17.44-14,6.7-1.72,13.72-5.17,21.77-6.33,7.09-1,14.29-7.74,22.19-8.27,7.29-.48,15.37,6.87,23.16,6.87s15.66-4.52,23-4c7.89.53,14.9,6.93,22,8,8,1.17,17.14-3.92,23.84-2.21,8.37,2.15,15.38,7.42,21.06,10.25,9.11,4.55,4.66,12.07,4.66,17.74"/><path class="cls-2" d="M66.91,45.21a3.56,3.56,0,0,1,2,3.45,10.08,10.08,0,0,1-1.46,4.51c-1.09,2-2.19,3-3.32,3a1.27,1.27,0,0,1-.73-.3l-.79-.61v3.36a2.08,2.08,0,0,0,.1.6c.1.31.16.53.19.65a1.39,1.39,0,0,1-.16.64.7.7,0,0,1-.57.5,4.23,4.23,0,0,1-1.6-.49,4,4,0,0,1-1.61-1,.91.91,0,0,1,0-.83,2.24,2.24,0,0,0,.14-.65V45.88a1.45,1.45,0,0,0-.14-.44A1,1,0,0,1,58.8,45c.09-.63.33-1,.75-1a7,7,0,0,1,.83.23,4.83,4.83,0,0,0,1.17.24,4.44,4.44,0,0,0,1.57-.31,4.76,4.76,0,0,1,1.39-.34,2.14,2.14,0,0,1,.5.06,2.44,2.44,0,0,1,1,.59A4.89,4.89,0,0,0,66.91,45.21Zm-1.72,1.52a2.88,2.88,0,0,0-1.31.49,4.25,4.25,0,0,0-1.3,1.09v4.76q1.11-.33,2.1-2.43a7.85,7.85,0,0,0,.91-3.22C65.59,47,65.46,46.73,65.19,46.73Z"/><path class="cls-2" d="M79.48,57.85A1.49,1.49,0,0,1,78.7,59a.92.92,0,0,1-.45,0,.71.71,0,0,0-.4,0l-3,1.22a.74.74,0,0,0-.3.34c-.1.18-.2.29-.3.32a4,4,0,0,1-1.91-.3,4.13,4.13,0,0,1-1.78-.85,1.39,1.39,0,0,1-.14-1,3.5,3.5,0,0,0,0-.49V45a.77.77,0,0,0-.16-.34.36.36,0,0,1-.13-.24c0-.25.27-.43.72-.55a4.88,4.88,0,0,1,1.88.3c1.08.3,1.63.66,1.65,1.06a1,1,0,0,1-.23.48,1,1,0,0,0-.23.47V57.1l2.15-.89a2.75,2.75,0,0,1,.7-.35c.19,0,.71.25,1.54.84S79.54,57.67,79.48,57.85Z"/><path class="cls-2" d="M93,59.35c0,.12,0,.41-.08.85a.89.89,0,0,1-.17.54.7.7,0,0,1-.35.06,5.46,5.46,0,0,1-1.69-.34,3.19,3.19,0,0,1-1.48-.75,3.07,3.07,0,0,1-.33-1.19,14.22,14.22,0,0,0-.52-2.19,16.08,16.08,0,0,0-2.28.55,8.27,8.27,0,0,0-2,.74c-.21.56-.48,1.26-.83,2.09,0,.19-.08.36-.13.52a.71.71,0,0,1-.36.41.34.34,0,0,1-.19,0,5.14,5.14,0,0,1-1.66-.5c-.77-.32-1.18-.54-1.2-.65a2.8,2.8,0,0,1,.39-1.36c.44-1.05.69-1.7.76-1.94a1.15,1.15,0,0,1-.43-.83,2,2,0,0,1,0-.22c0-.15.45-.44,1.26-.85l2.66-8.71a3.65,3.65,0,0,0,0-.87c0-.36,0-.58.12-.67s.23-.1.5-.1a12.07,12.07,0,0,1,2.76.47,5.63,5.63,0,0,1,2.14.85,56.67,56.67,0,0,0,.93,6.58A30.83,30.83,0,0,0,93,59.35Zm-5.38-6c-.18-.83-.29-1.38-.33-1.64A26.56,26.56,0,0,1,86.94,49c-.27.65-.6,1.54-1,2.69a15.06,15.06,0,0,0-.64,2.25A18.47,18.47,0,0,1,87.58,53.35Z"/><path class="cls-2" d="M105,45.58c.08.69-.08,1.12-.5,1.3l-.33.16A45.64,45.64,0,0,0,101,53.23a29.13,29.13,0,0,0-1.92,5,1.86,1.86,0,0,0,.09.55,2.43,2.43,0,0,1,.08.65c-.08.9-.32,1.38-.7,1.45a5.52,5.52,0,0,1-1.44-.3,7.76,7.76,0,0,1-1.53-.57c-.47-.32-.7-.64-.7-.95a1.35,1.35,0,0,1,.14-.54c.19-.51.6-1.56,1.22-3.16-1.14-2.25-1.91-3.81-2.31-4.66a33,33,0,0,1-1.69-4.21,1.16,1.16,0,0,0-.24-.3.53.53,0,0,1-.19-.35c0-.2.26-.5.8-.89,1.14-.85,1.92-1.24,2.35-1.19a.91.91,0,0,1,.6.42,1.27,1.27,0,0,1,.27.53A9.68,9.68,0,0,0,95.93,46a19.87,19.87,0,0,0,2,5.31c.77-1.8,1.2-2.8,1.3-3A22.17,22.17,0,0,1,101,45.15a7,7,0,0,1,.29-.82,1.24,1.24,0,0,1,1.11-.37,4.44,4.44,0,0,1,1.52.69C104.58,45.07,104.93,45.38,105,45.58Z"/><path class="cls-2" d="M123.66,59.35c0,.12,0,.41-.09.85a1,1,0,0,1-.16.54.76.76,0,0,1-.35.06,5.35,5.35,0,0,1-1.69-.34,3.24,3.24,0,0,1-1.49-.75,3.07,3.07,0,0,1-.33-1.19,15.63,15.63,0,0,0-.51-2.19,16.14,16.14,0,0,0-2.29.55,8.47,8.47,0,0,0-2,.74c-.2.56-.48,1.26-.82,2.09,0,.19-.09.36-.14.52a.65.65,0,0,1-.36.41.3.3,0,0,1-.18,0,5.07,5.07,0,0,1-1.66-.5c-.78-.32-1.18-.54-1.21-.65a3.07,3.07,0,0,1,.39-1.36c.44-1.05.7-1.7.77-1.94a1.17,1.17,0,0,1-.44-.83,2,2,0,0,1,0-.22c0-.15.45-.44,1.26-.85l2.66-8.71a3.17,3.17,0,0,0,0-.87c0-.36,0-.58.12-.67a.79.79,0,0,1,.5-.1,11.9,11.9,0,0,1,2.76.47,5.55,5.55,0,0,1,2.14.85,61.49,61.49,0,0,0,.93,6.58A30.27,30.27,0,0,0,123.66,59.35Zm-5.38-6c-.18-.83-.29-1.38-.33-1.64a22,22,0,0,1-.31-2.75c-.28.65-.6,1.54-1,2.69A15.06,15.06,0,0,0,116,53.9,18.47,18.47,0,0,1,118.28,53.35Z"/><path class="cls-2" d="M135.94,53.43a1,1,0,0,1-.72,1,.47.47,0,0,1-.29-.06.6.6,0,0,0-.27-.09,1,1,0,0,0-.27,0,31.59,31.59,0,0,1-1.25,4A4.42,4.42,0,0,1,131,60.74a1.8,1.8,0,0,1-.72.16,8.4,8.4,0,0,1-1.83-.52,18.14,18.14,0,0,1-1.75-.57,4,4,0,0,1-1.86-2.55,13.84,13.84,0,0,1-.6-4.33,16.66,16.66,0,0,1,1-5.81c.69-1.86,1.59-2.9,2.72-3.12l.33,0a6.7,6.7,0,0,1,2.52.63,4.88,4.88,0,0,1,2.14,1.48,3.94,3.94,0,0,1,.6,1.66c.12.77.2,1.18.22,1.25s.1.49.17.81a1,1,0,0,1-.21.6,1.08,1.08,0,0,1-.43.43,4.22,4.22,0,0,1-1.61-.29A6.6,6.6,0,0,1,130,50a.92.92,0,0,1-.3-.93.45.45,0,0,1,.1-.25.48.48,0,0,0,.1-.27c0-.93-.11-1.4-.33-1.4-.47,0-.88.74-1.24,2.25a21.32,21.32,0,0,0-.49,4.67c0,2.5.36,3.94,1.09,4.31.22.1.52-.26.9-1.09a7.35,7.35,0,0,0,.67-2.33,6.7,6.7,0,0,0-1.26-.61c-.49-.2-.76-.37-.8-.52a1.21,1.21,0,0,1,.2-.84,1.67,1.67,0,0,1,.61-.7,2.3,2.3,0,0,1,.9-.18,5.73,5.73,0,0,0,1,0,8.36,8.36,0,0,0,1.13-.33,3.09,3.09,0,0,1,1-.24l.23,0a4.3,4.3,0,0,1,1.51.89C135.63,52.89,136,53.24,135.94,53.43Z"/><path class="cls-2" d="M148.64,59.35c0,.12,0,.41-.08.85a1,1,0,0,1-.17.54.73.73,0,0,1-.35.06,5.4,5.4,0,0,1-1.69-.34,3.19,3.19,0,0,1-1.48-.75,3.07,3.07,0,0,1-.33-1.19,15.49,15.49,0,0,0-.52-2.19,16.47,16.47,0,0,0-2.29.55,8.33,8.33,0,0,0-1.95.74c-.21.56-.49,1.26-.83,2.09,0,.19-.09.36-.13.52a.71.71,0,0,1-.36.41.36.36,0,0,1-.19,0,5.14,5.14,0,0,1-1.66-.5c-.78-.32-1.18-.54-1.2-.65a2.8,2.8,0,0,1,.39-1.36c.44-1.05.69-1.7.76-1.94a1.15,1.15,0,0,1-.43-.83.9.9,0,0,1,0-.22c0-.15.44-.44,1.25-.85l2.66-8.71a3.17,3.17,0,0,0,0-.87c0-.36,0-.58.13-.67a.75.75,0,0,1,.49-.1,11.9,11.9,0,0,1,2.76.47,5.62,5.62,0,0,1,2.15.85,56.67,56.67,0,0,0,.93,6.58A29.92,29.92,0,0,0,148.64,59.35Zm-5.38-6c-.18-.83-.29-1.38-.33-1.64a24.08,24.08,0,0,1-.31-2.75c-.28.65-.6,1.54-1,2.69A15.06,15.06,0,0,0,141,53.9,18.47,18.47,0,0,1,143.26,53.35Z"/><path class="cls-2" d="M154.39,44.93a1.08,1.08,0,0,1-.09.37l-.12.3a8.84,8.84,0,0,0-.24,1.23V59a.74.74,0,0,0,.12.42.64.64,0,0,1,.12.31c0,.84-.16,1.3-.49,1.36a5.82,5.82,0,0,1-1.44-.25,5.32,5.32,0,0,1-1.53-.5,1,1,0,0,1-.45-.69.28.28,0,0,1,.08-.18.53.53,0,0,0,.08-.33V45.17a.47.47,0,0,0-.07-.25.5.5,0,0,1-.07-.25c0-.31.28-.53.76-.63a4.69,4.69,0,0,1,.95,0,7.64,7.64,0,0,1,1.48.22C154.09,44.41,154.39,44.64,154.39,44.93Z"/><path class="cls-2" d="M167.83,44.93a1.15,1.15,0,0,1-.08.41,3.25,3.25,0,0,0-.19.54v13s0,.2.11.73,0,1-.25,1.19a2.9,2.9,0,0,1-1.67.16,7.53,7.53,0,0,1-1.71-.38c-.84-.25-1.3-.51-1.38-.79a4.36,4.36,0,0,0-.07-.85c-.76-1.95-1.66-4.09-2.67-6.42v5.85a.86.86,0,0,0,.14.41,3.53,3.53,0,0,1,.19.36,2,2,0,0,1,.1.59c0,.53-.25.79-.74.79a7.67,7.67,0,0,1-2-.39,3.92,3.92,0,0,1-1.41-.62.74.74,0,0,1,0-.81,2.07,2.07,0,0,0,.25-.61V45.74a1.64,1.64,0,0,0-.06-.36.69.69,0,0,1,0-.37,1.34,1.34,0,0,1,.8-.91,1.49,1.49,0,0,1,.46,0,6.88,6.88,0,0,1,1.65.2,3,3,0,0,1,1.52.67,11.56,11.56,0,0,1,1.51,3.61,37.8,37.8,0,0,0,1.77,5V45.8a1.94,1.94,0,0,0-.08-.45,1.61,1.61,0,0,1-.09-.44.78.78,0,0,1,0-.22c.07-.22.33-.39.79-.49a2.82,2.82,0,0,1,1-.1,6,6,0,0,1,1.13.22C167.49,44.5,167.82,44.7,167.83,44.93Z"/></svg>