<svg id="Layer_1" data-name="Layer 1" xmlns="http://www.w3.org/2000/svg" xmlns:xlink="http://www.w3.org/1999/xlink" width="150" height="80" viewBox="0 0 150 80"><defs><style>.cls-1{fill:none;}.cls-2{clip-path:url(#clip-path);}.cls-3{fill:#936037;}.cls-4{fill:#fff;}</style><clipPath id="clip-path"><rect class="cls-1" x="-231.55" y="-509.96" width="595" height="842"/></clipPath></defs><g class="cls-2"><path class="cls-3" d="M145.87,45.67c0,6.06-3.07,7.18-15.72,11.24a133.55,133.55,0,0,1-25.62,5.66c-8.38,1-17,10.51-26.56,10.51s-18.74-4.85-27.12-5.86C40.72,66,31.41,64.7,24,62.32,11.4,58.26,6.17,51.73,6.17,45.67s4.77-14,17.41-18.07C31,25.23,40.88,26.68,51,25.46c8.38-1,17.4-3.35,27-3.35s19.42-4.71,27.81-3.7c10.12,1.22,16.46,15.33,23.83,17.7,12.65,4.07,16.26,3.51,16.26,9.56"/><path class="cls-4" d="M57.45,37.07a3.7,3.7,0,0,1,2,3.57A10.69,10.69,0,0,1,58,45.31q-1.62,3.15-3.32,3.15a1.25,1.25,0,0,1-.73-.32l-.79-.63V51a2.11,2.11,0,0,0,.1.61c.1.33.16.56.19.68a1.37,1.37,0,0,1-.16.66c-.13.32-.32.5-.56.52A4.13,4.13,0,0,1,51.08,53a4,4,0,0,1-1.61-1,1,1,0,0,1,0-.86,1.92,1.92,0,0,0,.15-.67V37.76a1.2,1.2,0,0,0-.15-.45,1,1,0,0,1-.12-.47c.08-.65.33-1,.74-1a6,6,0,0,1,.83.23,4.31,4.31,0,0,0,1.17.26A4.74,4.74,0,0,0,53.67,36a4.72,4.72,0,0,1,1.39-.34,2,2,0,0,1,.49.06,2.21,2.21,0,0,1,1,.61A4.93,4.93,0,0,0,57.45,37.07Zm-1.71,1.57a2.85,2.85,0,0,0-1.32.51,4.4,4.4,0,0,0-1.3,1.13V45.2c.74-.23,1.44-1.07,2.1-2.51a8.08,8.08,0,0,0,.91-3.33Q56.13,38.64,55.74,38.64Z"/><path class="cls-4" d="M70,50.15a1.53,1.53,0,0,1-.78,1.17.82.82,0,0,1-.44,0,.72.72,0,0,0-.41,0l-3,1.27A.78.78,0,0,0,65,53a.67.67,0,0,1-.29.33A3.7,3.7,0,0,1,62.83,53a4.07,4.07,0,0,1-1.78-.87,1.51,1.51,0,0,1-.14-1,4.34,4.34,0,0,0,0-.51V36.84a.86.86,0,0,0-.16-.35.38.38,0,0,1-.13-.24q0-.39.72-.57a5,5,0,0,1,1.88.3c1.09.32,1.64.68,1.65,1.11a1,1,0,0,1-.23.49,1,1,0,0,0-.22.49V49.38l2.14-.92a2.35,2.35,0,0,1,.7-.37,4.32,4.32,0,0,1,1.55.87C69.65,49.57,70.08,50,70,50.15Z"/><path class="cls-4" d="M83.5,51.71a4.79,4.79,0,0,1-.08.87,1,1,0,0,1-.16.56.7.7,0,0,1-.35.06,5.42,5.42,0,0,1-1.69-.35,3.16,3.16,0,0,1-1.49-.78,3.26,3.26,0,0,1-.33-1.22,17.34,17.34,0,0,0-.51-2.27,15,15,0,0,0-2.29.56,8.36,8.36,0,0,0-2,.77c-.21.58-.48,1.3-.82,2.16a2,2,0,0,1-.14.55.74.74,0,0,1-.36.42H73.1a5.1,5.1,0,0,1-1.66-.52c-.78-.34-1.18-.56-1.21-.67a3.17,3.17,0,0,1,.39-1.41c.44-1.09.7-1.76.76-2a1.28,1.28,0,0,1-.43-.85v-.23c0-.16.45-.46,1.26-.88l2.66-9a3.39,3.39,0,0,0,0-.9c0-.37,0-.6.12-.7a.8.8,0,0,1,.5-.1,11.26,11.26,0,0,1,2.76.49,5.52,5.52,0,0,1,2.14.88,65.74,65.74,0,0,0,1,6.85A32.74,32.74,0,0,0,83.5,51.71Zm-5.38-6.22c-.17-.86-.28-1.42-.33-1.7a27.07,27.07,0,0,1-.3-2.84c-.28.67-.6,1.59-1,2.78a14.62,14.62,0,0,0-.64,2.33A17.53,17.53,0,0,1,78.12,45.49Z"/><path class="cls-4" d="M95.5,37.45c.08.71-.08,1.16-.49,1.35a1.29,1.29,0,0,0-.33.17,45.27,45.27,0,0,0-3.16,6.4,29.3,29.3,0,0,0-1.91,5.21,1.58,1.58,0,0,0,.08.57,2.22,2.22,0,0,1,.08.68c-.08.92-.31,1.42-.7,1.49A4.71,4.71,0,0,1,87.64,53a7.77,7.77,0,0,1-1.54-.59c-.47-.33-.7-.65-.7-1a1.49,1.49,0,0,1,.14-.55c.2-.53.6-1.62,1.22-3.27q-1.71-3.5-2.31-4.83a35.9,35.9,0,0,1-1.69-4.35,1.39,1.39,0,0,0-.23-.31.59.59,0,0,1-.2-.37c0-.2.27-.51.8-.92,1.14-.87,1.93-1.28,2.35-1.23a.91.91,0,0,1,.6.43,1.46,1.46,0,0,1,.27.56,8.54,8.54,0,0,0,.12,1.24,21.08,21.08,0,0,0,2,5.5c.77-1.86,1.2-2.89,1.3-3.08A23.42,23.42,0,0,1,91.52,37a8.15,8.15,0,0,1,.29-.83,1.17,1.17,0,0,1,1.11-.39,4.5,4.5,0,0,1,1.52.71C95.12,36.93,95.47,37.25,95.5,37.45Z"/></g></svg>