<svg id="Layer_1" data-name="Layer 1" xmlns="http://www.w3.org/2000/svg" width="200" height="495" viewBox="0 0 200 495"><defs><style>.cls-1{fill:#e1ab85;}.cls-2{fill:#10735a;}.cls-3{fill:#a67c52;}.cls-4{fill:#b9121b;}.cls-5{fill:#4c1b1b;}.cls-6{fill:#8c6239;}.cls-7{fill:#be393a;}.cls-8{fill:#4d4d4d;}.cls-9{fill:#b88d1e;}.cls-10{fill:#8c8c80;}.cls-11{fill:#104639;}.cls-12{fill:none;stroke:#000;stroke-miterlimit:10;stroke-width:0.87px;}</style></defs><ellipse class="cls-1" cx="45.54" cy="257.45" rx="40.95" ry="9.49" transform="translate(-215.71 267.53) rotate(-82.18)"/><ellipse class="cls-1" cx="40.62" cy="293.16" rx="19.9" ry="4.99" transform="translate(-254.84 310.37) rotate(-85.44)"/><path class="cls-2" d="M100.62,342.33,81.77,464C61,445,47.15,396.34,47.15,342.33c0-71.33,24.14-130,53.47-130s53.46,58.69,53.46,130c0,52-12.81,99.16-32.46,119.57Z"/><path d="M195,131.49c-4.19,8-27.77-13.63-35.41-8.77s7.56,28.73-.07,33.59-22.83-19-30.47-14.16,1.85,35.49-7.19,35.79-1.63-30.89-9.56-35.22-21.5,20.5-29.43,16.17,5.64-29.17-2.29-33.5-30,18.82-34.74,11.1,25.94-17,25.64-26.19S42.88,102,42.59,92.83s28-10.1,27.69-19.3S38.75,57.21,43,49.06s27.77,13.63,35.41,8.77-7.56-28.73.08-33.59,22.82,19,30.46,14.16-1.85-35.49,7.2-35.8,1.62,30.89,9.55,35.23,21.5-20.5,29.43-16.17-5.64,29.17,2.29,33.5,30-18.82,34.74-11.1-25.94,17-25.64,26.19,28.58,8.28,28.87,17.47S165.06,104.81,169.25,113C176,126.14,199.24,123.34,195,131.49Z"/><path d="M156.9,131.42c-4.19,8-27.77-13.64-35.41-8.78s7.56,28.73-.07,33.59-22.83-19-30.47-14.16,1.85,35.49-7.19,35.8S82.13,147,74.2,142.64s-21.5,20.5-29.43,16.17,5.64-29.17-2.29-33.5-30,18.82-34.74,11.1,25.94-17,25.64-26.19S4.8,101.94,4.51,92.75s28-10.1,27.69-19.29S.67,57.13,4.92,49s27.77,13.63,35.41,8.77S32.77,29,40.41,24.16s22.82,19,30.46,14.16S69,2.83,78.07,2.53s1.62,30.89,9.55,35.22,21.5-20.5,29.43-16.16-5.64,29.16,2.29,33.5,30-18.83,34.74-11.11-25.94,17-25.64,26.19S157,78.45,157.32,87.64s-30.34,17.1-26.15,25.28C137.89,126.06,161.16,123.26,156.9,131.42Z"/><ellipse class="cls-1" cx="154.21" cy="250.68" rx="10.14" ry="40.95" transform="translate(-32.67 23.31) rotate(-7.82)"/><ellipse class="cls-1" cx="100.83" cy="119.67" rx="69.67" ry="70.6"/><ellipse class="cls-1" cx="159.11" cy="290.27" rx="5.04" ry="19.91"/><ellipse class="cls-1" cx="160.03" cy="311.17" rx="8.56" ry="8.75"/><ellipse class="cls-3" cx="76.85" cy="460.23" rx="7.57" ry="22.34"/><ellipse class="cls-3" cx="125.39" cy="458.19" rx="5.85" ry="18.84"/><rect class="cls-4" x="120.67" y="468" width="10.01" height="16.3" rx="2.6"/><rect class="cls-5" x="120.53" y="475.44" width="20.71" height="10.39" rx="2.6"/><rect class="cls-4" x="70.78" y="470.48" width="11.64" height="20.68" rx="2.6"/><rect class="cls-5" x="59.57" y="480.4" width="23.71" height="12.07" rx="2.6"/><ellipse class="cls-6" cx="74.42" cy="118.57" rx="6.14" ry="8.76"/><ellipse class="cls-6" cx="107.26" cy="118.86" rx="6.71" ry="9.93"/><ellipse class="cls-7" cx="103.55" cy="216.98" rx="41.46" ry="26.57"/><path class="cls-8" d="M77.83,235.59a4.31,4.31,0,1,0,8.61,0V198.66a4.31,4.31,0,0,0-8.61,0Z"/><ellipse class="cls-7" cx="146.22" cy="221.57" rx="11.9" ry="19.86" transform="translate(-116.73 185.13) rotate(-48.69)"/><path class="cls-8" d="M118.66,237.19a3.88,3.88,0,1,0,7.75,0V197.36a3.88,3.88,0,1,0-7.75,0Z"/><ellipse cx="100.69" cy="68.64" rx="61.1" ry="26.72"/><ellipse cx="52.14" cy="84.96" rx="30.85" ry="12.67" transform="matrix(0.6, -0.8, 0.8, 0.6, -47.17, 76.29)"/><ellipse cx="154.11" cy="87.24" rx="8.68" ry="30.85" transform="translate(-21.6 109.31) rotate(-36.67)"/><ellipse class="cls-9" cx="122.68" cy="235.52" rx="3.71" ry="3.8"/><ellipse class="cls-10" cx="122.68" cy="235.82" rx="0.86" ry="0.88"/><ellipse class="cls-9" cx="82.13" cy="234.21" rx="3.43" ry="3.36"/><ellipse class="cls-10" cx="82.13" cy="234.79" rx="0.57" ry="0.73"/><path class="cls-11" d="M71.45,282l15,.59c-.13,20.74-6.87,37.63-15,37.63s-15-17.25-15-38.22Z"/><path class="cls-12" d="M83.46,175.36c.47-.87,5.88-10.52,15.77-10.66,9.7-.14,15.25,9,15.78,9.9"/><ellipse class="cls-7" cx="56.37" cy="221.43" rx="19.1" ry="12.26" transform="translate(-164.97 164.68) rotate(-61.34)"/><ellipse class="cls-1" cx="39.08" cy="312.89" rx="8.56" ry="8.75"/></svg>