<svg id="Layer_2" data-name="Layer 2" xmlns="http://www.w3.org/2000/svg" width="95.16mm" height="48.04mm" viewBox="0 0 269.74 136.16"><defs><style>.cls-1{fill:#c79b66;}.cls-2{opacity:0.14;}.cls-3{fill:#fff;}.cls-4,.cls-6,.cls-7,.cls-9{fill:none;}.cls-4{stroke:#1d1e1c;}.cls-4,.cls-6,.cls-9{stroke-miterlimit:10;}.cls-5{fill:#736258;}.cls-6,.cls-9{stroke:#000;}.cls-6{stroke-width:0.75px;}.cls-8{fill:#f2d0e3;}.cls-10{fill:#333;}.cls-11{fill:#001300;}</style></defs><path class="cls-1" d="M13.63,118.18c0,6.08-2,7.12,4.1,7.12,9.08,0,9.08-2.74,18.15-2.74S45,127.91,54,127.91s9.08,3.89,18.15,3.89,9.08.27,18.15.27,9.08-5.16,18.15-5.16,9.07,9.25,18.15,9.25,9.07-10.86,18.15-10.86,9.07-.86,18.15-.86,9.07,8.76,18.14,8.76,9.08-10.6,18.16-10.6,9.07,4.35,18.15,4.35,9.08-3.93,18.16-3.93,9.08,4.55,18.15,4.55c6.08,0,4.29-3.31,4.29-9.39,0-8.37,10.19-8.37,10.19-16.75s1.58-8.38,1.58-16.75-3.25-8.38-3.25-16.76-.5-8.38-.5-16.76-2.71-8.38-2.71-16.76,1-8.38,1-16.76c0-6.08-4.53-12.89-10.61-12.89-9.07,0-9.07-4.75-18.14-4.75s-9.07,1.41-18.15,1.41-9.07,3.72-18.14,3.72-9.08,4.21-18.15,4.21S172,8.86,163,8.86s-9.08,4.3-18.15,4.3-9.07-3.45-18.15-3.45-9.07-3.87-18.15-3.87S99.43,4.23,90.35,4.23s-9.07,8.58-18.15,8.58-9.08-.06-18.15-.06S45,2.68,35.89,2.68s-9.08,9.05-18.16,9.05c-6.07,0-16.07-.17-16.07,5.91C1.66,26,4.73,26,4.73,34.39S2.31,42.77,2.31,51.15,0,59.53,0,67.9s1.84,8.38,1.84,16.76,8.93,7,11.15,15C15.43,108.6,13.63,109.8,13.63,118.18Z"/><g class="cls-2"><path class="cls-3" d="M49,104.29c0,6.07,1.42,11.13,7.49,11.13,9.2,0,9.2.54,18.41.54s9.2,4.37,18.4,4.37,9.21-10,18.41-10,9.2,1.26,18.41,1.26,9.2,1,18.4,1,9.21,7.69,18.41,7.69,9.21-2.33,18.42-2.33,9.2,4.48,18.41,4.48,9.21-10.25,18.41-10.25c6.08,0,9.51-1.8,9.51-7.87,0-9.2,3.84-9.2,3.84-18.4S226,76.69,226,67.49s11.4-9.2,11.4-18.4S226,39.89,226,30.69c0-6.07,2.29-12-3.79-12-9.2,0-9.2,1.1-18.4,1.1s-9.2,6.6-18.41,6.6-9.2-12.52-18.4-12.52-9.21,6.67-18.41,6.67-9.21-4.37-18.41-4.37-9.2,4.2-18.41,4.2S102.54,25,93.33,25s-9.21.71-18.41.71S65.71,15.11,56.5,15.11c-6.07,0-14.38,9.51-14.38,15.58,0,9.2,3.15,9.2,3.15,18.4s4,9.2,4,18.4-.2,8.67,1,17.8C51.42,94.62,49,95.09,49,104.29Z"/><path class="cls-4" d="M49,104.29c0,6.07,1.42,11.13,7.49,11.13,9.2,0,9.2.54,18.41.54s9.2,4.37,18.4,4.37,9.21-10,18.41-10,9.2,1.26,18.41,1.26,9.2,1,18.4,1,9.21,7.69,18.41,7.69,9.21-2.33,18.42-2.33,9.2,4.48,18.41,4.48,9.21-10.25,18.41-10.25c6.08,0,9.51-1.8,9.51-7.87,0-9.2,3.84-9.2,3.84-18.4S226,76.69,226,67.49s11.4-9.2,11.4-18.4S226,39.89,226,30.69c0-6.07,2.29-12-3.79-12-9.2,0-9.2,1.1-18.4,1.1s-9.2,6.6-18.41,6.6-9.2-12.52-18.4-12.52-9.21,6.67-18.41,6.67-9.21-4.37-18.41-4.37-9.2,4.2-18.41,4.2S102.54,25,93.33,25s-9.21.71-18.41.71S65.71,15.11,56.5,15.11c-6.07,0-14.38,9.51-14.38,15.58,0,9.2,3.15,9.2,3.15,18.4s4,9.2,4,18.4-.2,8.67,1,17.8C51.42,94.62,49,95.09,49,104.29Z"/></g><ellipse class="cls-5" cx="216.09" cy="43.86" rx="10.36" ry="4" transform="translate(2.09 97) rotate(-25.42)"/><rect class="cls-3" x="172.27" y="30.24" width="38.71" height="43.57" rx="17.01"/><path class="cls-6" d="M178,50.89c.35-3.4,2.8-5.34,4.48-5.11,1.2.16,2.18,1.46,2.64,3"/><ellipse class="cls-7" cx="201.54" cy="49.1" rx="2.86" ry="3.91"/><ellipse cx="198.92" cy="47.93" rx="2.24" ry="3.25"/><path class="cls-3" d="M166.54,97.13l11.92-5.9a2.5,2.5,0,0,0,1.15-3.57l-.55-.91a3.1,3.1,0,0,0-4-1L163.17,91.6A2.51,2.51,0,0,0,162,95.17l.56.92A3.11,3.11,0,0,0,166.54,97.13Z"/><path class="cls-3" d="M207,100.26c0,10.17-5.18,17.54-18.12,17.54s-15.48-8.25-15.48-18.42S175.89,81,188.84,81,207,90.09,207,100.26Z"/><ellipse class="cls-8" cx="190.53" cy="70.77" rx="21.91" ry="11.18"/><ellipse class="cls-3" cx="198.2" cy="67.81" rx="2.19" ry="3.29"/><path class="cls-9" d="M204.26,74.37c-5.57,3.89-11.43,4.87-14.36,2.73a5,5,0,0,1-1.77-2.47"/><ellipse class="cls-3" cx="183.41" cy="67.32" rx="1.64" ry="2.8"/><path class="cls-3" d="M173.41,105.78h0a2.75,2.75,0,0,1-3.57-.56l-7.54-9.69a2.17,2.17,0,0,1,.62-3.21h0a2.75,2.75,0,0,1,3.56.56l7.55,9.7A2.16,2.16,0,0,1,173.41,105.78Z"/><path class="cls-3" d="M201.67,90.23l1.57,3.23a1.52,1.52,0,0,0,1.92.68l17.08-6.74a1.27,1.27,0,0,0,.75-1.73l-1.57-3.23a1.53,1.53,0,0,0-1.93-.68L202.42,88.5A1.27,1.27,0,0,0,201.67,90.23Z"/><polygon class="cls-5" points="171.79 107.86 169.43 104.83 173.53 102.24 175.89 105.27 171.79 107.86"/><polygon class="cls-5" points="226.68 84.91 223.31 86.67 220.13 81.7 223.5 79.95 226.68 84.91"/><ellipse class="cls-10" cx="190.16" cy="99.05" rx="7.3" ry="9.54"/><ellipse class="cls-3" cx="167.87" cy="42.28" rx="2.8" ry="6.54" transform="translate(71.68 186.21) rotate(-70.38)"/><polygon class="cls-11" points="155.81 57.53 154.85 56.64 146.13 65.98 136.79 57.26 135.9 58.21 145.24 66.93 136.52 76.28 137.47 77.16 146.19 67.82 155.54 76.54 156.42 75.59 147.08 66.87 155.81 57.53"/></svg>