<svg id="Layer_1" data-name="Layer 1" xmlns="http://www.w3.org/2000/svg" xmlns:xlink="http://www.w3.org/1999/xlink" width="595" height="520" viewBox="0 0 595 520"><defs><style>.cls-1,.cls-8{fill:none;}.cls-2{clip-path:url(#clip-path);}.cls-3{fill:#e0c791;}.cls-4{fill:#c89d66;}.cls-5{opacity:0.14;}.cls-6{clip-path:url(#clip-path-4);}.cls-7{fill:#fff;}.cls-8{stroke:#1e1e1c;stroke-miterlimit:10;}.cls-9{fill:#8c8b80;}.cls-10{fill:#c7c7c6;}.cls-11{fill:#936037;}</style><clipPath id="clip-path"><rect class="cls-1" y="-147.5" width="595" height="842"/></clipPath><clipPath id="clip-path-4"><rect class="cls-1" x="50" y="133.5" width="472" height="345"/></clipPath></defs><g class="cls-2"><g class="cls-2"><g class="cls-2"><path class="cls-3" d="M254.25,57.12c-2.13,6.5-3.12,6.19-5.17,12.7s-1,6.86-3,13.37-1,6.86-3,13.38-4.83,5.64-6.88,12.16.94,7.46-1.11,14-2.29,6.45-4.35,13-1,7.14-5.31,12.46c-1-6.7-2.76-13.19-2.76-20,0-5,3.1-9.85,3.63-14.71s-2.82-10.7-1.75-15.46c1.1-4.91,7.27-8.38,8.89-13,1.67-4.76,2.16-9.78,4.33-14.14,2.24-4.52,5.19-8.45,7.92-12.47,2.84-4.18,6.26-7.56,9.56-11.13s4.39-10.17,8.25-13.13,9.22-4.78,13.61-6.94A69.69,69.69,0,0,1,291.26,22c4.78-1.15,10-.63,15-.63s10.45-1.33,15.23-.18,10.28,2.26,14.76,4.46,8.06,6.45,12.06,9.52,7.2,6.9,10.63,10.61,3.33,9.64,6.17,13.83c2.73,4,9.79,5.57,12,10.09,2.17,4.36,1,10.29,2.71,15,1.62,4.6,1.18,9.63,2.28,14.55,1.07,4.76,7.56,8.7,8.11,13.7s-2.77,10.9-2.77,15.93c-5.46-5.56-3.58-7.24-7.65-13.89s-4.63-6.3-8.7-13-2.75-7.46-6.82-14.11-1.75-8.07-5.81-14.72-7.86-4.34-11.92-11-1.05-8.75-5.82-14.93a53.55,53.55,0,0,0-14.55-6.66c-4.79-1.25-10.17-3.39-15.22-3.51a97.33,97.33,0,0,0-15.46,1.28c-5.12.72-10.23,2.7-14.84,4-5.29,1.47-10.08,4-14.14,5.73-7.1,3-11.61,7.23-12.33,9"/><path class="cls-4" d="M27.43,485.28c0,6.07-2,7.11,4.1,7.11,9.13,0,9.13-2.74,18.26-2.74S58.92,495,68.05,495s9.13,3.88,18.26,3.88,9.13.28,18.26.28S113.7,494,122.83,494s9.13,9.25,18.26,9.25,9.14-10.87,18.27-10.87,9.13-.85,18.26-.85,9.13,8.75,18.26,8.75,9.13-10.6,18.26-10.6,9.13,4.36,18.26,4.36,9.14-3.94,18.27-3.94,9.13,4.55,18.26,4.55,9.13-5.1,18.26-5.1,9.14,10.19,18.27,10.19,9.13,1.59,18.26,1.59,9.13-3.25,18.26-3.25,9.13-.51,18.26-.51,9.13-2.71,18.26-2.71,9.14,1,18.27,1,9.13,2.28,18.26,2.28,9.13,4.75,18.27,4.75,9.13-1.4,18.26-1.4,9.13-3.72,18.27-3.72,9.13-4.22,18.26-4.22,9.13.49,18.27.49,9.13-4.3,18.27-4.3,9.13,3.44,18.27,3.44c11,0,8.77,5.57,25,3.35a7.33,7.33,0,0,0,5.48-4.55c5.94-18.29-11.49-12.63-6.38-30.09a12.2,12.2,0,0,0-.08-7c-4.21-13.85,9.25-12.26,9.25-22.43,0-8.79-9-8.79-9-17.59s10.16-8.8,10.16-17.59-3.07-8.8-3.07-17.6,2.42-8.8,2.42-17.59,2.31-8.8,2.31-17.6-1.84-8.79-1.84-17.59-11.38-8.79-11.38-17.59.57-8.79.57-17.59,8.14-8.8,8.14-17.6.38-8.79.38-17.59,2-8.8,2-17.59-10.84-8.8-10.84-17.6,11.35-8.8,11.35-17.59.94-8.8.94-17.6-2.84-8.8-2.84-17.59S575,159.8,575,151s-9.66-8.8-9.66-17.6,14.1-8.81,14.1-17.61c0-6.07-12.17-8.67-18.24-8.67-9.13,0-9.13,3.18-18.26,3.18s-9.13-7-18.26-7S515.52,111,506.39,111s-9.13-3.33-18.26-3.33-9.13-8-18.26-8-9.13,8.15-18.26,8.15-9.14-3.64-18.27-3.64-9.13,2.81-18.26,2.81-9.13-.49-18.26-.49-9.13,4.74-18.26,4.74-9.14-5.32-18.27-5.32S351.16,108,342,108s-9.13-4.78-18.26-4.78-9.13-.37-18.27-.37S296.37,108,287.24,108s-9.13.49-18.26.49-9.13-5.94-18.26-5.94S241.59,107,232.46,107s-9.13-1.51-18.26-1.51-9.14-2.5-18.27-2.5-9.13,6.08-18.26,6.08-9.13-2-18.27-2-9.13-8.72-18.26-8.72-9.13,1.12-18.27,1.12S113.74,104,104.61,104s-9.13-4.83-18.27-4.83-9.13,9.11-18.27,9.11-9.13-5.75-18.27-5.75c-10.13,0-9,.69-21.6.54a3.72,3.72,0,0,0-3.84,4.68c3.7,17.39-4,14.77-4,25.68,0,8.79-5.23,8.79-5.23,17.59s-1.55,8.79-1.55,17.59S15,177.37,15,186.16s5.15,8.8,5.15,17.6,4.27,8.79,4.27,17.59-7.16,8.8-7.16,17.59-2.25,8.8-2.25,17.6.8,8.79.8,17.59,1.24,8.79,1.24,17.59S25,300.52,25,309.31s.72,8.8.72,17.6-1.3,8.79-1.3,17.59-.78,8.8-.78,17.59-4.47,8.8-4.47,17.6,6,8.8,6,17.6S19,406.08,19,414.88s-4.25,8.8-4.25,17.6,10.66,8.79,10.66,17.59-5.4,8.64-3.18,17.16c2.43,9.29,5.19,9.25,5.19,18"/><g class="cls-5"><g class="cls-6"><path class="cls-7" d="M60.85,459.56c0,6.07,1.42,11.13,7.49,11.13,9.1,0,9.1.54,18.19.54s9.09,4.36,18.19,4.36,9.09-10,18.19-10,9.09,1.26,18.18,1.26,9.1,1,18.19,1,9.1,7.69,18.19,7.69,9.09-2.33,18.19-2.33,9.09,4.48,18.19,4.48,9.09-10.25,18.19-10.25,9.09,1.63,18.19,1.63,9.09,3.85,18.19,3.85,9.09-9.49,18.18-9.49,9.1,11.4,18.19,11.4,9.09-11.47,18.19-11.47,9.09,8.21,18.19,8.21,9.09-1.1,18.19-1.1,9.09-6.6,18.19-6.6,9.09,12.52,18.19,12.52,9.09-6.67,18.19-6.67,9.1,4.37,18.19,4.37,9.1-4.2,18.19-4.2,9.1-4.6,18.2-4.6,9.1-.7,18.2-.7,9.09,10.56,18.19,10.56c6.08,0,14.39-9.51,14.39-15.58,0-9.05-3.15-9.05-3.15-18.1s-4-9-4-18.11-1-9.05-1-18.1,10.21-9.05,10.21-18.1-6.72-9-6.72-18.1,4.91-9.05,4.91-18.1-2.23-9.05-2.23-18.1-.47-9.05-.47-18.1-5.13-9.05-5.13-18.1,7.2-9.06,7.2-18.11-5.84-9.05-5.84-18.1,5.53-9.05,4.93-18.11l1-18.1v-18.1c-.26-9.06.52-9.06.52-18.11S519,179,519,169.91s-8.44-9-8.44-18.11c0-6.08.47-14.11-5.61-14.11-9.09,0-9.09.63-18.18.63s-9.1-.2-18.19-.2-9.1.62-18.19.62-9.1,6.81-18.19,6.81-9.09-11.82-18.19-11.82-9.09,5.89-18.18,5.89-9.1,1.59-18.19,1.59-9.1-3.47-18.19-3.47-9.1,7.35-18.19,7.35-9.1-5.43-18.19-5.43-9.1,3.32-18.19,3.32-9.09-5.12-18.19-5.12-9.09-2.46-18.18-2.46-9.1,10.14-18.19,10.14-9.1-7.74-18.19-7.74-9.1-1.1-18.19-1.1-9.1,3.39-18.19,3.39-9.1-3-18.19-3-9.1,8.3-18.2,8.3-9.09-11.81-18.18-11.81S132,145,122.93,145s-9.09-.25-18.19-.25-9.1.54-18.2.54-9.1-6.62-18.2-6.62c-6.07,0-10.26,7-10.26,13.09,0,9-5.47,9-5.47,18.1S63.29,179,63.29,188s1.31,9.05,1.31,18.1-12.6,9-12.6,18.1,10,9,10,18.1-.43,9.05-.43,18.1-4.89,9-4.89,18.1S52,287.56,52,296.61s11.11,9.05,11.11,18.1-2.53,9.05-2.53,18.11-7.75,9.05-7.75,18.1S54,360,54,369s8.49,9.05,8.49,18.1-1.18,9.06-1.18,18.11-11.24,9-11.24,18.11,11,8.5,12.16,17.48c1.18,9.19-1.37,9.68-1.37,18.74"/><path class="cls-8" d="M60.85,459.56c0,6.07,1.42,11.13,7.49,11.13,9.1,0,9.1.54,18.19.54s9.09,4.36,18.19,4.36,9.09-10,18.19-10,9.09,1.26,18.18,1.26,9.1,1,18.19,1,9.1,7.69,18.19,7.69,9.09-2.33,18.19-2.33,9.09,4.48,18.19,4.48,9.09-10.25,18.19-10.25,9.09,1.63,18.19,1.63,9.09,3.85,18.19,3.85,9.09-9.49,18.18-9.49,9.1,11.4,18.19,11.4,9.09-11.47,18.19-11.47,9.09,8.21,18.19,8.21,9.09-1.1,18.19-1.1,9.09-6.6,18.19-6.6,9.09,12.52,18.19,12.52,9.09-6.67,18.19-6.67,9.1,4.37,18.19,4.37,9.1-4.2,18.19-4.2,9.1-4.6,18.2-4.6,9.1-.7,18.2-.7,9.09,10.56,18.19,10.56c6.08,0,14.39-9.51,14.39-15.58,0-9.05-3.15-9.05-3.15-18.1s-4-9-4-18.11-1-9.05-1-18.1,10.21-9.05,10.21-18.1-6.72-9-6.72-18.1,4.91-9.05,4.91-18.1-2.23-9.05-2.23-18.1-.47-9.05-.47-18.1-5.13-9.05-5.13-18.1,7.2-9.06,7.2-18.11-5.84-9.05-5.84-18.1,5.53-9.05,5.43-18.11l1-18.1v-18.1c-.76-9.06,0-9.06,0-18.11S519,179,519,169.91s-8.44-9-8.44-18.11c0-6.08.47-14.11-5.61-14.11-9.09,0-9.09.63-18.18.63s-9.1-.2-18.19-.2-9.1.62-18.19.62-9.1,6.81-18.19,6.81-9.09-11.82-18.19-11.82-9.09,5.89-18.18,5.89-9.1,1.59-18.19,1.59-9.1-3.47-18.19-3.47-9.1,7.35-18.19,7.35-9.1-5.43-18.19-5.43-9.1,3.32-18.19,3.32-9.09-5.12-18.19-5.12-9.09-2.46-18.18-2.46-9.1,10.14-18.19,10.14-9.1-7.74-18.19-7.74-9.1-1.1-18.19-1.1-9.1,3.39-18.19,3.39-9.1-3-18.19-3-9.1,8.3-18.2,8.3-9.09-11.81-18.18-11.81S132,145,122.93,145s-9.09-.25-18.19-.25-9.1.54-18.2.54-9.1-6.62-18.2-6.62c-6.07,0-10.26,7-10.26,13.09,0,9-5.47,9-5.47,18.1S63.29,179,63.29,188s1.31,9.05,1.31,18.1-12.6,9-12.6,18.1,10,9,10,18.1-.43,9.05-.43,18.1-4.89,9-4.89,18.1S52,287.56,52,296.61s11.11,9.05,11.11,18.1-2.53,9.05-2.53,18.11-7.75,9.05-7.75,18.1S54,360,54,369s8.49,9.05,8.49,18.1-1.18,9.06-1.18,18.11-11.24,9-11.24,18.11,11,8.5,12.16,17.48C63.4,450,60.85,450.5,60.85,459.56Z"/></g></g><polygon class="cls-9" points="317.01 42.93 317.85 44.94 317.18 46.83 316.57 48.77 313.87 49.14 314.12 52.08 312.1 52.73 310.34 53.66 308.4 54.07 306.43 54.54 304.38 54.49 303.04 52.18 300.58 53.02 298.74 52.06 297.52 50.37 297.45 48.08 296.44 46.54 296.71 44.63 294.49 42.93 296.59 41.2 295.52 38.97 296.96 37.48 297.55 35.5 300.14 35.48 301.14 33.81 302.25 31.47 304.7 33.22 306.43 31.82 308.14 33.25 310.26 32.42 311.76 33.74 313.33 34.73 314.5 36.18 315.5 37.72 316.59 39.24 317.9 40.91 317.01 42.93"/><polygon class="cls-10" points="309.39 43.61 309.45 45.36 307.88 46.13 306.43 46.63 304.81 46.39 303.77 45.14 303.28 43.61 303.36 41.85 304.62 40.5 306.43 40.53 308.17 40.61 308.9 42.19 309.39 43.61"/><path class="cls-11" d="M377.42,408.14c0,6.06-3.08,7.17-15.72,11.24A133.44,133.44,0,0,1,336.08,425c-8.39,1-17,10.51-26.56,10.51s-18.74-4.85-27.12-5.86c-10.13-1.22-19.44-2.52-26.81-4.89-12.64-4.07-17.87-10.6-17.87-16.65s4.77-14,17.41-18.08c7.37-2.37,17.3-.91,27.42-2.13,8.39-1,17.41-3.36,27-3.36s19.42-4.7,27.8-3.69c10.13,1.21,16.47,15.33,23.84,17.7,12.64,4.06,16.26,3.5,16.26,9.56"/></g><path class="cls-7" d="M289,399.53a3.71,3.71,0,0,1,2,3.58,10.74,10.74,0,0,1-1.47,4.66q-1.62,3.15-3.32,3.15a1.24,1.24,0,0,1-.73-.32l-.79-.62v3.47a2.2,2.2,0,0,0,.1.62c.1.32.16.55.19.67a1.54,1.54,0,0,1-.16.67.72.72,0,0,1-.57.52,4.65,4.65,0,0,1-1.6-.51,4.16,4.16,0,0,1-1.61-1,1,1,0,0,1,0-.86,2.42,2.42,0,0,0,.14-.67V400.22a1.57,1.57,0,0,0-.14-.45.86.86,0,0,1-.12-.47c.08-.65.33-1,.74-1a5.71,5.71,0,0,1,.83.24,4.94,4.94,0,0,0,1.17.25,4.27,4.27,0,0,0,1.57-.32,4.52,4.52,0,0,1,1.4-.35,2.05,2.05,0,0,1,.49.06,2.34,2.34,0,0,1,1,.61A4.81,4.81,0,0,0,289,399.53Zm-1.71,1.57a2.84,2.84,0,0,0-1.32.51,4.47,4.47,0,0,0-1.3,1.13v4.93c.74-.24,1.44-1.07,2.1-2.52a8.2,8.2,0,0,0,.91-3.33Q287.68,401.1,287.29,401.1Z"/><path class="cls-7" d="M301.57,412.61a1.56,1.56,0,0,1-.78,1.17.89.89,0,0,1-.44,0,.73.73,0,0,0-.41,0l-3.05,1.27c-.1,0-.19.16-.3.35s-.2.3-.3.32a3.76,3.76,0,0,1-1.91-.3,4.18,4.18,0,0,1-1.78-.88,1.5,1.5,0,0,1-.14-1,3.64,3.64,0,0,0,0-.51V399.3a.77.77,0,0,0-.16-.34.4.4,0,0,1-.13-.25q0-.39.72-.57a4.88,4.88,0,0,1,1.88.3c1.09.32,1.63.69,1.65,1.11a1.06,1.06,0,0,1-.23.49,1.06,1.06,0,0,0-.23.49v11.31l2.15-.92a2.65,2.65,0,0,1,.7-.37c.19,0,.71.26,1.55.87S301.63,412.42,301.57,412.61Z"/><path class="cls-7" d="M315.05,414.17c0,.12,0,.41-.08.88a1,1,0,0,1-.16.55.78.78,0,0,1-.36.06,5.52,5.52,0,0,1-1.69-.35,3.24,3.24,0,0,1-1.48-.77,3.38,3.38,0,0,1-.33-1.23,16.74,16.74,0,0,0-.51-2.27,16.16,16.16,0,0,0-2.29.56,8.36,8.36,0,0,0-2,.77c-.21.59-.48,1.31-.83,2.17,0,.19-.08.37-.13.54a.73.73,0,0,1-.36.42.41.41,0,0,1-.19,0A5,5,0,0,1,303,415c-.77-.34-1.17-.57-1.2-.68a3,3,0,0,1,.39-1.41c.44-1.09.69-1.76.76-2a1.23,1.23,0,0,1-.43-.86,2.15,2.15,0,0,1,0-.23c0-.16.45-.45,1.26-.88l2.66-9a3.93,3.93,0,0,0,0-.9c0-.37,0-.6.12-.7s.23-.1.5-.1a11.28,11.28,0,0,1,2.76.49,5.49,5.49,0,0,1,2.14.88,61.17,61.17,0,0,0,.93,6.81A32.87,32.87,0,0,0,315.05,414.17ZM309.67,408c-.18-.86-.29-1.42-.33-1.7a28,28,0,0,1-.31-2.84c-.27.67-.59,1.6-1,2.78a15.06,15.06,0,0,0-.63,2.34A20.43,20.43,0,0,1,309.67,408Z"/><path class="cls-7" d="M327.05,399.92c.08.71-.08,1.16-.49,1.35l-.33.16a45.75,45.75,0,0,0-3.16,6.4,31.28,31.28,0,0,0-1.92,5.21,2.06,2.06,0,0,0,.09.58,2.19,2.19,0,0,1,.08.67c-.08.93-.32,1.42-.7,1.49a4.7,4.7,0,0,1-1.43-.3,6.71,6.71,0,0,1-1.54-.6c-.47-.32-.7-.65-.7-1a1.39,1.39,0,0,1,.14-.55c.2-.53.6-1.62,1.22-3.27q-1.71-3.49-2.31-4.83a34.69,34.69,0,0,1-1.69-4.35,1.35,1.35,0,0,0-.24-.31.55.55,0,0,1-.19-.37c0-.2.27-.51.8-.92,1.14-.87,1.92-1.28,2.35-1.22a.86.86,0,0,1,.6.43,1.33,1.33,0,0,1,.27.55,10.32,10.32,0,0,0,.12,1.25,21,21,0,0,0,2,5.5c.77-1.87,1.2-2.9,1.3-3.09a23.48,23.48,0,0,1,1.77-3.25,7.13,7.13,0,0,1,.29-.84,1.23,1.23,0,0,1,1.11-.39A4.29,4.29,0,0,1,326,399C326.67,399.39,327,399.71,327.05,399.92Z"/><g class="cls-2"><path class="cls-7" d="M101.46,210.43a1.25,1.25,0,0,1-.51.74,1.44,1.44,0,0,1-.7.44,1.44,1.44,0,0,0-.37,0V217a7.86,7.86,0,0,1,.22.79c.13.91,0,1.45-.33,1.61a1.19,1.19,0,0,1-.32,0,5.06,5.06,0,0,1-2-.54,3.13,3.13,0,0,1-1.56-1.11c0-.13,0-.32-.07-.58,0-.1,0-.23.16-.4a.83.83,0,0,0,.19-.33v-4.32c-.27,0-.82.14-1.63.32a15.37,15.37,0,0,0-1.6.43v4.35a.61.61,0,0,0,.14.35.9.9,0,0,1,.16.31q-.09.34-.15.66a.42.42,0,0,1-.24.3,4.37,4.37,0,0,1-1.94-.39c-1.07-.35-1.63-.64-1.69-.85a1.71,1.71,0,0,1,0-.51c0-.29.07-.49.07-.6v-13.7a5.93,5.93,0,0,1,.19-1.17c0-.14.28-.34.74-.6a.63.63,0,0,1,.24,0,6.13,6.13,0,0,1,1.69.25c.77.23,1.17.53,1.22.9a2,2,0,0,1-.19.73,2.42,2.42,0,0,0-.2.73v5.22c1-.24,2.06-.49,3.23-.75v-6a1.67,1.67,0,0,0-.1-.32.84.84,0,0,1,0-.45c.07-.26.31-.42.72-.49l.91-.11a3.23,3.23,0,0,1,1.4.28c.61.23,1,.47,1,.73a.69.69,0,0,1-.09.45,1.64,1.64,0,0,0-.15.59v5.91c.07.09.41.39,1,.92C101.29,210,101.48,210.27,101.46,210.43Z"/><path class="cls-7" d="M111.8,214.92c.13.22-.15.85-.85,1.91a7,7,0,0,1-2.21,2.29,1,1,0,0,1-.39.06,6.7,6.7,0,0,1-2.22-.51,4.2,4.2,0,0,1-1.91-1.12A7,7,0,0,1,103,213.1a9.86,9.86,0,0,1,1.11-4.75c.79-1.49,1.81-2.26,3-2.29a4.31,4.31,0,0,1,1.63.35,5.32,5.32,0,0,1,1.93,1.22,2.65,2.65,0,0,1,.37,1.15,10.1,10.1,0,0,1,.21,2,3.15,3.15,0,0,1-.47,2,17.33,17.33,0,0,1-4.56.8,7.5,7.5,0,0,0,.26,2.2c.2.77.41,1.16.63,1.18s.64-.23,1-.71a3,3,0,0,0,.67-1.05,9.65,9.65,0,0,1,.42-1.33,3.87,3.87,0,0,1,1.36.35A2.57,2.57,0,0,1,111.8,214.92Zm-3.87-6.54c-.24,0-.59.35-1,1.15a6,6,0,0,0-.77,2.29,2.86,2.86,0,0,0,1.56-.47c.24-.17.35-.89.35-2.14C108,208.68,108,208.4,107.93,208.38Z"/><path class="cls-7" d="M117.53,202a1.14,1.14,0,0,1-.1.41c-.06.17-.1.28-.12.32a9.79,9.79,0,0,0-.26,1.32v13.14a.8.8,0,0,0,.13.46.67.67,0,0,1,.13.33c0,.92-.17,1.41-.52,1.48a5.28,5.28,0,0,1-1.38-.29,5.64,5.64,0,0,1-1.42-.52,1.08,1.08,0,0,1-.48-.75.35.35,0,0,1,.09-.2.56.56,0,0,0,.09-.36V202.28a.56.56,0,0,0-.08-.27.56.56,0,0,1-.08-.27c0-.34.3-.57.81-.68a4.29,4.29,0,0,1,.91,0,7.18,7.18,0,0,1,1.39.23C117.23,201.46,117.53,201.71,117.53,202Z"/><path class="cls-7" d="M124.78,218.94a.84.84,0,0,1-.41.11c-.38,0-1-.43-1.89-1.3v4.13a3.29,3.29,0,0,0,.19.61,1.94,1.94,0,0,1,.18.65c0,.3-.21.45-.61.45a6.37,6.37,0,0,1-1.59-.3l-1.25-.41a.77.77,0,0,1-.63-.66,2,2,0,0,1,.16-.84,4.91,4.91,0,0,0,.21-.7V206.75a2.32,2.32,0,0,0-.11-.9c-.22-.36-.29-.61-.2-.75s.25-.17.57-.17a8.39,8.39,0,0,1,1.49.19c.77.16,1.18.24,1.24.24a.74.74,0,0,1,.57.51,1.53,1.53,0,0,1,0,.3,19.66,19.66,0,0,1-.26,2.61c.34-.68.69-1.36,1-2,.46-.87.89-1.27,1.28-1.2a4.82,4.82,0,0,1,4.25,5.22,10.4,10.4,0,0,1-1.33,4.95A6.87,6.87,0,0,1,124.78,218.94ZM124.3,209q-.78-.09-1.76,7.72a5.08,5.08,0,0,0,2.21-2.35,7.14,7.14,0,0,0,1-3.38C125.73,209.77,125.26,209.11,124.3,209Z"/><path class="cls-7" d="M145.29,203a1.72,1.72,0,0,1-.3.73,1,1,0,0,1-.74.49.77.77,0,0,1-.39-.07,1,1,0,0,0-.37-.1,7.21,7.21,0,0,0-1.86.62,10.86,10.86,0,0,0-2.33,1.22v3.92q.1,0,1-.6a2.51,2.51,0,0,1,1-.39c.26,0,.74.39,1.45,1.2s1.05,1.36,1,1.63a1.27,1.27,0,0,1-.43.77,1.32,1.32,0,0,1-.61.38.49.49,0,0,1-.34-.05,1.14,1.14,0,0,0-.31-.1.24.24,0,0,0-.13,0l-1.11.47a6.11,6.11,0,0,0-1.54.87v3.13a.79.79,0,0,0,.23.46.88.88,0,0,1,.23.57,1.36,1.36,0,0,1-1.15,1.43,10.19,10.19,0,0,1-2.06-1.22c-.63-.5-.94-.93-.94-1.31V203a1.15,1.15,0,0,0-.25-.69c-.16-.24-.23-.41-.2-.53a1.17,1.17,0,0,1,.41-.65,1.33,1.33,0,0,1,.78-.35,3.45,3.45,0,0,1,1.19.61,5.31,5.31,0,0,0,1.33.69l2.39-1a4.22,4.22,0,0,1,1-.49c.36-.05,1,.27,1.83.95S145.32,202.71,145.29,203Z"/><path class="cls-7" d="M153.78,218.2a.71.71,0,0,1-.26.51.65.65,0,0,1-.54.17c-1.8-.24-2.79-.58-3-1a.33.33,0,0,1,0-.17.36.36,0,0,1,.1-.23.85.85,0,0,0,.12-.23.48.48,0,0,1,.08-.18,3.4,3.4,0,0,0,0-.75,4.16,4.16,0,0,0-.79,1,5.59,5.59,0,0,1-.95,1.28,2.28,2.28,0,0,1-1.59.65,1.65,1.65,0,0,1-1-.41,10.45,10.45,0,0,1-.84-.84c-.7-.77-1.07-1.19-1.13-1.26a1.88,1.88,0,0,1-.46-1.13,1.27,1.27,0,0,1,0-.34,6.42,6.42,0,0,1,2.56-3.58,25.22,25.22,0,0,1,4.43-2.59c0-.45-.12-.74-.35-.87s-.65.07-1.52.48a8.89,8.89,0,0,0-1.83,1,6.28,6.28,0,0,1-.56.47.85.85,0,0,1-.67.12,3.66,3.66,0,0,1-1-.77,3.26,3.26,0,0,1-.85-.94.72.72,0,0,1,.37-.9s.3-.1.87-.25l1.6-.86a8,8,0,0,1,2.87-.85,1.68,1.68,0,0,1,1.13.51l1.14,1c.38.32.78.63,1.18.93a1.66,1.66,0,0,1,.7,1.16v8.09A2,2,0,0,1,153.78,218.2ZM150.31,212a4.69,4.69,0,0,0-1.83,1.24c-.37.46-.75.9-1.12,1.35a5.22,5.22,0,0,0-.86,1.16,2.51,2.51,0,0,0-.4,1.06c0,.12,0,.17.13.17.3,0,1-.64,2-1.93A14.11,14.11,0,0,0,150.31,212Z"/><path class="cls-7" d="M164,207.33a.47.47,0,0,1-.24.55c-.17.09-.34.18-.49.28-.92,1.37-2.15,3.22-3.72,5.54,0,2.27,0,3.44,0,3.51s.07.25.17.55a2.53,2.53,0,0,1,.14.69.55.55,0,0,1-.37.56,1.65,1.65,0,0,1-.65.11,5.51,5.51,0,0,1-1.83-.37c-.83-.28-1.25-.65-1.25-1.09a1.8,1.8,0,0,1,.17-.62,2.11,2.11,0,0,0,.17-.71v-8.47c-.16-.8-.24-1.21-.24-1.24a.78.78,0,0,1,.61-.83,2.38,2.38,0,0,1,.63-.07,5.48,5.48,0,0,1,1.6.25,1.8,1.8,0,0,1,1,.52.67.67,0,0,1,0,.22,7.22,7.22,0,0,1-.31,1v1c.35-.61.69-1.23,1-1.84.45-.77.79-1.18,1-1.22a2.34,2.34,0,0,1,1.46.56C163.53,206.68,163.89,207,164,207.33Z"/><path class="cls-7" d="M181.22,217.3a2,2,0,0,1,.18.81.89.89,0,0,1-.5.88,1.76,1.76,0,0,1-.55.06,8.25,8.25,0,0,1-1.75-.22,3.05,3.05,0,0,1-1.24-.44.45.45,0,0,1-.11-.28,1.81,1.81,0,0,1,.32-.76,1.74,1.74,0,0,0,.33-.76q0-8.43-.13-8.49c-.23-.07-.7.49-1.41,1.69a7,7,0,0,0-1.17,3.42v4.19a2.89,2.89,0,0,1,.15.77.89.89,0,0,1-.57.82,1.65,1.65,0,0,1-.54.06,8.33,8.33,0,0,1-1.76-.22,3.05,3.05,0,0,1-1.23-.44.29.29,0,0,1-.09-.22,2,2,0,0,1,.31-.77,2,2,0,0,0,.32-.81,80.81,80.81,0,0,0-.13-8.49q-.3-.1-1.5,1.92a7.41,7.41,0,0,0-1.26,3.23v4a.94.94,0,0,1,.28.69,1.1,1.1,0,0,1-.73,1.11.64.64,0,0,1-.27,0,8.53,8.53,0,0,1-1.71-.26,3.44,3.44,0,0,1-1.26-.44.61.61,0,0,1-.13-.39.85.85,0,0,1,.25-.51c.17-.2.25-.33.25-.39v-9.94a.94.94,0,0,0-.17-.45.53.53,0,0,1-.11-.47.81.81,0,0,1,.67-.58,4.62,4.62,0,0,1,1.63.23c.92.23,1.43.47,1.52.71a1.14,1.14,0,0,1-.07.7,5.89,5.89,0,0,0-.24.86,1.61,1.61,0,0,0,.09.51,6.82,6.82,0,0,1,.91-1.9c.48-.67,1-1,1.44-1a4.93,4.93,0,0,1,1.88.54,3.63,3.63,0,0,1,1.37.88,4.83,4.83,0,0,1,.44,1.54q.88-1.64,1-1.86c.49-.73,1-1.1,1.41-1.1a5.08,5.08,0,0,1,1.91.51c.78.33,1.23.64,1.34.91Q181.23,208.55,181.22,217.3Z"/><path class="cls-7" d="M192,214.92c.13.22-.15.85-.85,1.91a7,7,0,0,1-2.21,2.29,1,1,0,0,1-.39.06,6.76,6.76,0,0,1-2.22-.51,4.26,4.26,0,0,1-1.91-1.12,7,7,0,0,1-1.26-4.45,9.86,9.86,0,0,1,1.11-4.75c.8-1.49,1.81-2.26,3-2.29a4.31,4.31,0,0,1,1.63.35,5.32,5.32,0,0,1,1.93,1.22,2.65,2.65,0,0,1,.37,1.15,10.13,10.13,0,0,1,.22,2,3.14,3.14,0,0,1-.48,2,17.33,17.33,0,0,1-4.56.8,7.5,7.5,0,0,0,.26,2.2c.2.77.41,1.16.63,1.18s.64-.23,1-.71a3.19,3.19,0,0,0,.68-1.05,9.55,9.55,0,0,1,.41-1.33,4,4,0,0,1,1.37.35A2.51,2.51,0,0,1,192,214.92Zm-3.87-6.54c-.24,0-.58.35-1,1.15a6.14,6.14,0,0,0-.77,2.29,2.89,2.89,0,0,0,1.57-.47c.23-.17.34-.89.34-2.14C188.23,208.68,188.2,208.4,188.12,208.38Z"/><path class="cls-7" d="M201.8,207.33a.47.47,0,0,1-.24.55c-.17.09-.34.18-.5.28q-1.37,2.06-3.71,5.54c0,2.27,0,3.44,0,3.51s.07.25.17.55a2.53,2.53,0,0,1,.14.69.57.57,0,0,1-.37.56,1.65,1.65,0,0,1-.65.11,5.51,5.51,0,0,1-1.83-.37c-.84-.28-1.26-.65-1.26-1.09a1.89,1.89,0,0,1,.18-.62,2.11,2.11,0,0,0,.17-.71v-8.47c-.16-.8-.24-1.21-.24-1.24a.78.78,0,0,1,.61-.83,2.28,2.28,0,0,1,.63-.07,5.48,5.48,0,0,1,1.6.25,1.72,1.72,0,0,1,1,.52.48.48,0,0,1,.05.22,7.22,7.22,0,0,1-.31,1v1c.35-.61.69-1.23,1-1.84.45-.77.78-1.18,1-1.22a2.36,2.36,0,0,1,1.46.56C201.37,206.68,201.73,207,201.8,207.33Z"/><path class="cls-7" d="M220.06,202.45a72.29,72.29,0,0,0-2.56,8.64,45.1,45.1,0,0,0-1.28,5.95,7.08,7.08,0,0,0,0,1,1.69,1.69,0,0,1-.15.9c-.15.35-.34.54-.59.58A6.34,6.34,0,0,1,213,219a4.79,4.79,0,0,1-2.18-1.05,1.13,1.13,0,0,1-.15-.56,3.27,3.27,0,0,0-.07-.57,62.62,62.62,0,0,1-3-13.85,2,2,0,0,0-.11-.44,1.25,1.25,0,0,1,0-.45,1,1,0,0,1,.63-.92,5.17,5.17,0,0,1,1.82.4c1.1.34,1.71.64,1.82.88a2.12,2.12,0,0,1,0,.9,1.17,1.17,0,0,1-.15.37.87.87,0,0,0-.11.42c.22,1.5.42,2.82.61,4a25.76,25.76,0,0,0,1.09,4.88,49.16,49.16,0,0,1,1.3-5.1,46.25,46.25,0,0,0,1.3-5.17,6.36,6.36,0,0,1,.2-1.1,1.18,1.18,0,0,1,.71-.66,3.52,3.52,0,0,1,1.63.37A3.4,3.4,0,0,1,220.06,202.45Z"/><path class="cls-7" d="M225.62,218.24a.79.79,0,0,1-.55,1l-.3,0a7.13,7.13,0,0,1-1.93-.32c-.83-.23-1.31-.47-1.46-.73-.07-.11,0-.33.2-.66a2.49,2.49,0,0,0,.19-1.18v-9a4.78,4.78,0,0,1-.26-1.09c0-.19.27-.28.81-.28a6.2,6.2,0,0,1,1.81.39,3.63,3.63,0,0,1,1.4.7.37.37,0,0,1,.06.21,1.75,1.75,0,0,1-.25.65,1.73,1.73,0,0,0-.24.7v8.6a1,1,0,0,0,.24.54A1.31,1.31,0,0,1,225.62,218.24Zm.06-14.79a.37.37,0,0,1,0,.17,4.92,4.92,0,0,1-.19,1.22c-.15.55-.28.85-.41.9a5.5,5.5,0,0,1-1.87-.46c-1.1-.36-1.69-.62-1.76-.78a.66.66,0,0,1-.07-.32,2.93,2.93,0,0,1,.31-1.22q.34-.72.78-.81a4.06,4.06,0,0,1,1.74.37C225.05,202.83,225.54,203.14,225.68,203.45Z"/><path class="cls-7" d="M236.45,214.49c0,.27-.24.64-.72,1.09a8.94,8.94,0,0,1-1,1.82,3.78,3.78,0,0,1-2.45,1.52,4.15,4.15,0,0,1-.59.05,5.92,5.92,0,0,1-3-1.16c-1-.68-1.54-2.26-1.54-4.73a14,14,0,0,1,.85-5c.62-1.61,1.38-2.45,2.28-2.5a6.1,6.1,0,0,1,2.6.55,4.68,4.68,0,0,1,2.09,1.37,2.74,2.74,0,0,1,.45,1.65c0,.18,0,.45,0,.8a3.94,3.94,0,0,0,0,.74c0,.38,0,.56,0,.53,0,.46-.22.68-.67.67a6,6,0,0,1-1.48-.24,1.67,1.67,0,0,1-1.13-.88c0-.12,0-.3.19-.51a.73.73,0,0,0,.21-.53,4.77,4.77,0,0,0,0-.75c0-.86-.15-1.3-.46-1.33-.46,0-.85.66-1.17,2.08a18.17,18.17,0,0,0-.43,4.1q0,2.64.63,2.79c.33.07.76-.29,1.3-1.08a4.67,4.67,0,0,0,.73-1.35l.09-.72A.68.68,0,0,1,234,213a5.58,5.58,0,0,1,1.36.5c.65.3,1,.52,1,.67A1.48,1.48,0,0,1,236.45,214.49Z"/><path class="cls-7" d="M245,208.18a1.22,1.22,0,0,1-.26.69.68.68,0,0,1-.52.3l-.16,0a4.77,4.77,0,0,0-1.36-.11v8.45s0,.1.14.34a1.9,1.9,0,0,1,.14.64c0,.42-.29.64-.87.67a5.91,5.91,0,0,1-1.67-.39c-.88-.28-1.35-.55-1.41-.79a1.25,1.25,0,0,1,.15-.63,2.22,2.22,0,0,0,.2-.74V209h-.74q-.42,0-1-.72a2,2,0,0,1-.61-1.14.79.79,0,0,1,.25-.58.77.77,0,0,1,.55-.26h1.57V204.4a1.51,1.51,0,0,1-.33-.92.51.51,0,0,1,.39-.56,2.58,2.58,0,0,1,.54,0,8.78,8.78,0,0,1,1.88.24,4.17,4.17,0,0,1,1.4.5.4.4,0,0,1,.15.3,1.25,1.25,0,0,1-.34.65,1.4,1.4,0,0,0-.37.6v1.15h.69c.15,0,.45.26.91.77S245,208,245,208.18Z"/><path class="cls-7" d="M253,206.41a3.84,3.84,0,0,1,1.85,2.24,10.26,10.26,0,0,1,.58,3.64,11.6,11.6,0,0,1-1,5c-.73,1.51-1.65,2.19-2.75,2q-.61-.15-1.83-.36a9.62,9.62,0,0,1-1.6-.32,3.18,3.18,0,0,1-2-2.08,9.86,9.86,0,0,1-.67-3.81,11.08,11.08,0,0,1,.69-4,5.18,5.18,0,0,1,2.2-2.76,1.41,1.41,0,0,1,.65-.13,10.78,10.78,0,0,1,1.71.28A12.59,12.59,0,0,1,253,206.41Zm-2.43,1.92c-.39,0-.75.47-1.09,1.4a8.1,8.1,0,0,0-.5,2.69,13,13,0,0,0,.37,3c.28,1.08.6,1.67,1,1.75s.87-.41,1.24-1.54a11.93,11.93,0,0,0,.52-3.59,8.33,8.33,0,0,0-.29-2.16C251.51,208.86,251.11,208.33,250.56,208.33Z"/><path class="cls-7" d="M265.3,207.33a.47.47,0,0,1-.24.55c-.17.09-.34.18-.5.28q-1.37,2.06-3.71,5.54c0,2.27,0,3.44,0,3.51s.07.25.16.55a2.2,2.2,0,0,1,.14.69.56.56,0,0,1-.36.56,1.67,1.67,0,0,1-.66.11,5.46,5.46,0,0,1-1.82-.37c-.84-.28-1.26-.65-1.26-1.09a1.89,1.89,0,0,1,.18-.62,2.11,2.11,0,0,0,.17-.71v-8.47c-.16-.8-.24-1.21-.24-1.24a.77.77,0,0,1,.61-.83,2.28,2.28,0,0,1,.63-.07A5.41,5.41,0,0,1,260,206c.56.16.89.34,1,.52a.48.48,0,0,1,0,.22,8,8,0,0,1-.3,1v1c.35-.61.69-1.23,1-1.84.45-.77.78-1.18,1-1.22a2.32,2.32,0,0,1,1.45.56C264.87,206.68,265.23,207,265.3,207.33Z"/><path class="cls-7" d="M270.83,218.24a.78.78,0,0,1-.54,1l-.3,0a7.13,7.13,0,0,1-1.93-.32c-.83-.23-1.31-.47-1.46-.73-.07-.11,0-.33.2-.66a2.49,2.49,0,0,0,.19-1.18v-9a4.78,4.78,0,0,1-.26-1.09c0-.19.27-.28.81-.28a6.2,6.2,0,0,1,1.81.39,3.63,3.63,0,0,1,1.4.7.37.37,0,0,1,.06.21,1.75,1.75,0,0,1-.25.65,1.79,1.79,0,0,0-.25.7v8.6a1,1,0,0,0,.25.54A1.12,1.12,0,0,1,270.83,218.24Zm.07-14.79a.59.59,0,0,1,0,.17,4.92,4.92,0,0,1-.19,1.22q-.23.82-.42.9a5.52,5.52,0,0,1-1.86-.46c-1.1-.36-1.69-.62-1.76-.78a.66.66,0,0,1-.07-.32,2.79,2.79,0,0,1,.31-1.22q.35-.72.78-.81a4.06,4.06,0,0,1,1.74.37C270.27,202.83,270.76,203.14,270.9,203.45Z"/><path class="cls-7" d="M282.51,218.2a.71.71,0,0,1-.26.51.65.65,0,0,1-.54.17c-1.79-.24-2.79-.58-3-1a.47.47,0,0,1,0-.17.36.36,0,0,1,.1-.23.85.85,0,0,0,.12-.23.38.38,0,0,1,.09-.18,4.63,4.63,0,0,0,0-.75,4,4,0,0,0-.78,1,5.57,5.57,0,0,1-1,1.28,2.26,2.26,0,0,1-1.58.65,1.61,1.61,0,0,1-1-.41,10.05,10.05,0,0,1-.85-.84c-.7-.77-1.07-1.19-1.13-1.26a2,2,0,0,1-.46-1.13,1.27,1.27,0,0,1,0-.34,6.47,6.47,0,0,1,2.56-3.58,25.22,25.22,0,0,1,4.43-2.59c0-.45-.12-.74-.35-.87s-.65.07-1.52.48a8.48,8.48,0,0,0-1.82,1c-.12.11-.31.27-.57.47a.84.84,0,0,1-.67.12,3.66,3.66,0,0,1-1-.77,3.44,3.44,0,0,1-.85-.94.73.73,0,0,1,.37-.9s.31-.1.87-.25l1.61-.86a8,8,0,0,1,2.86-.85,1.68,1.68,0,0,1,1.13.51l1.14,1c.38.32.78.63,1.18.93a1.62,1.62,0,0,1,.7,1.16v8.09A2,2,0,0,1,282.51,218.2ZM279,212a4.58,4.58,0,0,0-1.82,1.24l-1.13,1.35a5.22,5.22,0,0,0-.86,1.16,2.51,2.51,0,0,0-.4,1.06c0,.12,0,.17.13.17.3,0,1-.64,2-1.93A13.39,13.39,0,0,0,279,212Z"/><path class="cls-7" d="M298.75,214.49c0,.27-.24.64-.71,1.09A8.43,8.43,0,0,1,297,217.4a3.75,3.75,0,0,1-2.45,1.52,4,4,0,0,1-.59.05,5.89,5.89,0,0,1-3-1.16q-1.54-1-1.54-4.73a14,14,0,0,1,.84-5c.63-1.61,1.39-2.45,2.28-2.5a6.17,6.17,0,0,1,2.61.55,4.64,4.64,0,0,1,2.08,1.37,2.67,2.67,0,0,1,.46,1.65c0,.18,0,.45,0,.8a5.55,5.55,0,0,0,0,.74c0,.38.05.56.05.53a.59.59,0,0,1-.68.67,5.79,5.79,0,0,1-1.47-.24,1.65,1.65,0,0,1-1.13-.88.62.62,0,0,1,.18-.51.69.69,0,0,0,.21-.53,3.74,3.74,0,0,0,0-.75c0-.86-.15-1.3-.45-1.33-.47,0-.86.66-1.18,2.08a18.17,18.17,0,0,0-.43,4.1q0,2.64.63,2.79c.33.07.77-.29,1.3-1.08a4.67,4.67,0,0,0,.73-1.35c0-.24.07-.48.1-.72a.67.67,0,0,1,.78-.56,5.61,5.61,0,0,1,1.37.5c.65.3,1,.52,1,.67A2,2,0,0,1,298.75,214.49Z"/><path class="cls-7" d="M310.45,218.2a.71.71,0,0,1-.26.51.65.65,0,0,1-.54.17c-1.8-.24-2.79-.58-3-1a.47.47,0,0,1,0-.17.36.36,0,0,1,.1-.23.85.85,0,0,0,.12-.23.48.48,0,0,1,.08-.18,3.4,3.4,0,0,0,0-.75,4.16,4.16,0,0,0-.79,1,5.59,5.59,0,0,1-.95,1.28,2.26,2.26,0,0,1-1.59.65,1.6,1.6,0,0,1-1-.41,10.05,10.05,0,0,1-.85-.84c-.7-.77-1.07-1.19-1.13-1.26a1.88,1.88,0,0,1-.46-1.13,1.27,1.27,0,0,1,0-.34,6.47,6.47,0,0,1,2.56-3.58,25.22,25.22,0,0,1,4.43-2.59c0-.45-.12-.74-.35-.87s-.65.07-1.52.48a8.48,8.48,0,0,0-1.82,1c-.12.11-.31.27-.57.47a.84.84,0,0,1-.67.12,3.66,3.66,0,0,1-1-.77,3.44,3.44,0,0,1-.85-.94.73.73,0,0,1,.37-.9s.3-.1.87-.25l1.61-.86a7.92,7.92,0,0,1,2.86-.85,1.68,1.68,0,0,1,1.13.51l1.14,1c.38.32.78.63,1.18.93a1.62,1.62,0,0,1,.7,1.16v8.09A2,2,0,0,1,310.45,218.2ZM307,212a4.58,4.58,0,0,0-1.82,1.24L304,214.54a5.22,5.22,0,0,0-.86,1.16,2.51,2.51,0,0,0-.4,1.06c0,.12,0,.17.13.17.3,0,1-.64,2-1.93A13.39,13.39,0,0,0,307,212Z"/><path class="cls-7" d="M319.31,208.18a1.15,1.15,0,0,1-.26.69.67.67,0,0,1-.52.3l-.15,0A4.9,4.9,0,0,0,317,209v8.45a2.67,2.67,0,0,1,.14.34,1.9,1.9,0,0,1,.14.64c0,.42-.29.64-.87.67a5.91,5.91,0,0,1-1.67-.39c-.88-.28-1.35-.55-1.41-.79a1.25,1.25,0,0,1,.15-.63,2.22,2.22,0,0,0,.2-.74V209H313q-.42,0-1-.72a2,2,0,0,1-.61-1.14.79.79,0,0,1,.25-.58.77.77,0,0,1,.55-.26h1.57V204.4a1.51,1.51,0,0,1-.33-.92.51.51,0,0,1,.39-.56,2.62,2.62,0,0,1,.55,0,8.7,8.7,0,0,1,1.87.24,4.08,4.08,0,0,1,1.4.5.41.41,0,0,1,.16.3,1.29,1.29,0,0,1-.35.65,1.51,1.51,0,0,0-.37.6v1.15h.69c.15,0,.45.26.92.77S319.31,208,319.31,208.18Z"/><path class="cls-7" d="M329.73,214.49c0,.27-.24.64-.72,1.09a8.48,8.48,0,0,1-1,1.82,3.75,3.75,0,0,1-2.45,1.52,4,4,0,0,1-.59.05,5.86,5.86,0,0,1-3-1.16q-1.54-1-1.54-4.73a14,14,0,0,1,.84-5c.62-1.61,1.38-2.45,2.28-2.5a6.17,6.17,0,0,1,2.61.55,4.7,4.7,0,0,1,2.08,1.37,2.67,2.67,0,0,1,.46,1.65c0,.18,0,.45-.05.8a5.09,5.09,0,0,0,0,.74c0,.38,0,.56,0,.53a.59.59,0,0,1-.68.67,5.79,5.79,0,0,1-1.47-.24,1.62,1.62,0,0,1-1.13-.88c-.05-.12,0-.3.18-.51a.69.69,0,0,0,.21-.53,3.74,3.74,0,0,0,0-.75c0-.86-.15-1.3-.45-1.33-.47,0-.86.66-1.18,2.08a18.17,18.17,0,0,0-.43,4.1q0,2.64.63,2.79c.33.07.77-.29,1.3-1.08a4.67,4.67,0,0,0,.73-1.35c0-.24.07-.48.1-.72a.67.67,0,0,1,.78-.56,5.76,5.76,0,0,1,1.37.5c.65.3,1,.52,1,.67A2,2,0,0,1,329.73,214.49Z"/><path class="cls-7" d="M341.26,218.2a1,1,0,0,1-.48.79,1.65,1.65,0,0,1-.54.06,8.26,8.26,0,0,1-1.76-.22,3.19,3.19,0,0,1-1.24-.44.39.39,0,0,1-.09-.26,2.19,2.19,0,0,1,.2-.64l.28-.37a.9.9,0,0,0,.15-.53q0-8.43-.13-8.49c-.21-.07-.71.45-1.49,1.56a5.5,5.5,0,0,0-1.26,2.84v4.75a1,1,0,0,1,.24.9,1.16,1.16,0,0,1-.7.9.59.59,0,0,1-.26,0,8.53,8.53,0,0,1-1.71-.26,3.82,3.82,0,0,1-1.24-.4.76.76,0,0,1-.05-.79,1.12,1.12,0,0,1,.21-.23.44.44,0,0,0,.19-.31V202a.87.87,0,0,0-.18-.45.6.6,0,0,1-.11-.47.84.84,0,0,1,.68-.58,4.55,4.55,0,0,1,1.62.23c.93.23,1.44.47,1.52.71a1.15,1.15,0,0,1-.06.71,3.82,3.82,0,0,0-.15,1.15v4a3.26,3.26,0,0,1,2.34-1.52,5.08,5.08,0,0,1,1.91.51c.78.33,1.23.64,1.35.91q.6,1.37.6,10.12A1.63,1.63,0,0,1,341.26,218.2Z"/><path class="cls-7" d="M357.54,218.2a1,1,0,0,1-.48.79,1.65,1.65,0,0,1-.54.06,8.33,8.33,0,0,1-1.76-.22,3.19,3.19,0,0,1-1.24-.44.38.38,0,0,1-.08-.26,2.06,2.06,0,0,1,.19-.64l.28-.37a.9.9,0,0,0,.15-.53,83.22,83.22,0,0,0-.12-8.49q-.33-.1-1.5,1.56a5.5,5.5,0,0,0-1.26,2.84v4.75a1,1,0,0,1,.24.9,1.16,1.16,0,0,1-.7.9.59.59,0,0,1-.26,0,8.53,8.53,0,0,1-1.71-.26,3.82,3.82,0,0,1-1.24-.4.74.74,0,0,1,.16-1,.44.44,0,0,0,.19-.31V202a.87.87,0,0,0-.18-.45.6.6,0,0,1-.11-.47.86.86,0,0,1,.68-.58,4.62,4.62,0,0,1,1.63.23c.92.23,1.43.47,1.52.71a1.25,1.25,0,0,1-.07.71,3.82,3.82,0,0,0-.15,1.15v4a3.26,3.26,0,0,1,2.34-1.52,5.08,5.08,0,0,1,1.91.51c.78.33,1.23.64,1.35.91.4.91.61,4.28.61,10.12A1.71,1.71,0,0,1,357.54,218.2Z"/><path class="cls-7" d="M368.13,214.92c.13.22-.15.85-.84,1.91a7,7,0,0,1-2.22,2.29,1,1,0,0,1-.39.06,6.71,6.71,0,0,1-2.21-.51,4.2,4.2,0,0,1-1.91-1.12,7,7,0,0,1-1.26-4.45,10,10,0,0,1,1.1-4.75c.8-1.49,1.81-2.26,3-2.29a4.28,4.28,0,0,1,1.63.35,5.23,5.23,0,0,1,1.93,1.22,2.52,2.52,0,0,1,.37,1.15,9.44,9.44,0,0,1,.22,2,3.14,3.14,0,0,1-.48,2,17.33,17.33,0,0,1-4.56.8,7.5,7.5,0,0,0,.26,2.2c.21.77.42,1.16.63,1.18s.64-.23,1.05-.71a3.13,3.13,0,0,0,.67-1.05,11.12,11.12,0,0,1,.41-1.33,3.9,3.9,0,0,1,1.37.35A2.46,2.46,0,0,1,368.13,214.92Zm-3.86-6.54c-.25,0-.59.35-1,1.15a6,6,0,0,0-.77,2.29,2.86,2.86,0,0,0,1.56-.47c.23-.17.35-.89.35-2.14C364.38,208.68,364.34,208.4,364.27,208.38Z"/><path class="cls-7" d="M377.92,207.33a.47.47,0,0,1-.24.55c-.17.09-.34.18-.49.28-.92,1.37-2.15,3.22-3.72,5.54,0,2.27,0,3.44,0,3.51s.07.25.17.55a2.53,2.53,0,0,1,.14.69.55.55,0,0,1-.37.56,1.65,1.65,0,0,1-.65.11,5.51,5.51,0,0,1-1.83-.37c-.83-.28-1.25-.65-1.25-1.09a1.8,1.8,0,0,1,.17-.62,2.11,2.11,0,0,0,.17-.71v-8.47c-.16-.8-.24-1.21-.24-1.24a.78.78,0,0,1,.61-.83,2.38,2.38,0,0,1,.63-.07,5.48,5.48,0,0,1,1.6.25,1.8,1.8,0,0,1,1,.52.67.67,0,0,1,0,.22,7.22,7.22,0,0,1-.31,1v1c.35-.61.69-1.23,1-1.84.44-.77.78-1.18,1-1.22a2.34,2.34,0,0,1,1.46.56C377.49,206.68,377.85,207,377.92,207.33Z"/><path class="cls-7" d="M395,214.32a1.36,1.36,0,0,1-.42.86,10.27,10.27,0,0,1-1.93,2.67q-1.41,1.44-2.28,1.44l-.24,0c-.63-.2-1.35-.45-2.14-.75a6.12,6.12,0,0,1-3.26-3.28,12,12,0,0,1-1-5.07,13.57,13.57,0,0,1,1.37-6.22c1-1.91,2.18-2.91,3.64-3a5.31,5.31,0,0,1,2.49.86,5.6,5.6,0,0,1,2.16,1.78,10.46,10.46,0,0,1,.72,3.89,3.28,3.28,0,0,1-.18,1.3c-.17.53-.4.77-.67.73a12.39,12.39,0,0,1-1.91-.47q-1.39-.45-1.5-.75a.5.5,0,0,1,0-.19,1,1,0,0,1,.18-.48,1,1,0,0,0,.19-.48,14.12,14.12,0,0,0,.11-1.65A3.24,3.24,0,0,0,390,204a5.78,5.78,0,0,0-2,3.14,16.34,16.34,0,0,0-.24,7.46,3,3,0,0,0,.78,1.72c.15.09.55-.2,1.21-.87a6.55,6.55,0,0,0,1.27-1.59,6.69,6.69,0,0,0,.19-.68.7.7,0,0,1,.35-.47c.25-.09.88.11,1.9.61S395,214.12,395,214.32Z"/><path class="cls-7" d="M403.8,206.41a3.84,3.84,0,0,1,1.85,2.24,10.26,10.26,0,0,1,.58,3.64,11.6,11.6,0,0,1-1,5c-.73,1.51-1.65,2.19-2.75,2q-.62-.15-1.83-.36a9.62,9.62,0,0,1-1.6-.32,3.18,3.18,0,0,1-2-2.08,9.86,9.86,0,0,1-.67-3.81,11.08,11.08,0,0,1,.69-4,5.18,5.18,0,0,1,2.2-2.76,1.41,1.41,0,0,1,.65-.13,10.78,10.78,0,0,1,1.71.28A12.59,12.59,0,0,1,403.8,206.41Zm-2.43,1.92c-.39,0-.75.47-1.09,1.4a8.1,8.1,0,0,0-.5,2.69,13,13,0,0,0,.37,3c.28,1.08.6,1.67,1,1.75s.87-.41,1.24-1.54a11.93,11.93,0,0,0,.52-3.59,8.33,8.33,0,0,0-.29-2.16C402.32,208.86,401.92,208.33,401.37,208.33Z"/><path class="cls-7" d="M422.34,207.37a65,65,0,0,0-2,6.65,23.91,23.91,0,0,0-.89,4v.79c0,.38-.15.58-.39.63a8.83,8.83,0,0,1-1.87-.35q-1.62-.4-1.74-.66a6.76,6.76,0,0,1,0-1,25.81,25.81,0,0,1-.93-5.32c-.07.4-.32,1.44-.74,3.12a13.38,13.38,0,0,0-.48,2.44c0,.3,0,.59,0,.88s-.17.63-.41.7a1,1,0,0,1-.29,0,5.78,5.78,0,0,1-1.73-.3c-.76-.23-1.2-.51-1.35-.84a.66.66,0,0,1,0-.36,2,2,0,0,0,0-.58c-.31-1.58-.61-3.16-.92-4.73s-.54-3.29-.71-5c0-.46-.07-.72-.07-.77,0-.59.19-.87.57-.86a6.07,6.07,0,0,1,1.56.45c.78.31,1.19.56,1.24.75a3.72,3.72,0,0,1-.05.92q.14,1.65.68,5.82l1.5-7c.11-.51.34-.81.67-.88a5.2,5.2,0,0,1,1.31.53c.76.36,1.14.61,1.14.74a59.34,59.34,0,0,0,1,6.65,61.1,61.1,0,0,1,1.71-7.15c.12-.54.41-.77.87-.7a4.71,4.71,0,0,1,1.37.47C421.85,206.74,422.24,207.06,422.34,207.37Z"/><path class="cls-7" d="M431.48,216.55a2.42,2.42,0,0,1-.79,1.88,3.35,3.35,0,0,1-2.23.73,3.17,3.17,0,0,1-.76-.11l-.78-.21-.79-.18a1.72,1.72,0,0,1-.69-.34,4.88,4.88,0,0,1-.93-1.17c-.25-.4-.49-.81-.72-1.22a2.84,2.84,0,0,1-.34-.75c0-.2.14-.35.43-.45a1.17,1.17,0,0,1,.39,0,11.05,11.05,0,0,1,1.64.14,3.38,3.38,0,0,1,1.07.23,4.71,4.71,0,0,1,.24,1.23c.09.66.24,1,.46,1s.5-.45.5-1.33c0-1.13-.31-1.83-.91-2.12a8.75,8.75,0,0,1-2.74-1.71,4.15,4.15,0,0,1-.8-2.78,4.4,4.4,0,0,1,.65-2.3,2.59,2.59,0,0,1,1.54-1.3,7.87,7.87,0,0,1,2.52.82c.13,0,.51.12,1.15.23a1.72,1.72,0,0,1,1,.45,2.7,2.7,0,0,1,.47,1.56c0,.53,0,1.06,0,1.59a6.38,6.38,0,0,1,.16.85.63.63,0,0,1-.59.69,3.33,3.33,0,0,1-1.19-.24,2.62,2.62,0,0,1-1.24-.66,9.06,9.06,0,0,1-.13-1.61c0-.95-.15-1.43-.31-1.43s-.42.28-.6.83a5.38,5.38,0,0,0-.29,1.74c0,.75.17,1.23.5,1.43.71.39,1.42.77,2.12,1.17a4.16,4.16,0,0,1,1.47,1.21A3.89,3.89,0,0,1,431.48,216.55Z"/><path class="cls-7" d="M445.7,208.18a1.22,1.22,0,0,1-.26.69.68.68,0,0,1-.52.3l-.16,0a4.77,4.77,0,0,0-1.36-.11v8.45s0,.1.14.34a1.9,1.9,0,0,1,.14.64c0,.42-.29.64-.87.67a5.91,5.91,0,0,1-1.67-.39c-.88-.28-1.35-.55-1.41-.79a1.25,1.25,0,0,1,.15-.63,2.22,2.22,0,0,0,.2-.74V209h-.74q-.42,0-1-.72a2,2,0,0,1-.61-1.14.79.79,0,0,1,.25-.58.77.77,0,0,1,.55-.26h1.57V204.4a1.51,1.51,0,0,1-.33-.92.51.51,0,0,1,.39-.56,2.58,2.58,0,0,1,.54,0,8.78,8.78,0,0,1,1.88.24,4.17,4.17,0,0,1,1.4.5.4.4,0,0,1,.15.3,1.25,1.25,0,0,1-.34.65,1.4,1.4,0,0,0-.37.6v1.15h.69c.15,0,.45.26.91.77S445.7,208,445.7,208.18Z"/><path class="cls-7" d="M457.18,218.2a1,1,0,0,1-.48.79,1.65,1.65,0,0,1-.54.06,8.33,8.33,0,0,1-1.76-.22,3.05,3.05,0,0,1-1.23-.44.39.39,0,0,1-.09-.26,2.06,2.06,0,0,1,.19-.64c.09-.11.18-.24.29-.37a.9.9,0,0,0,.15-.53,80.81,80.81,0,0,0-.13-8.49q-.33-.1-1.5,1.56a5.5,5.5,0,0,0-1.26,2.84v4.75a1,1,0,0,1,.24.9,1.16,1.16,0,0,1-.7.9.56.56,0,0,1-.26,0,8.53,8.53,0,0,1-1.71-.26,3.93,3.93,0,0,1-1.24-.4.74.74,0,0,1,.16-1,.41.41,0,0,0,.19-.31V202a.94.94,0,0,0-.17-.45.53.53,0,0,1-.11-.47.83.83,0,0,1,.67-.58,4.62,4.62,0,0,1,1.63.23c.92.23,1.43.47,1.52.71a1.17,1.17,0,0,1-.07.71,3.82,3.82,0,0,0-.15,1.15v4a3.26,3.26,0,0,1,2.35-1.52,5.13,5.13,0,0,1,1.91.51c.78.33,1.23.64,1.34.91q.61,1.37.61,10.12A1.61,1.61,0,0,1,457.18,218.2Z"/><path class="cls-7" d="M469.14,218.2a.71.71,0,0,1-.26.51.65.65,0,0,1-.54.17c-1.8-.24-2.79-.58-3-1a.33.33,0,0,1,0-.17.36.36,0,0,1,.1-.23.85.85,0,0,0,.12-.23.48.48,0,0,1,.08-.18,3.4,3.4,0,0,0,0-.75,4.16,4.16,0,0,0-.79,1,5.59,5.59,0,0,1-.95,1.28,2.26,2.26,0,0,1-1.59.65,1.65,1.65,0,0,1-1-.41,10.45,10.45,0,0,1-.84-.84c-.7-.77-1.07-1.19-1.13-1.26a1.88,1.88,0,0,1-.46-1.13,1.27,1.27,0,0,1,0-.34,6.42,6.42,0,0,1,2.56-3.58,25.22,25.22,0,0,1,4.43-2.59c0-.45-.12-.74-.35-.87s-.65.07-1.52.48a8.48,8.48,0,0,0-1.82,1c-.12.11-.31.27-.57.47a.84.84,0,0,1-.67.12,3.66,3.66,0,0,1-1-.77,3.44,3.44,0,0,1-.85-.94.73.73,0,0,1,.37-.9s.3-.1.87-.25l1.61-.86a7.92,7.92,0,0,1,2.86-.85,1.68,1.68,0,0,1,1.13.51l1.14,1c.38.32.78.63,1.18.93a1.62,1.62,0,0,1,.7,1.16v8.09A2,2,0,0,1,469.14,218.2ZM465.67,212a4.58,4.58,0,0,0-1.82,1.24l-1.13,1.35a5.22,5.22,0,0,0-.86,1.16,2.51,2.51,0,0,0-.4,1.06c0,.12,0,.17.13.17.3,0,1-.64,2-1.93A13.39,13.39,0,0,0,465.67,212Z"/><path class="cls-7" d="M478,208.18a1.15,1.15,0,0,1-.26.69.67.67,0,0,1-.52.3l-.15,0a4.9,4.9,0,0,0-1.37-.11v8.45a2.67,2.67,0,0,1,.14.34,1.69,1.69,0,0,1,.14.64c0,.42-.29.64-.87.67a5.91,5.91,0,0,1-1.67-.39c-.88-.28-1.35-.55-1.41-.79a1.25,1.25,0,0,1,.15-.63,2.22,2.22,0,0,0,.2-.74V209h-.74q-.42,0-1-.72a2,2,0,0,1-.61-1.14.83.83,0,0,1,.25-.58.77.77,0,0,1,.55-.26h1.57V204.4a1.51,1.51,0,0,1-.33-.92.51.51,0,0,1,.39-.56,2.62,2.62,0,0,1,.55,0,8.7,8.7,0,0,1,1.87.24,4.08,4.08,0,0,1,1.4.5.41.41,0,0,1,.16.3,1.29,1.29,0,0,1-.35.65,1.51,1.51,0,0,0-.37.6v1.15h.69c.15,0,.45.26.92.77S478,208,478,208.18Z"/><path class="cls-7" d="M100.94,233.41a1.94,1.94,0,0,1-.16.83,4.83,4.83,0,0,0-.21.71v14a2.16,2.16,0,0,0,.11.88c.22.37.28.62.2.74s-.26.18-.57.18a9.13,9.13,0,0,1-1.52-.2l-1.21-.23a.7.7,0,0,1-.57-.52,1.09,1.09,0,0,1,0-.27,20.65,20.65,0,0,1,.24-2.61c-.35.68-.69,1.37-1,2-.48.84-.9,1.23-1.28,1.16-2.85-.58-4.28-2.3-4.28-5.18a10.58,10.58,0,0,1,1.37-5,7,7,0,0,1,2.91-3.21.93.93,0,0,1,.41-.11c.36,0,1,.45,1.89,1.33v-4.15a3.07,3.07,0,0,0-.19-.61,1.94,1.94,0,0,1-.18-.65c0-.3.2-.45.61-.45a6,6,0,0,1,1.56.3c.44.14.86.28,1.28.4A.78.78,0,0,1,100.94,233.41Zm-3.77,5.52A5,5,0,0,0,95,241.28a7.13,7.13,0,0,0-1,3.38c0,1.21.48,1.88,1.44,2C95.91,246.71,96.5,244.13,97.17,238.93Z"/><path class="cls-7" d="M110.93,238.52a.48.48,0,0,1-.24.56,4.91,4.91,0,0,0-.5.28l-3.71,5.54c0,2.27,0,3.43,0,3.51s.07.25.16.54a2.25,2.25,0,0,1,.14.7.55.55,0,0,1-.36.55,1.67,1.67,0,0,1-.66.11A5.42,5.42,0,0,1,104,250c-.84-.29-1.26-.65-1.26-1.09a1.83,1.83,0,0,1,.18-.62,2.16,2.16,0,0,0,.17-.71v-8.47c-.16-.8-.24-1.22-.24-1.24a.78.78,0,0,1,.61-.84,2.8,2.8,0,0,1,.63-.06,5.74,5.74,0,0,1,1.59.24c.56.17.89.34,1,.53a.44.44,0,0,1,0,.21,8.37,8.37,0,0,1-.3,1v1c.35-.62.69-1.23,1-1.84.45-.78.78-1.18,1-1.22a2.29,2.29,0,0,1,1.45.55C110.5,237.88,110.86,238.24,110.93,238.52Z"/><path class="cls-7" d="M122.17,249.39a.71.71,0,0,1-.26.51.65.65,0,0,1-.54.18c-1.79-.25-2.79-.58-3-1a.37.37,0,0,1,0-.17.4.4,0,0,1,.1-.24.81.81,0,0,0,.12-.22.31.31,0,0,1,.09-.18,4.75,4.75,0,0,0,0-.75,4,4,0,0,0-.78,1,5.45,5.45,0,0,1-1,1.29,2.25,2.25,0,0,1-1.58.64,1.61,1.61,0,0,1-1-.41,9.45,9.45,0,0,1-.85-.83c-.7-.77-1.07-1.19-1.13-1.26a2,2,0,0,1-.46-1.14,1.33,1.33,0,0,1,.05-.34,6.45,6.45,0,0,1,2.56-3.57,24,24,0,0,1,4.43-2.59c0-.46-.12-.75-.35-.88s-.65.08-1.52.48a8.94,8.94,0,0,0-1.82,1,6.49,6.49,0,0,1-.57.47.85.85,0,0,1-.67.13,3.9,3.9,0,0,1-1-.77,3.6,3.6,0,0,1-.85-.94.72.72,0,0,1,.37-.9l.87-.26,1.61-.85a8,8,0,0,1,2.86-.86,1.76,1.76,0,0,1,1.13.51l1.14,1c.38.32.78.63,1.18.93a1.61,1.61,0,0,1,.7,1.15v8.09A2,2,0,0,1,122.17,249.39Zm-3.47-6.25a4.69,4.69,0,0,0-1.82,1.24l-1.13,1.35a5.07,5.07,0,0,0-.86,1.17,2.51,2.51,0,0,0-.4,1.06c0,.11,0,.17.13.17.3,0,1-.65,2-1.94A13.39,13.39,0,0,0,118.7,243.14Z"/><path class="cls-7" d="M134.14,248.49a2.14,2.14,0,0,1,.17.81.89.89,0,0,1-.5.88,1.58,1.58,0,0,1-.54.07,8.42,8.42,0,0,1-1.76-.23,3,3,0,0,1-1.24-.44.43.43,0,0,1-.11-.28,1.79,1.79,0,0,1,.33-.76,1.66,1.66,0,0,0,.32-.75c0-5.62,0-8.46-.13-8.5s-.7.57-1.49,1.93a7.33,7.33,0,0,0-1.26,3.23v4a.94.94,0,0,1,.28.68,1.11,1.11,0,0,1-.74,1.12.78.78,0,0,1-.26,0,8,8,0,0,1-1.71-.27,3.1,3.1,0,0,1-1.26-.44.58.58,0,0,1-.13-.38.87.87,0,0,1,.25-.52c.16-.2.25-.32.25-.38v-10a.94.94,0,0,0-.18-.45.59.59,0,0,1-.11-.47.84.84,0,0,1,.68-.58,4.66,4.66,0,0,1,1.62.24c.93.23,1.44.46,1.52.7a1.15,1.15,0,0,1-.06.71,5.55,5.55,0,0,0-.24.86,1.72,1.72,0,0,0,.09.51,6.61,6.61,0,0,1,.91-1.91c.48-.67.95-1,1.43-1a5.23,5.23,0,0,1,1.91.5c.78.34,1.23.64,1.35.91C133.93,239.28,134.14,242.66,134.14,248.49Z"/><path class="cls-7" d="M146.55,247.76c0,.28-.24.77-.82,1.48s-1,1-1.35,1c-.62-.09-1.94-1.74-3.95-5-.14.16-.39.41-.74.75v2.53a2.1,2.1,0,0,0,.06.38c0,.19.06.32.07.41.05.48,0,.8-.3.94a1.39,1.39,0,0,1-.63.11,4.46,4.46,0,0,1-1.61-.3c-.6-.23-.91-.5-.91-.82V233.41a1.55,1.55,0,0,1,.22-.75,1,1,0,0,1,.5-.51.4.4,0,0,1,.17,0,5,5,0,0,1,1.58.38c.67.25,1,.47,1.11.65a.6.6,0,0,1,.07.26,1,1,0,0,1-.17.44.88.88,0,0,0-.18.5v7.42l3.21-4.34a.93.93,0,0,1,.72-.41,2.08,2.08,0,0,1,1.15.52,1.71,1.71,0,0,1,.85,1.17,5.83,5.83,0,0,1-1,1.67q-1.61,2.26-1.89,2.7l2.82,3.83a1.75,1.75,0,0,0,.63.45C146.4,247.49,146.54,247.62,146.55,247.76Z"/><path class="cls-7" d="M160.47,239.38a1.22,1.22,0,0,1-.26.68.67.67,0,0,1-.52.3l-.15,0a5.34,5.34,0,0,0-1.37-.11v8.45s0,.1.14.35a1.86,1.86,0,0,1,.14.64q0,.62-.87.66a5.45,5.45,0,0,1-1.67-.38c-.88-.29-1.35-.55-1.41-.79a1.28,1.28,0,0,1,.15-.64,2.17,2.17,0,0,0,.2-.73v-7.58h-.74c-.28,0-.62-.24-1-.71a2,2,0,0,1-.61-1.15.8.8,0,0,1,.25-.58.76.76,0,0,1,.55-.25h1.57v-1.93a1.48,1.48,0,0,1-.33-.92.52.52,0,0,1,.39-.56,2.58,2.58,0,0,1,.54,0,8.19,8.19,0,0,1,1.88.25,4,4,0,0,1,1.4.5.4.4,0,0,1,.15.3,1.23,1.23,0,0,1-.34.64,1.52,1.52,0,0,0-.37.6v1.16h.69c.15,0,.45.25.91.77S160.47,239.16,160.47,239.38Z"/><path class="cls-7" d="M171.93,249.39a1,1,0,0,1-.48.79,1.58,1.58,0,0,1-.54.07,8.42,8.42,0,0,1-1.76-.23,3,3,0,0,1-1.24-.44.41.41,0,0,1-.08-.25,2.1,2.1,0,0,1,.19-.65l.28-.37a.81.81,0,0,0,.16-.52,81.1,81.1,0,0,0-.13-8.5q-.33-.1-1.5,1.56a5.55,5.55,0,0,0-1.26,2.85v4.75a1,1,0,0,1,.24.9,1.16,1.16,0,0,1-.7.9.74.74,0,0,1-.26,0,8,8,0,0,1-1.71-.27,4.42,4.42,0,0,1-1.24-.39.78.78,0,0,1,0-.8s.08-.11.2-.22a.43.43,0,0,0,.19-.31V233.17a.94.94,0,0,0-.18-.45.55.55,0,0,1-.1-.47.83.83,0,0,1,.67-.58,5,5,0,0,1,1.63.24c.92.23,1.43.46,1.52.71a1.22,1.22,0,0,1-.07.7,3.89,3.89,0,0,0-.15,1.16v4a3.26,3.26,0,0,1,2.34-1.52,5.19,5.19,0,0,1,1.91.5c.79.34,1.23.64,1.35.91.41.91.61,4.29.61,10.12A1.71,1.71,0,0,1,171.93,249.39Z"/><path class="cls-7" d="M182.55,246.12c.13.21-.16.85-.85,1.9a6.85,6.85,0,0,1-2.22,2.29.93.93,0,0,1-.39.06,6.71,6.71,0,0,1-2.21-.51,4.12,4.12,0,0,1-1.91-1.11,7,7,0,0,1-1.26-4.45,9.83,9.83,0,0,1,1.11-4.75c.79-1.5,1.81-2.26,3-2.29a4.39,4.39,0,0,1,1.62.34,5.41,5.41,0,0,1,1.94,1.22,2.72,2.72,0,0,1,.37,1.16,10,10,0,0,1,.21,2,3.21,3.21,0,0,1-.47,2,17.38,17.38,0,0,1-4.56.79,7.14,7.14,0,0,0,.26,2.2c.2.77.41,1.17.63,1.18s.63-.22,1-.71a3.21,3.21,0,0,0,.67-1,11.12,11.12,0,0,1,.41-1.33,3.77,3.77,0,0,1,1.37.34A2.64,2.64,0,0,1,182.55,246.12Zm-3.87-6.55c-.24,0-.59.36-1,1.15a6,6,0,0,0-.77,2.29,2.7,2.7,0,0,0,1.56-.47c.23-.17.35-.88.35-2.14C178.79,239.88,178.75,239.6,178.68,239.57Z"/><path class="cls-7" d="M204.8,248.49a2.14,2.14,0,0,1,.17.81.89.89,0,0,1-.5.88,1.58,1.58,0,0,1-.54.07,8.42,8.42,0,0,1-1.76-.23,3,3,0,0,1-1.24-.44.43.43,0,0,1-.11-.28,1.79,1.79,0,0,1,.33-.76,1.72,1.72,0,0,0,.33-.75,84.86,84.86,0,0,0-.13-8.5c-.24-.07-.71.49-1.41,1.69a6.92,6.92,0,0,0-1.18,3.43v4.19a2.82,2.82,0,0,1,.15.77.86.86,0,0,1-.56.81,1.58,1.58,0,0,1-.54.07,8.42,8.42,0,0,1-1.76-.23,3,3,0,0,1-1.24-.44.27.27,0,0,1-.09-.21,2.06,2.06,0,0,1,.32-.77,1.93,1.93,0,0,0,.31-.81c0-5.62,0-8.46-.13-8.5s-.7.57-1.49,1.93a7.33,7.33,0,0,0-1.26,3.23v4a.94.94,0,0,1,.28.68,1.11,1.11,0,0,1-.74,1.12.78.78,0,0,1-.26,0A8,8,0,0,1,190,250a3.1,3.1,0,0,1-1.26-.44.58.58,0,0,1-.13-.38.87.87,0,0,1,.25-.52c.16-.2.25-.32.25-.38v-10a.94.94,0,0,0-.18-.45.59.59,0,0,1-.11-.47.84.84,0,0,1,.68-.58,4.66,4.66,0,0,1,1.62.24c.93.23,1.44.46,1.52.7a1.15,1.15,0,0,1-.06.71,5.55,5.55,0,0,0-.24.86,1.72,1.72,0,0,0,.09.51,6.61,6.61,0,0,1,.91-1.91c.48-.67,1-1,1.43-1a5.15,5.15,0,0,1,1.89.53,4,4,0,0,1,1.37.88,5,5,0,0,1,.43,1.54q.9-1.62,1-1.86c.49-.73,1-1.09,1.41-1.09a5.19,5.19,0,0,1,1.91.5c.79.34,1.23.64,1.35.91C204.59,239.28,204.8,242.66,204.8,248.49Z"/><path class="cls-7" d="M216.89,249.39a.71.71,0,0,1-.26.51.65.65,0,0,1-.54.18c-1.8-.25-2.8-.58-3-1a.35.35,0,0,1,0-.17.45.45,0,0,1,.09-.24.48.48,0,0,0,.12-.22.51.51,0,0,1,.09-.18,3.09,3.09,0,0,0,0-.75,4.6,4.6,0,0,0-.78,1,5.47,5.47,0,0,1-1,1.29,2.29,2.29,0,0,1-1.59.64,1.61,1.61,0,0,1-1-.41,11.07,11.07,0,0,1-.85-.83c-.69-.77-1.07-1.19-1.12-1.26a1.88,1.88,0,0,1-.46-1.14,1.32,1.32,0,0,1,0-.34,6.5,6.5,0,0,1,2.56-3.57,24.37,24.37,0,0,1,4.43-2.59c0-.46-.11-.75-.34-.88s-.66.08-1.52.48a9.39,9.39,0,0,0-1.83,1,4.93,4.93,0,0,1-.56.47.86.86,0,0,1-.67.13,3.9,3.9,0,0,1-1-.77,3.23,3.23,0,0,1-.85-.94.71.71,0,0,1,.37-.9s.3-.1.87-.26l1.6-.85a8.07,8.07,0,0,1,2.87-.86,1.78,1.78,0,0,1,1.13.51c.37.33.75.66,1.14,1s.77.63,1.18.93a1.62,1.62,0,0,1,.69,1.15v8.09A2,2,0,0,1,216.89,249.39Zm-3.47-6.25a4.8,4.8,0,0,0-1.83,1.24c-.37.46-.75.91-1.13,1.35a5.05,5.05,0,0,0-.85,1.17,2.57,2.57,0,0,0-.41,1.06c0,.11.05.17.13.17.31,0,1-.65,2-1.94A14.11,14.11,0,0,0,213.42,243.14Z"/><path class="cls-7" d="M227.87,238.54a4.42,4.42,0,0,1-.23.43,1.07,1.07,0,0,0-.16.47v9.37q0,3.56-2.67,4.56a6.43,6.43,0,0,1-2.25.47,3.73,3.73,0,0,1-2.57-1,12.31,12.31,0,0,1-1-1.12l-.41-.4a.78.78,0,0,1-.24-.5c0-.21.2-.38.65-.51l.26,0a4.09,4.09,0,0,1,1.14.19,2.39,2.39,0,0,1,1,.47l.71.88a1.26,1.26,0,0,0,.87.49c.59.06,1-.34,1.15-1.2a12.05,12.05,0,0,0,.13-2.2l-.41.56a2.48,2.48,0,0,1-.46.49.74.74,0,0,1-.5.21,3,3,0,0,1-1.93-.62,6.93,6.93,0,0,1-2.32-5.67,8.76,8.76,0,0,1,1-4.25,4.69,4.69,0,0,1,2.78-2.53.67.67,0,0,1,.24,0,1.33,1.33,0,0,1,.78.32l.74.58a7.66,7.66,0,0,1,.27-.72.55.55,0,0,1,.44-.4,4.67,4.67,0,0,1,1.62.29c.77.24,1.21.44,1.31.61A.83.83,0,0,1,227.87,238.54ZM224,243.81a20.86,20.86,0,0,0,.18-2.42q0-1.74-.57-1.95c-.3-.11-.67.39-1.11,1.52a8.74,8.74,0,0,0-.65,3.08,11.11,11.11,0,0,0,.59,4A9.6,9.6,0,0,0,224,243.81Z"/><path class="cls-7" d="M234,249.43a.8.8,0,0,1-.55,1l-.3,0a7.55,7.55,0,0,1-1.93-.32c-.83-.23-1.31-.47-1.46-.73s0-.34.2-.66a2.52,2.52,0,0,0,.19-1.18v-9a4.67,4.67,0,0,1-.26-1.09c0-.18.27-.28.81-.28a6.29,6.29,0,0,1,1.81.4,3.67,3.67,0,0,1,1.4.69.38.38,0,0,1,.06.22,1.72,1.72,0,0,1-.25.64,1.82,1.82,0,0,0-.25.71v8.6a1,1,0,0,0,.25.53A1.4,1.4,0,0,1,234,249.43Zm.06-14.78a.54.54,0,0,1,0,.17,5.06,5.06,0,0,1-.19,1.22q-.22.81-.42.9a5.82,5.82,0,0,1-1.86-.46,4.85,4.85,0,0,1-1.76-.78.66.66,0,0,1-.07-.32,2.86,2.86,0,0,1,.31-1.22c.23-.49.49-.76.78-.82a4.12,4.12,0,0,1,1.74.38C233.43,234,233.92,234.33,234.06,234.65Z"/><path class="cls-7" d="M244.83,245.69c0,.27-.24.63-.72,1.09a9.23,9.23,0,0,1-1,1.82,3.86,3.86,0,0,1-2.45,1.52,4.08,4.08,0,0,1-.59,0,5.83,5.83,0,0,1-3-1.16c-1-.68-1.54-2.26-1.54-4.72a13.79,13.79,0,0,1,.85-5c.62-1.61,1.38-2.44,2.28-2.5a6.13,6.13,0,0,1,2.6.56,4.68,4.68,0,0,1,2.09,1.37,2.72,2.72,0,0,1,.45,1.64c0,.19,0,.46,0,.8a4,4,0,0,0,0,.74c0,.39,0,.57,0,.54,0,.46-.22.68-.67.66a5.52,5.52,0,0,1-1.48-.23,1.67,1.67,0,0,1-1.13-.88c0-.13,0-.3.19-.51a.74.74,0,0,0,.2-.54,3.45,3.45,0,0,0,.05-.75c0-.85-.15-1.3-.46-1.33-.46,0-.85.67-1.17,2.08a18.26,18.26,0,0,0-.43,4.11c0,1.75.21,2.68.63,2.78s.76-.29,1.3-1.07a4.67,4.67,0,0,0,.73-1.36l.09-.71a.67.67,0,0,1,.78-.56,5.32,5.32,0,0,1,1.37.49c.65.3,1,.53,1,.67A1.54,1.54,0,0,1,244.83,245.69Z"/><path class="cls-7" d="M256.53,249.39a.75.75,0,0,1-.26.51.65.65,0,0,1-.54.18c-1.8-.25-2.8-.58-3-1a.35.35,0,0,1,0-.17.45.45,0,0,1,.09-.24.48.48,0,0,0,.12-.22.51.51,0,0,1,.09-.18,3.09,3.09,0,0,0,0-.75,4.6,4.6,0,0,0-.78,1,5.47,5.47,0,0,1-.95,1.29,2.29,2.29,0,0,1-1.59.64,1.61,1.61,0,0,1-1-.41,11.07,11.07,0,0,1-.85-.83L246.69,248a1.93,1.93,0,0,1-.45-1.14,1.32,1.32,0,0,1,0-.34,6.5,6.5,0,0,1,2.56-3.57,24.37,24.37,0,0,1,4.43-2.59c0-.46-.11-.75-.34-.88s-.66.08-1.52.48a9.39,9.39,0,0,0-1.83,1,4.93,4.93,0,0,1-.56.47.88.88,0,0,1-.68.13,4.27,4.27,0,0,1-1-.77,3.29,3.29,0,0,1-.84-.94.7.7,0,0,1,.37-.9s.3-.1.87-.26l1.6-.85a8.07,8.07,0,0,1,2.87-.86,1.78,1.78,0,0,1,1.13.51c.37.33.75.66,1.14,1s.77.63,1.18.93a1.62,1.62,0,0,1,.69,1.15v8.09A2,2,0,0,1,256.53,249.39Zm-3.47-6.25a4.8,4.8,0,0,0-1.83,1.24c-.37.46-.75.91-1.13,1.35a5.05,5.05,0,0,0-.85,1.17,2.57,2.57,0,0,0-.41,1.06c0,.11,0,.17.13.17.31,0,1-.65,2.05-1.94A14.11,14.11,0,0,0,253.06,243.14Z"/><path class="cls-7" d="M262.5,233.21a1.09,1.09,0,0,1-.1.41c-.06.17-.1.28-.12.32a10,10,0,0,0-.26,1.33v13.14a.82.82,0,0,0,.13.46.61.61,0,0,1,.13.33c0,.91-.17,1.4-.52,1.47a4.84,4.84,0,0,1-1.38-.29,5.25,5.25,0,0,1-1.42-.52,1.08,1.08,0,0,1-.48-.75.32.32,0,0,1,.09-.19.56.56,0,0,0,.09-.36V233.47a.63.63,0,0,0-.08-.27.56.56,0,0,1-.08-.26c0-.35.3-.57.81-.69a4.29,4.29,0,0,1,.91,0,6.45,6.45,0,0,1,1.39.24C262.2,232.66,262.5,232.9,262.5,233.21Z"/><path class="cls-7" d="M278.74,232.94a4.48,4.48,0,0,1-.05,1.73v1.39c0,.93,0,1.7,0,2.31q0,11.25-2.62,12.09a2.43,2.43,0,0,1-.7.11,4.54,4.54,0,0,1-1.15-.2L273,250l-1.07-.26a2.79,2.79,0,0,1-.93-.38,4.14,4.14,0,0,1-1.52-1.95,8.28,8.28,0,0,1-.54-2.18c-.05-.39-.08-.77-.11-1.16a1.71,1.71,0,0,1-.22-1,1,1,0,0,1,.91-.77,5.26,5.26,0,0,1,1.67.17c.87.18,1.39.42,1.55.72a.78.78,0,0,1,.08.35s0,.15-.06.38a1.17,1.17,0,0,0,0,.43,10.13,10.13,0,0,0,.3,2.07c.19.76.39,1.14.61,1.14q.65,0,.8-6.14,0-1.21,0-7.7a1.17,1.17,0,0,0-.09-.39,1.45,1.45,0,0,1-.09-.28.8.8,0,0,1,.32-.56,1.15,1.15,0,0,1,.64-.34,7.88,7.88,0,0,1,1.86.15C278.14,232.46,278.66,232.68,278.74,232.94Z"/><path class="cls-7" d="M290.72,237.64a.77.77,0,0,1,.15.43.87.87,0,0,1-.25.52c-.16.2-.25.32-.25.38v9.95a1.48,1.48,0,0,0,.14.45,1.21,1.21,0,0,1,.14.47c0,.26-.22.44-.67.56a5,5,0,0,1-1.63-.24c-.92-.23-1.43-.46-1.52-.68a1.08,1.08,0,0,1,.07-.75,2.83,2.83,0,0,0,.22-.77,3.53,3.53,0,0,0-.07-.56,6.69,6.69,0,0,1-.91,1.9,1.93,1.93,0,0,1-1.43,1,5.34,5.34,0,0,1-1.91-.49c-.79-.33-1.23-.63-1.35-.9-.41-.91-.61-4.29-.61-10.12a2.15,2.15,0,0,1-.17-.82.87.87,0,0,1,.5-.89,1.36,1.36,0,0,1,.54-.07,8.42,8.42,0,0,1,1.76.23,2.82,2.82,0,0,1,1.24.46.41.41,0,0,1,.1.27,1.64,1.64,0,0,1-.32.76,1.79,1.79,0,0,0-.33.76,81.1,81.1,0,0,0,.13,8.5q.31.11,1.53-2a7.17,7.17,0,0,0,1.23-3.18v-4a.9.9,0,0,1-.28-.68,1.12,1.12,0,0,1,.74-1.14.56.56,0,0,1,.26,0,8,8,0,0,1,1.71.27A3.56,3.56,0,0,1,290.72,237.64Z"/><path class="cls-7" d="M297,249.43a.79.79,0,0,1-.54,1l-.3,0a7.61,7.61,0,0,1-1.94-.32c-.82-.23-1.31-.47-1.45-.73s0-.34.19-.66a2.49,2.49,0,0,0,.2-1.18v-9a4.67,4.67,0,0,1-.26-1.09c0-.18.27-.28.8-.28a6.16,6.16,0,0,1,1.81.4,3.66,3.66,0,0,1,1.41.69.38.38,0,0,1,.06.22,1.72,1.72,0,0,1-.25.64,1.66,1.66,0,0,0-.25.71v8.6a.92.92,0,0,0,.25.53A1.18,1.18,0,0,1,297,249.43Zm.07-14.78a.54.54,0,0,1,0,.17,5.16,5.16,0,0,1-.2,1.22c-.14.54-.28.84-.41.9a5.85,5.85,0,0,1-1.87-.46,4.75,4.75,0,0,1-1.75-.78.56.56,0,0,1-.07-.32,2.84,2.84,0,0,1,.3-1.22c.24-.49.5-.76.79-.82a4.06,4.06,0,0,1,1.73.38C296.41,234,296.89,234.33,297,234.65Z"/><path class="cls-7" d="M307.81,245.69c0,.27-.24.63-.72,1.09a9.23,9.23,0,0,1-1,1.82,3.88,3.88,0,0,1-2.46,1.52,4,4,0,0,1-.58,0,5.83,5.83,0,0,1-3-1.16c-1-.68-1.54-2.26-1.54-4.72a13.79,13.79,0,0,1,.85-5c.62-1.61,1.38-2.44,2.28-2.5a6.16,6.16,0,0,1,2.6.56,4.74,4.74,0,0,1,2.09,1.37,2.72,2.72,0,0,1,.45,1.64c0,.19,0,.46,0,.8a4,4,0,0,0,0,.74c0,.39,0,.57,0,.54,0,.46-.23.68-.67.66a5.39,5.39,0,0,1-1.48-.23,1.67,1.67,0,0,1-1.13-.88c0-.13,0-.3.19-.51a.74.74,0,0,0,.2-.54,3.45,3.45,0,0,0,.05-.75c0-.85-.16-1.3-.46-1.33-.46,0-.85.67-1.17,2.08a18.24,18.24,0,0,0-.44,4.11c0,1.75.21,2.68.63,2.78s.77-.29,1.31-1.07a4.55,4.55,0,0,0,.72-1.36c0-.23.07-.47.1-.71a.67.67,0,0,1,.78-.56,5.45,5.45,0,0,1,1.37.49c.65.3,1,.53,1,.67A1.54,1.54,0,0,1,307.81,245.69Z"/><path class="cls-7" d="M318.25,246.12c.13.21-.16.85-.85,1.9a6.93,6.93,0,0,1-2.21,2.29,1,1,0,0,1-.4.06,6.71,6.71,0,0,1-2.21-.51,4.12,4.12,0,0,1-1.91-1.11,7,7,0,0,1-1.26-4.45,9.83,9.83,0,0,1,1.11-4.75c.79-1.5,1.81-2.26,3-2.29a4.48,4.48,0,0,1,1.63.34,5.45,5.45,0,0,1,1.93,1.22,2.72,2.72,0,0,1,.37,1.16,10,10,0,0,1,.21,2,3.21,3.21,0,0,1-.47,2,17.38,17.38,0,0,1-4.56.79,7.46,7.46,0,0,0,.26,2.2c.2.77.41,1.17.63,1.18s.63-.22,1-.71a3,3,0,0,0,.67-1,11.12,11.12,0,0,1,.41-1.33,3.77,3.77,0,0,1,1.37.34A2.64,2.64,0,0,1,318.25,246.12Zm-3.87-6.55c-.24,0-.59.36-1,1.15a6,6,0,0,0-.77,2.29,2.7,2.7,0,0,0,1.56-.47c.23-.17.35-.88.35-2.14C314.49,239.88,314.45,239.6,314.38,239.57Z"/><path class="cls-7" d="M332.47,239.38a1.29,1.29,0,0,1-.26.68.69.69,0,0,1-.53.3l-.15,0a5.29,5.29,0,0,0-1.37-.11v8.45a3.22,3.22,0,0,1,.15.35,1.86,1.86,0,0,1,.14.64q0,.62-.87.66a5.39,5.39,0,0,1-1.67-.38c-.89-.29-1.36-.55-1.41-.79a1.28,1.28,0,0,1,.15-.64,2.1,2.1,0,0,0,.19-.73v-7.58h-.74c-.27,0-.61-.24-1-.71a2.07,2.07,0,0,1-.6-1.15.8.8,0,0,1,.25-.58.74.74,0,0,1,.55-.25h1.56v-1.93a1.53,1.53,0,0,1-.32-.92.52.52,0,0,1,.39-.56,2.58,2.58,0,0,1,.54,0,8.26,8.26,0,0,1,1.88.25,4,4,0,0,1,1.4.5.4.4,0,0,1,.15.3,1.19,1.19,0,0,1-.35.64,1.83,1.83,0,0,0-.37.6v1.16h.7c.14,0,.45.25.91.77S332.47,239.16,332.47,239.38Z"/><path class="cls-7" d="M343.93,249.39a1,1,0,0,1-.48.79,1.58,1.58,0,0,1-.54.07,8.42,8.42,0,0,1-1.76-.23,3,3,0,0,1-1.24-.44.36.36,0,0,1-.08-.25,2.1,2.1,0,0,1,.19-.65l.28-.37a.86.86,0,0,0,.15-.52c0-5.62,0-8.46-.13-8.5s-.71.45-1.49,1.56a5.55,5.55,0,0,0-1.26,2.85v4.75a1,1,0,0,1,.24.9,1.16,1.16,0,0,1-.7.9.78.78,0,0,1-.26,0,8,8,0,0,1-1.71-.27,4.28,4.28,0,0,1-1.24-.39.81.81,0,0,1,0-.8,1.18,1.18,0,0,1,.21-.22.46.46,0,0,0,.19-.31V233.17a.94.94,0,0,0-.18-.45.59.59,0,0,1-.11-.47.84.84,0,0,1,.68-.58,5,5,0,0,1,1.63.24c.92.23,1.43.46,1.51.71a1.12,1.12,0,0,1-.06.7,3.89,3.89,0,0,0-.15,1.16v4a3.26,3.26,0,0,1,2.34-1.52,5.23,5.23,0,0,1,1.91.5c.78.34,1.23.64,1.35.91.4.91.61,4.29.61,10.12A1.71,1.71,0,0,1,343.93,249.39Z"/><path class="cls-7" d="M355.87,249.39a.75.75,0,0,1-.26.51.66.66,0,0,1-.55.18c-1.79-.25-2.79-.58-3-1a.37.37,0,0,1-.05-.17.47.47,0,0,1,.1-.24.48.48,0,0,0,.12-.22.51.51,0,0,1,.09-.18,3.74,3.74,0,0,0,0-.75,4.6,4.6,0,0,0-.78,1,5.19,5.19,0,0,1-1,1.29,2.25,2.25,0,0,1-1.58.64,1.61,1.61,0,0,1-1-.41,11.07,11.07,0,0,1-.85-.83L346,248a1.93,1.93,0,0,1-.45-1.14,1.32,1.32,0,0,1,0-.34,6.5,6.5,0,0,1,2.56-3.57,24,24,0,0,1,4.43-2.59c0-.46-.12-.75-.35-.88s-.65.08-1.52.48a9.55,9.55,0,0,0-1.82,1,6,6,0,0,1-.56.47.88.88,0,0,1-.68.13,3.9,3.9,0,0,1-1-.77,3.29,3.29,0,0,1-.84-.94.7.7,0,0,1,.37-.9l.86-.26,1.61-.85a8,8,0,0,1,2.87-.86,1.76,1.76,0,0,1,1.12.51l1.14,1c.39.32.78.63,1.19.93a1.62,1.62,0,0,1,.69,1.15v8.09A2,2,0,0,1,355.87,249.39Zm-3.48-6.25a4.84,4.84,0,0,0-1.82,1.24c-.38.46-.75.91-1.13,1.35a5.38,5.38,0,0,0-.86,1.17,2.66,2.66,0,0,0-.4,1.06c0,.11.05.17.13.17.31,0,1-.65,2-1.94A13.39,13.39,0,0,0,352.39,243.14Z"/><path class="cls-7" d="M364.72,239.38a1.15,1.15,0,0,1-.26.68.67.67,0,0,1-.52.3l-.15,0a5.29,5.29,0,0,0-1.37-.11v8.45a2.56,2.56,0,0,1,.14.35,1.68,1.68,0,0,1,.15.64q0,.62-.87.66a5.39,5.39,0,0,1-1.67-.38c-.89-.29-1.36-.55-1.42-.79a1.47,1.47,0,0,1,.16-.64,2.1,2.1,0,0,0,.19-.73v-7.58h-.74c-.27,0-.61-.24-1-.71a2.07,2.07,0,0,1-.6-1.15.84.84,0,0,1,.24-.58.78.78,0,0,1,.56-.25h1.56v-1.93a1.47,1.47,0,0,1-.32-.92.52.52,0,0,1,.39-.56,2.58,2.58,0,0,1,.54,0,8.33,8.33,0,0,1,1.88.25,4,4,0,0,1,1.4.5.4.4,0,0,1,.15.3,1.27,1.27,0,0,1-.35.64,1.83,1.83,0,0,0-.37.6v1.16h.7c.14,0,.45.25.91.77S364.72,239.16,364.72,239.38Z"/><path class="cls-7" d="M386.87,248.49a2.14,2.14,0,0,1,.17.81.87.87,0,0,1-.5.88,1.58,1.58,0,0,1-.54.07,8.42,8.42,0,0,1-1.76-.23,3,3,0,0,1-1.24-.44.42.42,0,0,1-.1-.28,1.73,1.73,0,0,1,.32-.76,1.72,1.72,0,0,0,.33-.75,81.1,81.1,0,0,0-.13-8.5c-.23-.07-.71.49-1.41,1.69a6.92,6.92,0,0,0-1.18,3.43v4.19a2.82,2.82,0,0,1,.15.77.86.86,0,0,1-.56.81,1.58,1.58,0,0,1-.54.07,8.42,8.42,0,0,1-1.76-.23,3,3,0,0,1-1.24-.44.26.26,0,0,1-.08-.21,2,2,0,0,1,.31-.77,1.93,1.93,0,0,0,.31-.81c0-5.62,0-8.46-.13-8.5s-.7.57-1.49,1.93a7.33,7.33,0,0,0-1.26,3.23v4a.9.9,0,0,1,.28.68,1.11,1.11,0,0,1-.74,1.12.78.78,0,0,1-.26,0,8,8,0,0,1-1.71-.27,3.1,3.1,0,0,1-1.26-.44.58.58,0,0,1-.13-.38.87.87,0,0,1,.25-.52c.16-.2.25-.32.25-.38v-10a.94.94,0,0,0-.18-.45.59.59,0,0,1-.11-.47.84.84,0,0,1,.68-.58,4.66,4.66,0,0,1,1.62.24c.93.23,1.44.46,1.52.7a1.15,1.15,0,0,1-.06.71,5.55,5.55,0,0,0-.24.86,1.72,1.72,0,0,0,.09.51,6.61,6.61,0,0,1,.91-1.91c.48-.67.95-1,1.43-1a5.1,5.1,0,0,1,1.89.53,4,4,0,0,1,1.37.88,5,5,0,0,1,.43,1.54q.9-1.62,1-1.86c.49-.73,1-1.09,1.41-1.09a5.19,5.19,0,0,1,1.91.5c.79.34,1.23.64,1.35.91C386.67,239.28,386.87,242.66,386.87,248.49Z"/><path class="cls-7" d="M399,249.39a.71.71,0,0,1-.26.51.65.65,0,0,1-.54.18c-1.8-.25-2.8-.58-3-1a.35.35,0,0,1,0-.17.4.4,0,0,1,.1-.24.56.56,0,0,0,.11-.22.51.51,0,0,1,.09-.18,3.09,3.09,0,0,0,0-.75,4.6,4.6,0,0,0-.78,1,5.47,5.47,0,0,1-.95,1.29,2.27,2.27,0,0,1-1.59.64,1.63,1.63,0,0,1-1-.41,9.8,9.8,0,0,1-.84-.83c-.7-.77-1.08-1.19-1.13-1.26a1.88,1.88,0,0,1-.46-1.14,1.32,1.32,0,0,1,0-.34,6.47,6.47,0,0,1,2.57-3.57,23.89,23.89,0,0,1,4.42-2.59c0-.46-.11-.75-.34-.88s-.65.08-1.52.48a9.39,9.39,0,0,0-1.83,1,4.93,4.93,0,0,1-.56.47.86.86,0,0,1-.67.13,3.9,3.9,0,0,1-1-.77,3.4,3.4,0,0,1-.85-.94.71.71,0,0,1,.37-.9s.3-.1.87-.26l1.6-.85a8.07,8.07,0,0,1,2.87-.86,1.78,1.78,0,0,1,1.13.51c.37.33.75.66,1.14,1s.78.63,1.18.93a1.64,1.64,0,0,1,.7,1.15v8.09A2.17,2.17,0,0,1,399,249.39Zm-3.47-6.25a4.8,4.8,0,0,0-1.83,1.24c-.37.46-.75.91-1.12,1.35a5.07,5.07,0,0,0-.86,1.17,2.51,2.51,0,0,0-.4,1.06c0,.11,0,.17.13.17.3,0,1-.65,2-1.94A14.11,14.11,0,0,0,395.51,243.14Z"/><path class="cls-7" d="M411.14,247.76c0,.28-.25.77-.83,1.48s-1,1-1.34,1c-.63-.09-1.94-1.74-4-5-.15.16-.39.41-.74.75v2.53a3,3,0,0,0,.05.38c0,.19.06.32.08.41,0,.48-.06.8-.31.94a1.39,1.39,0,0,1-.63.11,4.41,4.41,0,0,1-1.6-.3c-.61-.23-.91-.5-.91-.82V233.41a1.64,1.64,0,0,1,.21-.75,1,1,0,0,1,.5-.51.45.45,0,0,1,.18,0,5,5,0,0,1,1.57.38c.67.25,1.05.47,1.12.65a.73.73,0,0,1,.06.26.85.85,0,0,1-.17.44.86.86,0,0,0-.17.5v7.42l3.21-4.34a.93.93,0,0,1,.72-.41,2.14,2.14,0,0,1,1.15.52q.82.6.84,1.17a5.33,5.33,0,0,1-1,1.67q-1.61,2.26-1.89,2.7l2.83,3.83a1.75,1.75,0,0,0,.63.45C411,247.49,411.12,247.62,411.14,247.76Z"/><path class="cls-7" d="M421.15,246.12c.13.21-.16.85-.85,1.9a6.85,6.85,0,0,1-2.22,2.29.93.93,0,0,1-.39.06,6.71,6.71,0,0,1-2.21-.51,4.12,4.12,0,0,1-1.91-1.11,7,7,0,0,1-1.26-4.45,9.83,9.83,0,0,1,1.11-4.75c.79-1.5,1.81-2.26,3-2.29a4.43,4.43,0,0,1,1.62.34,5.41,5.41,0,0,1,1.94,1.22,2.72,2.72,0,0,1,.37,1.16,10,10,0,0,1,.21,2,3.21,3.21,0,0,1-.47,2,17.46,17.46,0,0,1-4.56.79,7.14,7.14,0,0,0,.26,2.2c.2.77.41,1.17.63,1.18s.63-.22,1-.71a3.21,3.21,0,0,0,.67-1,11.12,11.12,0,0,1,.41-1.33,3.81,3.81,0,0,1,1.37.34A2.64,2.64,0,0,1,421.15,246.12Zm-3.87-6.55c-.24,0-.59.36-1,1.15a6,6,0,0,0-.77,2.29,2.7,2.7,0,0,0,1.56-.47c.23-.17.35-.88.35-2.14C417.39,239.88,417.35,239.6,417.28,239.57Z"/><path class="cls-7" d="M430.87,247.74a2.4,2.4,0,0,1-.79,1.89,3.3,3.3,0,0,1-2.23.72,3.12,3.12,0,0,1-.76-.1c-.49-.13-.75-.2-.78-.22l-.79-.18a1.5,1.5,0,0,1-.68-.33,5.46,5.46,0,0,1-.94-1.18c-.24-.4-.48-.8-.71-1.22a2.45,2.45,0,0,1-.35-.75c0-.2.14-.35.43-.45a1.65,1.65,0,0,1,.39,0,12.6,12.6,0,0,1,1.64.14,3.13,3.13,0,0,1,1.08.24,4.59,4.59,0,0,1,.24,1.23c.08.65.23,1,.45,1s.5-.44.5-1.33c0-1.12-.3-1.83-.91-2.11a8.92,8.92,0,0,1-2.74-1.72,4.15,4.15,0,0,1-.8-2.78,4.43,4.43,0,0,1,.65-2.3,2.57,2.57,0,0,1,1.54-1.29,7.44,7.44,0,0,1,2.52.81c.13,0,.52.12,1.15.24a1.6,1.6,0,0,1,1,.45,2.71,2.71,0,0,1,.48,1.56c0,.53,0,1.05,0,1.58a7.47,7.47,0,0,1,.15.86.62.62,0,0,1-.59.68,3.48,3.48,0,0,1-1.19-.23,2.71,2.71,0,0,1-1.24-.67,8.86,8.86,0,0,1-.13-1.6q-.06-1.44-.3-1.44c-.22,0-.42.28-.61.84a5.31,5.31,0,0,0-.28,1.73c0,.76.16,1.24.5,1.44.71.38,1.41.77,2.11,1.16a4.27,4.27,0,0,1,1.47,1.21A3.89,3.89,0,0,1,430.87,247.74Z"/><path class="cls-7" d="M445.09,239.38a1.22,1.22,0,0,1-.26.68.67.67,0,0,1-.52.3l-.15,0a5.34,5.34,0,0,0-1.37-.11v8.45a2.56,2.56,0,0,1,.14.35,1.86,1.86,0,0,1,.14.64q0,.62-.87.66a5.45,5.45,0,0,1-1.67-.38c-.88-.29-1.35-.55-1.41-.79a1.28,1.28,0,0,1,.15-.64,2.17,2.17,0,0,0,.2-.73v-7.58h-.74c-.28,0-.62-.24-1-.71a2,2,0,0,1-.61-1.15.8.8,0,0,1,.25-.58.76.76,0,0,1,.55-.25h1.57v-1.93a1.48,1.48,0,0,1-.33-.92.52.52,0,0,1,.39-.56,2.58,2.58,0,0,1,.54,0,8.19,8.19,0,0,1,1.88.25,3.87,3.87,0,0,1,1.4.5.4.4,0,0,1,.15.3,1.23,1.23,0,0,1-.34.64,1.66,1.66,0,0,0-.37.6v1.16h.69c.15,0,.45.25.92.77S445.09,239.16,445.09,239.38Z"/><path class="cls-7" d="M456.55,249.39a1,1,0,0,1-.48.79,1.58,1.58,0,0,1-.54.07,8.42,8.42,0,0,1-1.76-.23,2.9,2.9,0,0,1-1.23-.44.37.37,0,0,1-.09-.25,1.94,1.94,0,0,1,.2-.65l.28-.37a.86.86,0,0,0,.15-.52,81.1,81.1,0,0,0-.13-8.5q-.33-.1-1.5,1.56a5.55,5.55,0,0,0-1.26,2.85v4.75a1,1,0,0,1,.24.9,1.16,1.16,0,0,1-.69.9.83.83,0,0,1-.26,0,8,8,0,0,1-1.72-.27,4.56,4.56,0,0,1-1.24-.39.78.78,0,0,1,0-.8s.08-.11.21-.22a.44.44,0,0,0,.18-.31V233.17a1,1,0,0,0-.17-.45.52.52,0,0,1-.11-.47.84.84,0,0,1,.67-.58,5,5,0,0,1,1.63.24c.92.23,1.43.46,1.52.71a1.14,1.14,0,0,1-.07.7,3.89,3.89,0,0,0-.15,1.16v4a3.26,3.26,0,0,1,2.35-1.52,5.23,5.23,0,0,1,1.91.5c.78.34,1.23.64,1.34.91.41.91.61,4.29.61,10.12A1.61,1.61,0,0,1,456.55,249.39Z"/><path class="cls-7" d="M467.15,246.12c.13.21-.16.85-.85,1.9a6.93,6.93,0,0,1-2.21,2.29,1,1,0,0,1-.4.06,6.71,6.71,0,0,1-2.21-.51,4.12,4.12,0,0,1-1.91-1.11,7,7,0,0,1-1.26-4.45,9.83,9.83,0,0,1,1.11-4.75c.79-1.5,1.81-2.26,3-2.29a4.48,4.48,0,0,1,1.63.34,5.45,5.45,0,0,1,1.93,1.22,2.72,2.72,0,0,1,.37,1.16,10,10,0,0,1,.21,2,3.21,3.21,0,0,1-.47,2,17.31,17.31,0,0,1-4.56.79,7.46,7.46,0,0,0,.26,2.2c.2.77.41,1.17.63,1.18s.63-.22,1-.71a3,3,0,0,0,.67-1,11.12,11.12,0,0,1,.41-1.33,3.77,3.77,0,0,1,1.37.34A2.64,2.64,0,0,1,467.15,246.12Zm-3.87-6.55c-.24,0-.59.36-1,1.15a6,6,0,0,0-.77,2.29,2.7,2.7,0,0,0,1.56-.47c.23-.17.35-.88.35-2.14C463.39,239.88,463.35,239.6,463.28,239.57Z"/><path class="cls-7" d="M484.73,248.49a2,2,0,0,1,.17.81.87.87,0,0,1-.5.88,1.58,1.58,0,0,1-.54.07,8.42,8.42,0,0,1-1.76-.23,2.9,2.9,0,0,1-1.23-.44.38.38,0,0,1-.11-.28,1.87,1.87,0,0,1,.32-.76,1.72,1.72,0,0,0,.33-.75,81.1,81.1,0,0,0-.13-8.5c-.23-.07-.7.49-1.41,1.69a7,7,0,0,0-1.18,3.43v4.19a2.56,2.56,0,0,1,.16.77.86.86,0,0,1-.57.81,1.58,1.58,0,0,1-.54.07A8.42,8.42,0,0,1,476,250a3,3,0,0,1-1.24-.44.3.3,0,0,1-.08-.21,2,2,0,0,1,.31-.77,2,2,0,0,0,.32-.81,81.1,81.1,0,0,0-.13-8.5c-.21-.07-.71.57-1.5,1.93a7.33,7.33,0,0,0-1.26,3.23v4a.9.9,0,0,1,.28.68,1.1,1.1,0,0,1-.74,1.12.74.74,0,0,1-.26,0A8,8,0,0,1,470,250a3.25,3.25,0,0,1-1.26-.44.58.58,0,0,1-.13-.38.87.87,0,0,1,.25-.52c.16-.2.25-.32.25-.38v-10a.94.94,0,0,0-.18-.45.55.55,0,0,1-.1-.47.83.83,0,0,1,.67-.58,4.73,4.73,0,0,1,1.63.24c.92.23,1.43.46,1.52.7a1.25,1.25,0,0,1-.07.71,5.55,5.55,0,0,0-.24.86,1.72,1.72,0,0,0,.09.51,6.88,6.88,0,0,1,.91-1.91c.48-.67,1-1,1.43-1a5.05,5.05,0,0,1,1.89.53,3.89,3.89,0,0,1,1.37.88,5.24,5.24,0,0,1,.44,1.54c.59-1.08.93-1.7,1-1.86.5-.73,1-1.09,1.42-1.09a5.28,5.28,0,0,1,1.91.5c.78.34,1.23.64,1.34.91C484.53,239.28,484.73,242.66,484.73,248.49Z"/><path class="cls-7" d="M253.49,265a1.18,1.18,0,0,1-.19.72c-.16.28-.33.4-.5.39a.73.73,0,0,1-.42-.22.86.86,0,0,0-.45-.25c-.67-.11-1,.49-1,1.82v.66c0,.29,0,.49,0,.6h.7c.15,0,.47.26.93.77s.69.88.67,1.09a1.15,1.15,0,0,1-.26.69.67.67,0,0,1-.52.3l-.15,0a4.76,4.76,0,0,0-1.37-.11v8.45a.83.83,0,0,0,.19.44.61.61,0,0,1,.14.46.87.87,0,0,1-.92.75,6.22,6.22,0,0,1-1.67-.39c-.88-.28-1.35-.55-1.41-.79a1.25,1.25,0,0,1,.15-.63,2.22,2.22,0,0,0,.2-.74v-7.57h-.74c-.27,0-.61-.24-1-.72a2,2,0,0,1-.59-1.15.8.8,0,0,1,.23-.57.74.74,0,0,1,.55-.26h1.56a12.68,12.68,0,0,1,.28-3.27,2.69,2.69,0,0,1,2.8-2,5.43,5.43,0,0,1,.57,0,3,3,0,0,1,1.47.7C253.22,264.51,253.46,264.79,253.49,265Z"/><path class="cls-7" d="M259.14,264.41a1.4,1.4,0,0,1-.1.41,2.54,2.54,0,0,0-.12.32,8.42,8.42,0,0,0-.26,1.32V279.6a.8.8,0,0,0,.13.46.78.78,0,0,1,.13.33c0,.91-.18,1.41-.52,1.48a5.28,5.28,0,0,1-1.38-.29,5.64,5.64,0,0,1-1.42-.52,1.08,1.08,0,0,1-.48-.75.35.35,0,0,1,.09-.2.64.64,0,0,0,.08-.36V264.67a.54.54,0,0,0-.07-.27.56.56,0,0,1-.08-.27c0-.34.3-.57.8-.68a4.4,4.4,0,0,1,.92,0,7.32,7.32,0,0,1,1.39.23C258.84,263.85,259.14,264.1,259.14,264.41Z"/><path class="cls-7" d="M272.12,269.48a1.22,1.22,0,0,1,0,.32,1.18,1.18,0,0,1-.33.75,2.8,2.8,0,0,0-.47.69L267,283.5l-.09.85c-.06.46-.2.71-.43.77l-.24,0a4.45,4.45,0,0,1-1.46-.31,3.6,3.6,0,0,1-1.2-.62.88.88,0,0,1-.34-.65,1.61,1.61,0,0,1,.3-.78,4,4,0,0,0,.35-.61l.72-2.42-3.52-8.51a2.94,2.94,0,0,0-.39-.43,1.49,1.49,0,0,1-.37-.86c0-.17.35-.47,1.14-.91a4.33,4.33,0,0,1,1.86-.65.58.58,0,0,1,.28.06,1.22,1.22,0,0,1,.52.73c.07.32.15.62.24.92l1.91,5.2,2-5.35c.09-.28.18-.57.28-.85a.8.8,0,0,1,.46-.54,1.65,1.65,0,0,1,.48-.06,4.52,4.52,0,0,1,1.58.33C271.74,269.05,272.06,269.27,272.12,269.48Z"/><path class="cls-7" d="M288.35,280.58a.71.71,0,0,1-.26.52.65.65,0,0,1-.54.17c-1.79-.24-2.79-.58-3-1a.34.34,0,0,1-.05-.17.36.36,0,0,1,.1-.23.85.85,0,0,0,.12-.23.38.38,0,0,1,.09-.18,3.66,3.66,0,0,0,0-.75,4,4,0,0,0-.78,1,5.57,5.57,0,0,1-1,1.28,2.26,2.26,0,0,1-1.58.65,1.61,1.61,0,0,1-1-.41,10.05,10.05,0,0,1-.85-.84c-.7-.77-1.07-1.19-1.13-1.26a2,2,0,0,1-.46-1.13,1.41,1.41,0,0,1,.05-.35,6.48,6.48,0,0,1,2.56-3.57,25.22,25.22,0,0,1,4.43-2.59c0-.45-.12-.75-.35-.87s-.65.07-1.52.48a8.75,8.75,0,0,0-1.82,1c-.12.11-.31.27-.57.47a.84.84,0,0,1-.67.12,3.66,3.66,0,0,1-1-.77,3.44,3.44,0,0,1-.85-.94.73.73,0,0,1,.37-.9s.31-.1.87-.25l1.61-.86a8,8,0,0,1,2.86-.85,1.66,1.66,0,0,1,1.13.51l1.14,1c.38.32.78.63,1.18.93a1.62,1.62,0,0,1,.7,1.16v8.09A2,2,0,0,1,288.35,280.58Zm-3.47-6.24a4.58,4.58,0,0,0-1.82,1.24l-1.13,1.35a5.22,5.22,0,0,0-.86,1.16,2.51,2.51,0,0,0-.4,1.06c0,.12,0,.17.13.17.3,0,1-.64,2-1.93A13.39,13.39,0,0,0,284.88,274.34Z"/><path class="cls-7" d="M304.51,269.76a65,65,0,0,0-2,6.65,22.79,22.79,0,0,0-.89,4v.79c0,.37-.15.58-.4.62a7.83,7.83,0,0,1-1.86-.34q-1.63-.4-1.74-.66a5.44,5.44,0,0,1,0-1,26.38,26.38,0,0,1-.94-5.32c-.07.4-.31,1.44-.73,3.12a13.38,13.38,0,0,0-.48,2.44c0,.3,0,.59-.05.88s-.16.63-.41.7a.94.94,0,0,1-.28,0,6.23,6.23,0,0,1-1.74-.3c-.75-.23-1.2-.51-1.34-.84a.52.52,0,0,1,0-.36,1.73,1.73,0,0,0,0-.58c-.3-1.58-.61-3.16-.91-4.73s-.54-3.29-.72-5c0-.46-.06-.72-.06-.77,0-.59.19-.87.56-.86a6.22,6.22,0,0,1,1.57.45q1.17.46,1.23.75a3.49,3.49,0,0,1,0,.92q.14,1.65.67,5.82l1.5-7c.12-.51.34-.81.67-.88a5,5,0,0,1,1.32.53c.76.36,1.14.61,1.14.73a60.89,60.89,0,0,0,.95,6.66,62.37,62.37,0,0,1,1.72-7.15c.11-.54.4-.77.87-.7a4.67,4.67,0,0,1,1.36.47C304,269.13,304.4,269.45,304.51,269.76Z"/><path class="cls-7" d="M316,280.58a.71.71,0,0,1-.26.52.65.65,0,0,1-.54.17c-1.8-.24-2.79-.58-3-1a.33.33,0,0,1,0-.17.36.36,0,0,1,.1-.23.85.85,0,0,0,.12-.23.48.48,0,0,1,.08-.18,3,3,0,0,0,0-.75,4.49,4.49,0,0,0-.78,1,5.59,5.59,0,0,1-.95,1.28,2.26,2.26,0,0,1-1.59.65,1.65,1.65,0,0,1-1-.41,10.45,10.45,0,0,1-.84-.84c-.7-.77-1.07-1.19-1.13-1.26a1.88,1.88,0,0,1-.46-1.13,1.41,1.41,0,0,1,0-.35,6.43,6.43,0,0,1,2.56-3.57,25.22,25.22,0,0,1,4.43-2.59c0-.45-.12-.75-.35-.87s-.65.07-1.52.48a8.89,8.89,0,0,0-1.83,1,6.28,6.28,0,0,1-.56.47.85.85,0,0,1-.67.12,3.66,3.66,0,0,1-1-.77A3.26,3.26,0,0,1,306,271a.72.72,0,0,1,.37-.9s.3-.1.87-.25l1.6-.86a8,8,0,0,1,2.87-.85,1.68,1.68,0,0,1,1.13.51l1.14,1c.38.32.78.63,1.18.93a1.66,1.66,0,0,1,.7,1.16v8.09A2,2,0,0,1,316,280.58Zm-3.47-6.24a4.58,4.58,0,0,0-1.82,1.24l-1.13,1.35a5.22,5.22,0,0,0-.86,1.16,2.51,2.51,0,0,0-.4,1.06c0,.12,0,.17.13.17.3,0,1-.64,2-1.93A14.11,14.11,0,0,0,312.54,274.34Z"/><path class="cls-7" d="M328.43,269.48a1.1,1.1,0,0,1-.28,1.07,2.66,2.66,0,0,0-.48.69l-4.32,12.26-.09.85c-.06.46-.2.71-.43.77l-.24,0a4.35,4.35,0,0,1-1.45-.31,3.67,3.67,0,0,1-1.21-.62.91.91,0,0,1-.34-.65,1.54,1.54,0,0,1,.31-.78,3.62,3.62,0,0,0,.34-.61l.72-2.42-3.52-8.51a2.4,2.4,0,0,0-.39-.43,1.49,1.49,0,0,1-.36-.86c0-.17.35-.47,1.13-.91a4.33,4.33,0,0,1,1.86-.65.55.55,0,0,1,.28.06,1.22,1.22,0,0,1,.52.73c.08.32.16.62.24.92l1.91,5.2,2-5.35c.09-.28.18-.57.29-.85a.79.79,0,0,1,.45-.54,1.65,1.65,0,0,1,.48-.06,4.43,4.43,0,0,1,1.58.33C328.05,269.05,328.37,269.27,328.43,269.48Z"/><path class="cls-7" d="M330.36,278.68a1.52,1.52,0,0,1-.26.81,2.39,2.39,0,0,0-.35,1,2,2,0,0,1,0,.49c-.05.42-.17.66-.34.73s-.68,0-1.44-.38-1.17-.61-1.26-.8,0-.52.31-1.19a8.44,8.44,0,0,1,.61-1.29.5.5,0,0,1,.47-.21c-.08,0,.35.08,1.31.25C330,278.22,330.3,278.41,330.36,278.68Z"/><path class="cls-7" d="M171.43,296.2a36,36,0,0,0-3,9.18,32.44,32.44,0,0,0-1,6.12.92.92,0,0,0,0,.43,1,1,0,0,1,0,.38c-.11.68-.3,1-.59,1.07a6.33,6.33,0,0,1-2.17-.74c-1.26-.53-1.93-.92-2-1.18,0,0,0-.47-.07-1.33a27.13,27.13,0,0,1-1.23-5.73c-.41,1-.81,2.05-1.2,3.08a9.63,9.63,0,0,0-.52,3.32,1.43,1.43,0,0,0,0,.51,1.22,1.22,0,0,1,0,.53q-.19.93-.6,1.05a1.13,1.13,0,0,1-.35.05,6.79,6.79,0,0,1-2.26-.45c-1-.36-1.61-.79-1.76-1.29a8.74,8.74,0,0,0,0-1.11,43.86,43.86,0,0,1-1.37-6.63,52.35,52.35,0,0,1-.28-6.91,3.39,3.39,0,0,1-.11-1.27c.19-.61.45-.91.78-.89a4.85,4.85,0,0,1,1.8.66c.83.43,1.27.77,1.33,1,0,.08,0,.49-.07,1.21s-.08,1.27-.08,1.82a44.77,44.77,0,0,0,.63,5.95l3-9.39a3.25,3.25,0,0,1,.27-.77,1,1,0,0,1,.65-.39,6.22,6.22,0,0,1,1.73.68c1,.48,1.51.81,1.52,1s0,.58,0,1.44-.07,1.89-.07,2.65a28.39,28.39,0,0,0,.35,4.77q.59-3,1.52-6.1a32.91,32.91,0,0,1,1.11-3.4c.16-.71.54-1,1.15-.94a6.07,6.07,0,0,1,1.61.49C170.85,295.43,171.3,295.8,171.43,296.2Z"/><path class="cls-7" d="M181.18,311.78a.75.75,0,0,1-.26.51.62.62,0,0,1-.54.17c-1.8-.24-2.8-.57-3-1a.38.38,0,0,1,0-.17.45.45,0,0,1,.09-.24.48.48,0,0,0,.12-.22.51.51,0,0,1,.09-.18,3.09,3.09,0,0,0,0-.75,4.6,4.6,0,0,0-.78,1,5.47,5.47,0,0,1-.95,1.29,2.29,2.29,0,0,1-1.59.64,1.61,1.61,0,0,1-1-.41,11.07,11.07,0,0,1-.85-.83l-1.13-1.26a1.93,1.93,0,0,1-.45-1.14,1.32,1.32,0,0,1,0-.34,6.5,6.5,0,0,1,2.56-3.57,24.37,24.37,0,0,1,4.43-2.59c0-.46-.11-.75-.34-.88s-.66.08-1.52.48a9.39,9.39,0,0,0-1.83,1,6.28,6.28,0,0,1-.56.47.88.88,0,0,1-.68.13,4.27,4.27,0,0,1-1-.77,3.29,3.29,0,0,1-.84-.94.7.7,0,0,1,.37-.9s.3-.1.87-.26l1.6-.85a8.07,8.07,0,0,1,2.87-.86,1.78,1.78,0,0,1,1.13.51c.37.33.75.66,1.14,1s.77.63,1.18.93a1.62,1.62,0,0,1,.69,1.15V311A2,2,0,0,1,181.18,311.78Zm-3.47-6.25a4.8,4.8,0,0,0-1.83,1.24c-.37.46-.75.91-1.13,1.35a5.05,5.05,0,0,0-.85,1.17,2.57,2.57,0,0,0-.41,1.06c0,.11,0,.17.13.17.31,0,1-.65,2-1.94A14.11,14.11,0,0,0,177.71,305.53Z"/><path class="cls-7" d="M190,301.77a1.29,1.29,0,0,1-.26.68.69.69,0,0,1-.53.3l-.15,0a5.29,5.29,0,0,0-1.37-.11v8.45a3.22,3.22,0,0,1,.15.35,1.86,1.86,0,0,1,.14.64q0,.62-.87.66a5.39,5.39,0,0,1-1.67-.38c-.89-.29-1.36-.55-1.41-.8a1.26,1.26,0,0,1,.15-.63,2.1,2.1,0,0,0,.19-.74V302.6h-.73c-.28,0-.62-.24-1-.72a2,2,0,0,1-.6-1.14.8.8,0,0,1,.25-.58.74.74,0,0,1,.55-.25h1.56V298a1.53,1.53,0,0,1-.32-.92.52.52,0,0,1,.39-.56,2.58,2.58,0,0,1,.54,0,8.26,8.26,0,0,1,1.88.25,4,4,0,0,1,1.4.5.38.38,0,0,1,.15.3,1.27,1.27,0,0,1-.35.64,1.83,1.83,0,0,0-.37.6v1.16h.7c.14,0,.45.25.91.77S190,301.55,190,301.77Z"/><path class="cls-7" d="M200.48,308.08c0,.27-.24.63-.72,1.09a9.23,9.23,0,0,1-1,1.82,3.86,3.86,0,0,1-2.45,1.52,4.08,4.08,0,0,1-.59,0,5.83,5.83,0,0,1-3-1.16c-1-.68-1.54-2.26-1.54-4.72a13.79,13.79,0,0,1,.85-5c.62-1.61,1.38-2.44,2.28-2.5a6.13,6.13,0,0,1,2.6.56,4.76,4.76,0,0,1,2.09,1.36,2.78,2.78,0,0,1,.45,1.65c0,.19,0,.46,0,.8a3.94,3.94,0,0,0,0,.74c0,.39,0,.57,0,.54,0,.45-.22.68-.67.66a5.52,5.52,0,0,1-1.48-.23,1.67,1.67,0,0,1-1.13-.88c0-.13,0-.3.19-.52a.71.71,0,0,0,.2-.53,3.45,3.45,0,0,0,.05-.75c0-.85-.15-1.3-.46-1.33-.46,0-.85.67-1.17,2.08a18.26,18.26,0,0,0-.43,4.11c0,1.75.21,2.68.63,2.78s.76-.29,1.3-1.07a4.67,4.67,0,0,0,.73-1.36l.09-.72a.67.67,0,0,1,.78-.55,5.32,5.32,0,0,1,1.37.49c.65.3,1,.52,1,.67A1.54,1.54,0,0,1,200.48,308.08Z"/><path class="cls-7" d="M212,311.78a1,1,0,0,1-.47.79,1.69,1.69,0,0,1-.55.07,8.42,8.42,0,0,1-1.76-.23A2.9,2.9,0,0,1,208,312a.37.37,0,0,1-.09-.25,2.22,2.22,0,0,1,.2-.65l.28-.37a.88.88,0,0,0,.15-.53c0-5.61,0-8.45-.13-8.49s-.72.45-1.5,1.56a5.55,5.55,0,0,0-1.26,2.85v4.75a1,1,0,0,1,.24.9,1.16,1.16,0,0,1-.69.9.83.83,0,0,1-.26,0,8.08,8.08,0,0,1-1.72-.27A4.56,4.56,0,0,1,202,312a.78.78,0,0,1,0-.8s.08-.11.21-.22a.44.44,0,0,0,.18-.31V295.56a1,1,0,0,0-.17-.45.56.56,0,0,1-.11-.47.84.84,0,0,1,.67-.58,5,5,0,0,1,1.63.24c.93.23,1.43.46,1.52.71a1.07,1.07,0,0,1-.07.7,3.89,3.89,0,0,0-.15,1.16v4a3.26,3.26,0,0,1,2.35-1.52,5.23,5.23,0,0,1,1.91.5c.78.34,1.23.64,1.34.91.41.91.61,4.29.61,10.12A1.53,1.53,0,0,1,212,311.78Z"/><path class="cls-7" d="M225.55,300a3.83,3.83,0,0,1,1.85,2.25,10.22,10.22,0,0,1,.58,3.64,11.56,11.56,0,0,1-1,5c-.73,1.51-1.65,2.2-2.75,2.06-.41-.11-1-.23-1.83-.37a9.62,9.62,0,0,1-1.6-.32,3.16,3.16,0,0,1-2-2.08,9.85,9.85,0,0,1-.67-3.8,11,11,0,0,1,.69-4,5.1,5.1,0,0,1,2.2-2.76,1.29,1.29,0,0,1,.65-.13,9.68,9.68,0,0,1,1.71.28A12.41,12.41,0,0,1,225.55,300Zm-2.43,1.93c-.39,0-.75.46-1.09,1.4a8,8,0,0,0-.49,2.68,13,13,0,0,0,.36,3c.28,1.08.6,1.67,1,1.76s.87-.42,1.24-1.55a11.93,11.93,0,0,0,.52-3.59,8.77,8.77,0,0,0-.28-2.16C224.07,302.44,223.67,301.92,223.12,301.92Z"/><path class="cls-7" d="M239.75,300a.77.77,0,0,1,.15.43.87.87,0,0,1-.25.52c-.17.19-.25.32-.25.38v9.95a1.57,1.57,0,0,0,.14.45,1.21,1.21,0,0,1,.14.47c0,.26-.22.44-.67.56a5,5,0,0,1-1.63-.24c-.92-.23-1.43-.46-1.52-.68a1.08,1.08,0,0,1,.07-.75,2.83,2.83,0,0,0,.22-.77,3.53,3.53,0,0,0-.07-.56,6.69,6.69,0,0,1-.91,1.9,1.93,1.93,0,0,1-1.43,1,5.44,5.44,0,0,1-1.92-.49c-.78-.33-1.23-.63-1.34-.9-.41-.91-.61-4.29-.61-10.12a2,2,0,0,1-.17-.82.87.87,0,0,1,.5-.89,1.36,1.36,0,0,1,.54-.07,8.42,8.42,0,0,1,1.76.23,2.82,2.82,0,0,1,1.24.46.39.39,0,0,1,.1.27,1.69,1.69,0,0,1-.32.76,1.79,1.79,0,0,0-.33.76,81.1,81.1,0,0,0,.13,8.5q.31.11,1.53-2a7.17,7.17,0,0,0,1.23-3.18v-4a.9.9,0,0,1-.28-.68,1.12,1.12,0,0,1,.74-1.14.56.56,0,0,1,.26,0,8,8,0,0,1,1.71.27A3.34,3.34,0,0,1,239.75,300Z"/><path class="cls-7" d="M249.58,301.77a1.15,1.15,0,0,1-.26.68.67.67,0,0,1-.52.3l-.15,0a5.29,5.29,0,0,0-1.37-.11v8.45a2.56,2.56,0,0,1,.14.35,1.65,1.65,0,0,1,.14.64c0,.41-.29.63-.86.66a5.44,5.44,0,0,1-1.68-.38c-.88-.29-1.35-.55-1.41-.8a1.26,1.26,0,0,1,.15-.63,2,2,0,0,0,.2-.74V302.6h-.74q-.41,0-1-.72a2.05,2.05,0,0,1-.61-1.14.85.85,0,0,1,.25-.58.76.76,0,0,1,.56-.25H244V298a1.48,1.48,0,0,1-.33-.92.52.52,0,0,1,.4-.56,2.58,2.58,0,0,1,.54,0,8.33,8.33,0,0,1,1.88.25,4,4,0,0,1,1.4.5.38.38,0,0,1,.15.3,1.27,1.27,0,0,1-.35.64,1.83,1.83,0,0,0-.37.6v1.16h.7c.14,0,.44.25.91.77S249.58,301.55,249.58,301.77Z"/><path class="cls-7" d="M263.5,296.18a1.14,1.14,0,0,1-.2.73c-.16.27-.32.4-.5.38a.72.72,0,0,1-.41-.22.94.94,0,0,0-.45-.25c-.67-.11-1,.5-1,1.82v.67c0,.28,0,.48,0,.6h.69c.16,0,.47.25.94.77s.68.87.67,1.09a1.22,1.22,0,0,1-.26.68.67.67,0,0,1-.52.3l-.15,0a5.18,5.18,0,0,0-1.37-.11v8.45a.85.85,0,0,0,.18.44.57.57,0,0,1,.14.46.86.86,0,0,1-.91.75,5.63,5.63,0,0,1-1.67-.38c-.88-.29-1.35-.55-1.41-.8a1.26,1.26,0,0,1,.15-.63,2.16,2.16,0,0,0,.2-.74V302.6h-.74c-.28,0-.61-.24-1-.72a2,2,0,0,1-.6-1.14.84.84,0,0,1,.24-.58.72.72,0,0,1,.54-.25h1.57a12.83,12.83,0,0,1,.28-3.28,2.68,2.68,0,0,1,2.8-2l.56,0a3,3,0,0,1,1.48.71C263.22,295.71,263.47,296,263.5,296.18Z"/><path class="cls-7" d="M271.29,300a3.83,3.83,0,0,1,1.85,2.25,10.22,10.22,0,0,1,.58,3.64,11.56,11.56,0,0,1-1,5c-.73,1.51-1.65,2.2-2.75,2.06-.41-.11-1-.23-1.83-.37a9.62,9.62,0,0,1-1.6-.32,3.16,3.16,0,0,1-2-2.08,9.85,9.85,0,0,1-.67-3.8,11,11,0,0,1,.69-4,5.1,5.1,0,0,1,2.2-2.76,1.31,1.31,0,0,1,.65-.13,9.68,9.68,0,0,1,1.71.28A12.41,12.41,0,0,1,271.29,300Zm-2.43,1.93c-.39,0-.75.46-1.09,1.4a8,8,0,0,0-.49,2.68,13,13,0,0,0,.36,3c.28,1.08.6,1.67,1,1.76s.88-.42,1.24-1.55a11.93,11.93,0,0,0,.52-3.59,8.77,8.77,0,0,0-.28-2.16C269.81,302.44,269.41,301.92,268.86,301.92Z"/><path class="cls-7" d="M283.6,300.91a.48.48,0,0,1-.24.56,4.91,4.91,0,0,0-.5.28l-3.71,5.54c0,2.26,0,3.43,0,3.51s.07.25.16.54a2.32,2.32,0,0,1,.15.7.55.55,0,0,1-.37.55,1.65,1.65,0,0,1-.65.11,5.43,5.43,0,0,1-1.83-.36c-.84-.29-1.26-.65-1.26-1.09a1.93,1.93,0,0,1,.18-.63,2.06,2.06,0,0,0,.17-.7v-8.47c-.16-.8-.24-1.22-.24-1.24a.78.78,0,0,1,.61-.84,2.8,2.8,0,0,1,.63-.06,5.74,5.74,0,0,1,1.59.24c.56.17.89.34,1,.53a.43.43,0,0,1,.05.21,9.75,9.75,0,0,1-.31,1v1c.35-.61.69-1.22,1-1.84s.78-1.17,1-1.21a2.29,2.29,0,0,1,1.45.55C283.17,300.27,283.53,300.63,283.6,300.91Z"/><path class="cls-7" d="M297.45,301.77a1.15,1.15,0,0,1-.26.68.67.67,0,0,1-.52.3l-.15,0a5.34,5.34,0,0,0-1.37-.11v8.45a2.56,2.56,0,0,1,.14.35,1.86,1.86,0,0,1,.14.64q0,.62-.87.66a5.45,5.45,0,0,1-1.67-.38c-.88-.29-1.35-.55-1.41-.8a1.26,1.26,0,0,1,.15-.63,2.16,2.16,0,0,0,.2-.74V302.6h-.74q-.42,0-1-.72a2,2,0,0,1-.61-1.14.8.8,0,0,1,.25-.58.76.76,0,0,1,.55-.25h1.57V298a1.48,1.48,0,0,1-.33-.92.52.52,0,0,1,.39-.56,2.62,2.62,0,0,1,.55,0,8.18,8.18,0,0,1,1.87.25,3.87,3.87,0,0,1,1.4.5.39.39,0,0,1,.16.3,1.27,1.27,0,0,1-.35.64,1.66,1.66,0,0,0-.37.6v1.16h.69c.15,0,.45.25.92.77S297.45,301.55,297.45,301.77Z"/><path class="cls-7" d="M308.91,311.78a1,1,0,0,1-.47.79,1.69,1.69,0,0,1-.55.07,8.42,8.42,0,0,1-1.76-.23,2.9,2.9,0,0,1-1.23-.44.37.37,0,0,1-.09-.25,1.94,1.94,0,0,1,.2-.65l.28-.37a.88.88,0,0,0,.15-.53,81,81,0,0,0-.13-8.49q-.33-.1-1.5,1.56a5.55,5.55,0,0,0-1.26,2.85v4.75a1,1,0,0,1,.24.9,1.16,1.16,0,0,1-.69.9.83.83,0,0,1-.26,0,8,8,0,0,1-1.72-.27,4.42,4.42,0,0,1-1.24-.39.78.78,0,0,1,0-.8s.08-.11.21-.22a.44.44,0,0,0,.18-.31V295.56a1,1,0,0,0-.17-.45.52.52,0,0,1-.11-.47.83.83,0,0,1,.67-.58,5,5,0,0,1,1.63.24c.93.23,1.43.46,1.52.71a1.14,1.14,0,0,1-.07.7,3.89,3.89,0,0,0-.15,1.16v4a3.26,3.26,0,0,1,2.35-1.52,5.28,5.28,0,0,1,1.91.5c.78.34,1.23.64,1.34.91.41.91.61,4.29.61,10.12A1.61,1.61,0,0,1,308.91,311.78Z"/><path class="cls-7" d="M319.53,308.51c.13.21-.15.85-.85,1.9a6.93,6.93,0,0,1-2.21,2.29,1,1,0,0,1-.39.06,6.7,6.7,0,0,1-2.22-.51,4.18,4.18,0,0,1-1.91-1.11,7.05,7.05,0,0,1-1.26-4.45,9.83,9.83,0,0,1,1.11-4.75c.8-1.5,1.81-2.26,3-2.29a4.28,4.28,0,0,1,1.63.34,5.45,5.45,0,0,1,1.93,1.22,2.72,2.72,0,0,1,.37,1.16,10,10,0,0,1,.22,2,3.14,3.14,0,0,1-.48,2,17.31,17.31,0,0,1-4.56.79,7.46,7.46,0,0,0,.26,2.2c.2.77.41,1.17.63,1.18s.64-.22,1-.71a3,3,0,0,0,.67-1,11.24,11.24,0,0,1,.42-1.33,3.77,3.77,0,0,1,1.36.34A2.64,2.64,0,0,1,319.53,308.51ZM315.66,302c-.24,0-.59.36-1,1.15a6.2,6.2,0,0,0-.77,2.29,2.76,2.76,0,0,0,1.57-.47c.23-.17.34-.88.34-2.14C315.77,302.27,315.74,302,315.66,302Z"/><path class="cls-7" d="M336.74,301.7a11.93,11.93,0,0,1-1.28,5.07,20.27,20.27,0,0,1-2.56,4.15,7.06,7.06,0,0,1-2,1.95,1.92,1.92,0,0,1-.74.13,5,5,0,0,1-2.17-.6,5.23,5.23,0,0,1-1.63-1.07v-15.4a.72.72,0,0,1,.66-.67,10.3,10.3,0,0,1,1.08.15,4.37,4.37,0,0,0,1.29-.45,5,5,0,0,1,1.88-.47,3.71,3.71,0,0,1,1.82.49,11.94,11.94,0,0,1,1.5,1.16,5.87,5.87,0,0,1,1.89,2.61A11,11,0,0,1,336.74,301.7Zm-3.6-4.13a.76.76,0,0,0-.35-.06,5.62,5.62,0,0,0-2.76,1v9.63c1-.55,1.83-1.92,2.52-4.08a16.81,16.81,0,0,0,.89-5.1C333.44,298.14,333.34,297.69,333.14,297.57Z"/><path class="cls-7" d="M346.45,308.51c.13.21-.16.85-.85,1.9a6.93,6.93,0,0,1-2.21,2.29,1,1,0,0,1-.4.06,6.71,6.71,0,0,1-2.21-.51,4.12,4.12,0,0,1-1.91-1.11,7.05,7.05,0,0,1-1.26-4.45,9.83,9.83,0,0,1,1.11-4.75c.79-1.5,1.81-2.26,3-2.29a4.28,4.28,0,0,1,1.63.34,5.45,5.45,0,0,1,1.93,1.22,2.72,2.72,0,0,1,.37,1.16,10,10,0,0,1,.21,2,3.21,3.21,0,0,1-.47,2,17.31,17.31,0,0,1-4.56.79,7.46,7.46,0,0,0,.26,2.2c.2.77.41,1.17.63,1.18s.63-.22,1-.71a3,3,0,0,0,.67-1,11.12,11.12,0,0,1,.41-1.33,3.77,3.77,0,0,1,1.37.34A2.64,2.64,0,0,1,346.45,308.51ZM342.58,302c-.24,0-.59.36-1,1.15a6,6,0,0,0-.77,2.29,2.7,2.7,0,0,0,1.56-.47c.23-.17.35-.88.35-2.14C342.69,302.27,342.65,302,342.58,302Z"/><path class="cls-7" d="M357.45,300.44a54,54,0,0,0-1.93,6.48,32.62,32.62,0,0,0-.95,4.47v1.05c0,.46-.19.72-.52.79a7.48,7.48,0,0,1-2.36-.4,5.31,5.31,0,0,1-2.07-.79.82.82,0,0,1-.11-.47,1.19,1.19,0,0,0-.05-.41c-.66-2.08-1.15-3.78-1.45-5.09a40.3,40.3,0,0,1-.78-5.39c0-.05,0-.17,0-.37a2.09,2.09,0,0,1-.05-.38.61.61,0,0,1,.44-.64,6.05,6.05,0,0,1,1.67.28c1,.24,1.52.45,1.6.64a.54.54,0,0,1,.07.29,1.48,1.48,0,0,1-.13.55,1.49,1.49,0,0,0-.13.44c.16,1.11.31,2.09.45,2.95a18.78,18.78,0,0,0,.83,3.66q.33-1.86,1.15-4.84c.26-.95.53-1.91.8-2.86.05-.26.09-.52.13-.77a.79.79,0,0,1,.55-.54,5.4,5.4,0,0,1,2.88,1.35Z"/><path class="cls-7" d="M363.29,311.82a.79.79,0,0,1-.54,1l-.3,0a7.68,7.68,0,0,1-1.94-.32c-.82-.23-1.31-.47-1.45-.73s0-.34.2-.66a2.52,2.52,0,0,0,.19-1.18v-9a4.67,4.67,0,0,1-.26-1.09c0-.18.27-.28.8-.28a6.28,6.28,0,0,1,1.82.4,3.67,3.67,0,0,1,1.4.69.38.38,0,0,1,.06.22,1.72,1.72,0,0,1-.25.64,1.66,1.66,0,0,0-.25.71v8.6a.92.92,0,0,0,.25.53A1.18,1.18,0,0,1,363.29,311.82Zm.07-14.78a.54.54,0,0,1,0,.17,5.16,5.16,0,0,1-.2,1.22c-.14.54-.28.84-.41.9a6.19,6.19,0,0,1-1.87-.46,4.85,4.85,0,0,1-1.75-.78.56.56,0,0,1-.07-.32,2.72,2.72,0,0,1,.31-1.22c.23-.49.49-.76.78-.82a4.06,4.06,0,0,1,1.73.38C362.73,296.41,363.21,296.72,363.36,297Z"/><path class="cls-7" d="M369.33,295.6a1.09,1.09,0,0,1-.1.41c-.06.17-.1.28-.12.32a10,10,0,0,0-.26,1.33V310.8a.82.82,0,0,0,.13.46.61.61,0,0,1,.13.33c0,.91-.17,1.4-.52,1.47a4.84,4.84,0,0,1-1.38-.29,5.25,5.25,0,0,1-1.42-.52,1.08,1.08,0,0,1-.48-.75.32.32,0,0,1,.09-.19.56.56,0,0,0,.09-.36V295.86a.63.63,0,0,0-.08-.27.56.56,0,0,1-.08-.26c0-.35.3-.57.81-.69a4.29,4.29,0,0,1,.91,0,6.45,6.45,0,0,1,1.39.24C369,295.05,369.33,295.29,369.33,295.6Z"/><path class="cls-7" d="M386.74,307.91a1.37,1.37,0,0,1-.41.85,10.2,10.2,0,0,1-1.94,2.68,3.86,3.86,0,0,1-2.28,1.43l-.23,0c-.64-.2-1.36-.45-2.15-.75a6.1,6.1,0,0,1-3.26-3.27,12,12,0,0,1-1-5.07,13.61,13.61,0,0,1,1.37-6.23c1-1.91,2.18-2.9,3.65-3a5.27,5.27,0,0,1,2.48.85,5.6,5.6,0,0,1,2.16,1.79,10.34,10.34,0,0,1,.72,3.88,3.33,3.33,0,0,1-.18,1.31c-.17.53-.39.77-.67.72a11.32,11.32,0,0,1-1.91-.47c-.93-.3-1.42-.55-1.5-.74a.54.54,0,0,1,0-.2,1,1,0,0,1,.18-.48.9.9,0,0,0,.19-.48,13.84,13.84,0,0,0,.11-1.65,3.27,3.27,0,0,0-.26-1.54,5.85,5.85,0,0,0-2,3.15,14.35,14.35,0,0,0-.56,4.21,15,15,0,0,0,.32,3.24,3,3,0,0,0,.78,1.73c.15.08.55-.21,1.21-.87a6.75,6.75,0,0,0,1.27-1.59s.08-.25.19-.69a.73.73,0,0,1,.35-.47c.25-.09.88.12,1.9.61S386.77,307.71,386.74,307.91Z"/><path class="cls-7" d="M395.57,300a3.83,3.83,0,0,1,1.85,2.25,10.22,10.22,0,0,1,.58,3.64,11.71,11.71,0,0,1-1,5c-.74,1.51-1.66,2.2-2.76,2.06-.41-.11-1-.23-1.82-.37a9.75,9.75,0,0,1-1.61-.32,3.18,3.18,0,0,1-2-2.08,10,10,0,0,1-.67-3.8,11,11,0,0,1,.69-4,5.19,5.19,0,0,1,2.2-2.76,1.31,1.31,0,0,1,.65-.13,9.68,9.68,0,0,1,1.71.28A12.41,12.41,0,0,1,395.57,300Zm-2.43,1.93c-.39,0-.75.46-1.08,1.4a7.8,7.8,0,0,0-.5,2.68,12.46,12.46,0,0,0,.37,3c.27,1.08.59,1.67.95,1.76s.88-.42,1.24-1.55a11.62,11.62,0,0,0,.52-3.59,8.32,8.32,0,0,0-.28-2.16C394.1,302.44,393.69,301.92,393.14,301.92Z"/><path class="cls-7" d="M414.09,301a65.29,65.29,0,0,0-2,6.66,23.69,23.69,0,0,0-.89,4v.79c0,.37-.14.58-.39.62a8.5,8.5,0,0,1-1.87-.34c-1.08-.27-1.66-.49-1.73-.67a4.89,4.89,0,0,1-.05-1,26.07,26.07,0,0,1-.93-5.33c-.07.4-.32,1.44-.74,3.13a13.07,13.07,0,0,0-.48,2.44c0,.29,0,.59,0,.87s-.17.64-.41.71l-.29,0a5.83,5.83,0,0,1-1.73-.3c-.75-.23-1.2-.51-1.35-.83a.7.7,0,0,1,0-.37,2,2,0,0,0,0-.58c-.31-1.58-.61-3.15-.91-4.72s-.55-3.3-.72-5c0-.45-.07-.71-.07-.77,0-.58.19-.87.57-.85a5.34,5.34,0,0,1,1.56.45c.78.31,1.2.56,1.24.74a4.05,4.05,0,0,1,0,.92c.08,1.1.31,3,.67,5.82l1.5-7c.11-.51.34-.8.67-.87a4.82,4.82,0,0,1,1.31.52c.76.37,1.14.61,1.14.74a59,59,0,0,0,1,6.65,60.66,60.66,0,0,1,1.71-7.14c.12-.54.41-.78.87-.71a4.71,4.71,0,0,1,1.37.47C413.6,300.33,414,300.64,414.09,301Z"/><path class="cls-7" d="M423.23,310.13a2.41,2.41,0,0,1-.79,1.89,3.3,3.3,0,0,1-2.23.72,3.12,3.12,0,0,1-.76-.1c-.49-.13-.75-.2-.78-.22l-.79-.18a1.5,1.5,0,0,1-.68-.33,5.46,5.46,0,0,1-.94-1.18c-.24-.4-.48-.8-.71-1.22a2.45,2.45,0,0,1-.35-.75c0-.2.14-.35.43-.45a1.52,1.52,0,0,1,.39,0,12.6,12.6,0,0,1,1.64.14,3.13,3.13,0,0,1,1.08.24,5.77,5.77,0,0,1,.24,1.23c.08.65.23,1,.45,1s.5-.44.5-1.33c0-1.12-.3-1.83-.91-2.11a8.92,8.92,0,0,1-2.74-1.72,4.15,4.15,0,0,1-.8-2.78,4.43,4.43,0,0,1,.65-2.3,2.57,2.57,0,0,1,1.54-1.29,7.44,7.44,0,0,1,2.52.81c.13,0,.51.12,1.15.24a1.6,1.6,0,0,1,1,.45,2.65,2.65,0,0,1,.47,1.56c0,.53,0,1.05,0,1.58a7.47,7.47,0,0,1,.15.86.62.62,0,0,1-.59.68,3.48,3.48,0,0,1-1.19-.23,2.71,2.71,0,0,1-1.24-.67,8.86,8.86,0,0,1-.13-1.6q-.06-1.44-.3-1.44c-.22,0-.42.28-.61.84a5.27,5.27,0,0,0-.28,1.73c0,.76.16,1.24.5,1.44l2.11,1.16a4.27,4.27,0,0,1,1.47,1.21A3.89,3.89,0,0,1,423.23,310.13Z"/><path class="cls-7" d="M428.22,310.09a1.71,1.71,0,0,1,.2.86,3.78,3.78,0,0,1-.94,2.39,3.2,3.2,0,0,1-2.47,1.35,3.06,3.06,0,0,1-1.35-.28c-.53-.24-.8-.57-.8-1s.11-.57.33-.47a.61.61,0,0,0,.24,0,2.08,2.08,0,0,0,1.32-.58,1.78,1.78,0,0,0,.78-1.41,1.51,1.51,0,0,0-.07-.41,1.21,1.21,0,0,1-.08-.4.83.83,0,0,1,.52-.88,2.38,2.38,0,0,1,1.22.19A2.13,2.13,0,0,1,428.22,310.09Z"/><path class="cls-7" d="M137.33,339.27c0,.27-.24.64-.72,1.09a8.94,8.94,0,0,1-1,1.82,3.84,3.84,0,0,1-2.45,1.52,4.15,4.15,0,0,1-.59.05,5.92,5.92,0,0,1-3-1.16c-1-.68-1.54-2.26-1.54-4.73a13.73,13.73,0,0,1,.85-5c.62-1.61,1.38-2.45,2.28-2.51a6.29,6.29,0,0,1,2.6.56,4.68,4.68,0,0,1,2.09,1.37,2.74,2.74,0,0,1,.45,1.65c0,.18,0,.45,0,.8a3.94,3.94,0,0,0,0,.74c0,.38,0,.56,0,.53,0,.46-.22.68-.67.67a6,6,0,0,1-1.48-.24,1.65,1.65,0,0,1-1.13-.88c0-.13,0-.3.19-.51a.72.72,0,0,0,.2-.54,3.27,3.27,0,0,0,.05-.74c0-.86-.15-1.3-.46-1.33q-.69,0-1.17,2.07a18.32,18.32,0,0,0-.43,4.11c0,1.76.21,2.68.63,2.78s.76-.28,1.3-1.07A4.8,4.8,0,0,0,134,339l.09-.72a.67.67,0,0,1,.78-.56,5.9,5.9,0,0,1,1.37.49c.65.3,1,.53,1,.68A1.48,1.48,0,0,1,137.33,339.27Z"/><path class="cls-7" d="M149.05,343a.73.73,0,0,1-.26.52.65.65,0,0,1-.54.17c-1.8-.24-2.8-.58-3-1a.33.33,0,0,1,0-.17.36.36,0,0,1,.1-.23.59.59,0,0,0,.11-.23.76.76,0,0,1,.09-.18,3,3,0,0,0,0-.75,4.49,4.49,0,0,0-.78,1,5.59,5.59,0,0,1-.95,1.28,2.27,2.27,0,0,1-1.59.64,1.59,1.59,0,0,1-1-.4,11.9,11.9,0,0,1-.85-.84c-.69-.77-1.07-1.19-1.12-1.26a1.88,1.88,0,0,1-.46-1.13,1.39,1.39,0,0,1,0-.35,6.51,6.51,0,0,1,2.57-3.57,25.07,25.07,0,0,1,4.42-2.59c0-.45-.11-.75-.34-.87s-.66.07-1.52.48a9.47,9.47,0,0,0-1.83,1,4.78,4.78,0,0,1-.56.48.85.85,0,0,1-.67.12,3.9,3.9,0,0,1-1-.77,3.1,3.1,0,0,1-.85-.94.72.72,0,0,1,.37-.9s.3-.1.87-.25l1.6-.86a8,8,0,0,1,2.87-.85,1.68,1.68,0,0,1,1.13.51c.37.33.75.65,1.14,1s.77.63,1.18.93a1.64,1.64,0,0,1,.69,1.16v8.09A2,2,0,0,1,149.05,343Zm-3.47-6.24a4.69,4.69,0,0,0-1.83,1.24l-1.13,1.35a5,5,0,0,0-.85,1.16,2.51,2.51,0,0,0-.4,1.06c0,.12,0,.17.13.17.3,0,1-.64,2-1.93A14.11,14.11,0,0,0,145.58,336.73Z"/><path class="cls-7" d="M157.91,333a1.22,1.22,0,0,1-.26.69.68.68,0,0,1-.52.3.41.41,0,0,1-.16,0,5.42,5.42,0,0,0-1.36-.1v8.45s0,.1.14.34a1.9,1.9,0,0,1,.14.64c0,.42-.29.64-.87.67a5.91,5.91,0,0,1-1.67-.39c-.88-.28-1.36-.55-1.41-.79a1.25,1.25,0,0,1,.15-.63,2.15,2.15,0,0,0,.19-.74V333.8h-.73q-.42,0-1-.72a2,2,0,0,1-.61-1.15.78.78,0,0,1,.25-.57.75.75,0,0,1,.55-.26h1.56v-1.93a1.51,1.51,0,0,1-.32-.92.51.51,0,0,1,.39-.55,2.58,2.58,0,0,1,.54,0,8.78,8.78,0,0,1,1.88.24,4.17,4.17,0,0,1,1.4.5.4.4,0,0,1,.15.3,1.25,1.25,0,0,1-.34.65,1.44,1.44,0,0,0-.37.59v1.16h.69c.14,0,.45.26.91.77S157.91,332.75,157.91,333Z"/><path class="cls-7" d="M168.35,339.27c0,.27-.24.64-.72,1.09a8.94,8.94,0,0,1-1,1.82,3.82,3.82,0,0,1-2.45,1.52,4.15,4.15,0,0,1-.59.05,5.86,5.86,0,0,1-3-1.16q-1.55-1-1.55-4.73a14,14,0,0,1,.85-5c.62-1.61,1.38-2.45,2.28-2.51a6.36,6.36,0,0,1,2.61.56,4.7,4.7,0,0,1,2.08,1.37,2.74,2.74,0,0,1,.46,1.65c0,.18,0,.45,0,.8a5.09,5.09,0,0,0,0,.74c0,.38,0,.56,0,.53,0,.46-.22.68-.67.67a6,6,0,0,1-1.48-.24,1.63,1.63,0,0,1-1.12-.88q-.08-.19.18-.51a.73.73,0,0,0,.21-.54,4.51,4.51,0,0,0,0-.74c0-.86-.15-1.3-.46-1.33q-.69,0-1.17,2.07a18.32,18.32,0,0,0-.43,4.11c0,1.76.21,2.68.63,2.78s.76-.28,1.3-1.07A4.8,4.8,0,0,0,165,339l.09-.72a.69.69,0,0,1,.79-.56,5.87,5.87,0,0,1,1.36.49c.65.3,1,.53,1,.68A1.48,1.48,0,0,1,168.35,339.27Z"/><path class="cls-7" d="M179.85,343a1,1,0,0,1-.47.8,1.72,1.72,0,0,1-.55.06,8.25,8.25,0,0,1-1.75-.22,3.12,3.12,0,0,1-1.24-.44.39.39,0,0,1-.09-.26,2.19,2.19,0,0,1,.2-.64c.08-.12.18-.24.28-.38a.84.84,0,0,0,.15-.52q0-8.43-.13-8.49c-.22-.08-.72.45-1.5,1.56a5.5,5.5,0,0,0-1.26,2.84V342a.9.9,0,0,1,.24.9,1.14,1.14,0,0,1-.69.9.62.62,0,0,1-.26,0,8.61,8.61,0,0,1-1.72-.26,3.82,3.82,0,0,1-1.23-.4.76.76,0,0,1-.05-.79.87.87,0,0,1,.21-.23.43.43,0,0,0,.18-.31V326.76a.94.94,0,0,0-.17-.45.57.57,0,0,1-.11-.47.83.83,0,0,1,.67-.58,4.6,4.6,0,0,1,1.63.23c.93.23,1.43.47,1.52.71a1.15,1.15,0,0,1-.06.71,3.51,3.51,0,0,0-.16,1.15v4a3.28,3.28,0,0,1,2.35-1.52,5.08,5.08,0,0,1,1.91.51c.78.33,1.23.64,1.34.91q.61,1.37.61,10.12A1.51,1.51,0,0,1,179.85,343Z"/><path class="cls-7" d="M194.07,333a1.15,1.15,0,0,1-.26.69.67.67,0,0,1-.52.3.33.33,0,0,1-.15,0,5.46,5.46,0,0,0-1.37-.1v8.45a2,2,0,0,1,.14.34,1.69,1.69,0,0,1,.14.64c0,.42-.28.64-.86.67a6,6,0,0,1-1.68-.39c-.88-.28-1.35-.55-1.41-.79a1.3,1.3,0,0,1,.16-.63,2.15,2.15,0,0,0,.19-.74V333.8h-.74q-.41,0-1-.72a2.1,2.1,0,0,1-.61-1.15.82.82,0,0,1,.25-.57.79.79,0,0,1,.56-.26h1.56v-1.93a1.45,1.45,0,0,1-.32-.92.51.51,0,0,1,.39-.55,2.58,2.58,0,0,1,.54,0,8.86,8.86,0,0,1,1.88.24,4.26,4.26,0,0,1,1.4.5.4.4,0,0,1,.15.3,1.29,1.29,0,0,1-.35.65,1.72,1.72,0,0,0-.37.59v1.16h.7c.14,0,.45.26.91.77S194.07,332.75,194.07,333Z"/><path class="cls-7" d="M205.54,343a1,1,0,0,1-.48.8,1.65,1.65,0,0,1-.54.06,8.26,8.26,0,0,1-1.76-.22,3.12,3.12,0,0,1-1.24-.44.39.39,0,0,1-.09-.26,2.19,2.19,0,0,1,.2-.64c.08-.12.18-.24.28-.38a.84.84,0,0,0,.15-.52q0-8.43-.13-8.49c-.22-.08-.71.45-1.5,1.56a5.46,5.46,0,0,0-1.25,2.84V342a.92.92,0,0,1,.23.9,1.13,1.13,0,0,1-.69.9.62.62,0,0,1-.26,0,8.71,8.71,0,0,1-1.72-.26,3.82,3.82,0,0,1-1.23-.4.76.76,0,0,1,0-.79,1.12,1.12,0,0,1,.21-.23.43.43,0,0,0,.18-.31V326.76a.85.85,0,0,0-.17-.45.57.57,0,0,1-.11-.47.83.83,0,0,1,.67-.58,4.58,4.58,0,0,1,1.63.23c.93.23,1.44.47,1.52.71a1.15,1.15,0,0,1-.06.71,3.82,3.82,0,0,0-.15,1.15v4a3.26,3.26,0,0,1,2.34-1.52,5.08,5.08,0,0,1,1.91.51c.78.33,1.23.64,1.35.91q.6,1.37.6,10.12A1.61,1.61,0,0,1,205.54,343Z"/><path class="cls-7" d="M216.15,339.7c.13.22-.15.85-.85,1.91a6.89,6.89,0,0,1-2.21,2.28.82.82,0,0,1-.39.07,6.71,6.71,0,0,1-2.21-.51,4.2,4.2,0,0,1-1.91-1.12,7,7,0,0,1-1.26-4.45,9.94,9.94,0,0,1,1.1-4.75c.8-1.5,1.81-2.26,3-2.29a4.31,4.31,0,0,1,1.63.35,5.23,5.23,0,0,1,1.93,1.22,2.52,2.52,0,0,1,.37,1.15,9.44,9.44,0,0,1,.22,2,3.14,3.14,0,0,1-.48,2,17.33,17.33,0,0,1-4.56.8,7.5,7.5,0,0,0,.26,2.2q.31,1.16.63,1.17c.29,0,.64-.22,1-.7a3,3,0,0,0,.68-1.05,11.12,11.12,0,0,1,.41-1.33A3.9,3.9,0,0,1,215,339,2.46,2.46,0,0,1,216.15,339.7Zm-3.86-6.55c-.25,0-.59.36-1,1.16a5.8,5.8,0,0,0-.77,2.29,2.86,2.86,0,0,0,1.56-.47c.23-.17.35-.89.35-2.14C212.4,333.46,212.36,333.18,212.29,333.15Z"/><path class="cls-7" d="M233.76,342.08a2.14,2.14,0,0,1,.17.81.89.89,0,0,1-.5.88,1.65,1.65,0,0,1-.54.06,8.33,8.33,0,0,1-1.76-.22,3.19,3.19,0,0,1-1.24-.44.45.45,0,0,1-.11-.28,1.74,1.74,0,0,1,.33-.76,1.74,1.74,0,0,0,.33-.76,84.55,84.55,0,0,0-.13-8.49c-.24-.08-.71.49-1.42,1.69a7,7,0,0,0-1.17,3.42v4.19a2.89,2.89,0,0,1,.15.77.88.88,0,0,1-.56.82,1.65,1.65,0,0,1-.54.06,8.26,8.26,0,0,1-1.76-.22,3.19,3.19,0,0,1-1.24-.44.29.29,0,0,1-.09-.22,2.06,2.06,0,0,1,.32-.77,1.93,1.93,0,0,0,.31-.81q0-8.43-.13-8.49c-.2-.08-.7.57-1.49,1.92a7.37,7.37,0,0,0-1.26,3.23v4a1,1,0,0,1,.28.69,1.11,1.11,0,0,1-.74,1.11.59.59,0,0,1-.26,0,8.53,8.53,0,0,1-1.71-.26,3.27,3.27,0,0,1-1.26-.44.63.63,0,0,1-.13-.39.85.85,0,0,1,.25-.51,1,1,0,0,0,.24-.39v-9.95a.85.85,0,0,0-.17-.44.62.62,0,0,1-.11-.48.82.82,0,0,1,.68-.57,4.55,4.55,0,0,1,1.62.23c.93.23,1.44.47,1.52.71a1.12,1.12,0,0,1-.06.7,5.89,5.89,0,0,0-.24.86,1.61,1.61,0,0,0,.09.51,6.55,6.55,0,0,1,.91-1.9c.48-.67.95-1,1.43-1a5,5,0,0,1,1.89.54A3.72,3.72,0,0,1,227,332a4.93,4.93,0,0,1,.43,1.54c.59-1.09.94-1.71,1-1.87.49-.72,1-1.09,1.41-1.09a5.08,5.08,0,0,1,1.91.51c.78.33,1.23.64,1.35.91C233.55,332.87,233.76,336.24,233.76,342.08Z"/><path class="cls-7" d="M250.52,343a.77.77,0,0,1-.26.52.66.66,0,0,1-.55.17c-1.79-.24-2.79-.58-3-1a.34.34,0,0,1-.05-.17.42.42,0,0,1,.1-.23.51.51,0,0,0,.12-.23.51.51,0,0,1,.09-.18,3.66,3.66,0,0,0,0-.75,4.49,4.49,0,0,0-.78,1,5.29,5.29,0,0,1-1,1.28,2.25,2.25,0,0,1-1.58.64,1.59,1.59,0,0,1-1-.4,11.9,11.9,0,0,1-.85-.84l-1.13-1.26a1.93,1.93,0,0,1-.45-1.13,1.39,1.39,0,0,1,0-.35,6.48,6.48,0,0,1,2.56-3.57,25.22,25.22,0,0,1,4.43-2.59c0-.45-.12-.75-.35-.87s-.65.07-1.52.48a9.32,9.32,0,0,0-1.82,1,5.09,5.09,0,0,1-.57.48.84.84,0,0,1-.67.12,3.9,3.9,0,0,1-1-.77,3.16,3.16,0,0,1-.84-.94.71.71,0,0,1,.36-.9s.31-.1.87-.25l1.61-.86a8,8,0,0,1,2.86-.85,1.66,1.66,0,0,1,1.13.51l1.14,1c.39.32.78.63,1.19.93a1.64,1.64,0,0,1,.69,1.16v8.09A2,2,0,0,1,250.52,343ZM247,336.73a4.66,4.66,0,0,0-1.82,1.24l-1.13,1.35a5.3,5.3,0,0,0-.86,1.16,2.51,2.51,0,0,0-.4,1.06c0,.12,0,.17.13.17.31,0,1-.64,2-1.93A13.39,13.39,0,0,0,247,336.73Z"/><path class="cls-7" d="M262.5,342.08a2,2,0,0,1,.17.81.87.87,0,0,1-.5.88,1.65,1.65,0,0,1-.54.06,8.33,8.33,0,0,1-1.76-.22,3.05,3.05,0,0,1-1.23-.44.4.4,0,0,1-.11-.28,1.81,1.81,0,0,1,.32-.76,1.74,1.74,0,0,0,.33-.76,80.81,80.81,0,0,0-.13-8.49c-.21-.08-.7.57-1.5,1.92a7.37,7.37,0,0,0-1.26,3.23v4a.94.94,0,0,1,.28.69,1.09,1.09,0,0,1-.74,1.11.56.56,0,0,1-.26,0,8.53,8.53,0,0,1-1.71-.26,3.44,3.44,0,0,1-1.26-.44.63.63,0,0,1-.13-.39.85.85,0,0,1,.25-.51c.17-.2.25-.33.25-.39v-9.95a1,1,0,0,0-.17-.44.55.55,0,0,1-.11-.48.8.8,0,0,1,.67-.57,4.62,4.62,0,0,1,1.63.23c.92.23,1.43.47,1.52.71a1.14,1.14,0,0,1-.07.7,5.89,5.89,0,0,0-.24.86,1.61,1.61,0,0,0,.09.51,6.82,6.82,0,0,1,.91-1.9c.48-.67,1-1,1.44-1a5.13,5.13,0,0,1,1.91.51c.78.33,1.23.64,1.34.91Q262.51,333.33,262.5,342.08Z"/><path class="cls-7" d="M274.63,327a2,2,0,0,1-.16.84,4.18,4.18,0,0,0-.2.7v14a2.19,2.19,0,0,0,.1.88c.22.37.29.62.2.75s-.26.17-.57.17a8.78,8.78,0,0,1-1.51-.19l-1.22-.24a.68.68,0,0,1-.56-.51.7.7,0,0,1,0-.28,21,21,0,0,1,.24-2.61c-.34.68-.69,1.37-1,2.05-.48.85-.9,1.23-1.28,1.16a4.79,4.79,0,0,1-4.28-5.18,10.58,10.58,0,0,1,1.37-5,7,7,0,0,1,2.91-3.2.84.84,0,0,1,.41-.11c.37,0,1,.44,1.89,1.33v-4.16a3.29,3.29,0,0,0-.19-.61,1.94,1.94,0,0,1-.18-.65c0-.3.21-.45.61-.45a6,6,0,0,1,1.56.3l1.28.41A.77.77,0,0,1,274.63,327Zm-3.77,5.52a5.06,5.06,0,0,0-2.21,2.36,7.23,7.23,0,0,0-1,3.38c0,1.21.47,1.87,1.43,2C269.6,340.29,270.19,337.72,270.86,332.51Z"/><path class="cls-7" d="M292.72,331.87a1.1,1.1,0,0,1-.28,1.07,2.86,2.86,0,0,0-.48.68l-4.32,12.26-.09.86c-.06.46-.2.71-.43.77l-.24,0a4.45,4.45,0,0,1-1.46-.31,3.7,3.7,0,0,1-1.2-.62.88.88,0,0,1-.34-.65,1.54,1.54,0,0,1,.31-.78,4.64,4.64,0,0,0,.34-.61l.72-2.42-3.52-8.52a3.14,3.14,0,0,0-.39-.42,1.49,1.49,0,0,1-.37-.86c0-.17.35-.47,1.14-.91a4.33,4.33,0,0,1,1.86-.65.55.55,0,0,1,.28.06,1.19,1.19,0,0,1,.52.73c.08.31.15.62.24.92l1.91,5.2,2-5.35c.09-.28.18-.57.28-.85a.82.82,0,0,1,.46-.54,1.65,1.65,0,0,1,.48-.06,4.47,4.47,0,0,1,1.58.33C292.34,331.44,292.66,331.66,292.72,331.87Z"/><path class="cls-7" d="M300.66,331.19a3.84,3.84,0,0,1,1.85,2.24,10.25,10.25,0,0,1,.59,3.64,11.75,11.75,0,0,1-1,5c-.74,1.51-1.66,2.19-2.76,2.05-.41-.1-1-.22-1.82-.36a10.91,10.91,0,0,1-1.61-.32,3.2,3.2,0,0,1-2-2.08,9.86,9.86,0,0,1-.67-3.81,10.87,10.87,0,0,1,.7-4,5.21,5.21,0,0,1,2.19-2.76,1.31,1.31,0,0,1,.65-.13,10.78,10.78,0,0,1,1.71.28A12.59,12.59,0,0,1,300.66,331.19Zm-2.43,1.92c-.39,0-.75.47-1.08,1.4a7.85,7.85,0,0,0-.5,2.69,12.52,12.52,0,0,0,.37,3c.27,1.08.59,1.67,1,1.75s.88-.41,1.24-1.54a11.62,11.62,0,0,0,.52-3.59,8.45,8.45,0,0,0-.28-2.17C299.19,333.64,298.78,333.11,298.23,333.11Z"/><path class="cls-7" d="M314.86,331.23a.72.72,0,0,1,.15.43.85.85,0,0,1-.25.51,1.19,1.19,0,0,0-.25.38v9.95a1.41,1.41,0,0,0,.14.45,1.33,1.33,0,0,1,.15.47c0,.26-.23.45-.68.56a4.62,4.62,0,0,1-1.63-.23c-.92-.23-1.43-.46-1.51-.69a1,1,0,0,1,.06-.75,2.5,2.5,0,0,0,.22-.77,2.57,2.57,0,0,0-.07-.55,6.55,6.55,0,0,1-.91,1.9,1.94,1.94,0,0,1-1.43,1,5.14,5.14,0,0,1-1.91-.49q-1.17-.5-1.35-.9c-.4-.91-.61-4.28-.61-10.12a2.14,2.14,0,0,1-.17-.81.91.91,0,0,1,.5-.9,1.65,1.65,0,0,1,.54-.06,8.33,8.33,0,0,1,1.76.22,2.82,2.82,0,0,1,1.24.46.45.45,0,0,1,.11.28,1.74,1.74,0,0,1-.33.76,1.69,1.69,0,0,0-.32.76q0,8.43.13,8.49t1.53-2a7.26,7.26,0,0,0,1.22-3.17v-4a.94.94,0,0,1-.28-.69,1.12,1.12,0,0,1,.74-1.13.57.57,0,0,1,.26,0,8,8,0,0,1,1.71.27A3.37,3.37,0,0,1,314.86,331.23Z"/><path class="cls-7" d="M325.3,326.8a1.14,1.14,0,0,1-.1.41c-.06.17-.1.27-.11.32a9.16,9.16,0,0,0-.27,1.32V342a.81.81,0,0,0,.14.46.78.78,0,0,1,.13.33c0,.91-.18,1.41-.53,1.48a5.16,5.16,0,0,1-1.37-.29,5.78,5.78,0,0,1-1.43-.52,1.14,1.14,0,0,1-.47-.75.32.32,0,0,1,.08-.2.56.56,0,0,0,.09-.36V327.06a.47.47,0,0,0-.08-.27.54.54,0,0,1-.07-.27c0-.34.29-.57.8-.68a4.31,4.31,0,0,1,.91,0,7.05,7.05,0,0,1,1.39.23C325,326.24,325.3,326.49,325.3,326.8Z"/><path class="cls-7" d="M334.23,331.19a3.83,3.83,0,0,1,1.84,2.24,10.25,10.25,0,0,1,.59,3.64,11.75,11.75,0,0,1-1,5c-.74,1.51-1.66,2.19-2.76,2.05-.4-.1-1-.22-1.82-.36a10.91,10.91,0,0,1-1.61-.32,3.19,3.19,0,0,1-2-2.08,9.86,9.86,0,0,1-.68-3.81,10.87,10.87,0,0,1,.7-4,5.21,5.21,0,0,1,2.19-2.76,1.34,1.34,0,0,1,.65-.13,11,11,0,0,1,1.72.28A12.69,12.69,0,0,1,334.23,331.19Zm-2.44,1.92c-.39,0-.75.47-1.08,1.4a8.1,8.1,0,0,0-.5,2.69,12.52,12.52,0,0,0,.37,3c.27,1.08.59,1.67.95,1.75s.88-.41,1.24-1.54a11.62,11.62,0,0,0,.52-3.59,8.45,8.45,0,0,0-.28-2.17C332.75,333.64,332.34,333.11,331.79,333.11Z"/><path class="cls-7" d="M345.88,331.19a3.84,3.84,0,0,1,1.85,2.24,10.26,10.26,0,0,1,.58,3.64,11.75,11.75,0,0,1-1,5c-.74,1.51-1.66,2.19-2.76,2.05-.41-.1-1-.22-1.83-.36a11,11,0,0,1-1.6-.32,3.2,3.2,0,0,1-2-2.08,9.86,9.86,0,0,1-.67-3.81,11.08,11.08,0,0,1,.69-4,5.27,5.27,0,0,1,2.2-2.76,1.31,1.31,0,0,1,.65-.13,10.78,10.78,0,0,1,1.71.28A12.59,12.59,0,0,1,345.88,331.19Zm-2.43,1.92c-.39,0-.75.47-1.08,1.4a7.85,7.85,0,0,0-.5,2.69,12.52,12.52,0,0,0,.37,3c.27,1.08.59,1.67.95,1.75s.88-.41,1.24-1.54a11.62,11.62,0,0,0,.52-3.59,8.91,8.91,0,0,0-.28-2.17C344.41,333.64,344,333.11,343.45,333.11Z"/><path class="cls-7" d="M357.93,341.33a2.39,2.39,0,0,1-.79,1.88,3.35,3.35,0,0,1-2.23.73,3.17,3.17,0,0,1-.76-.11l-.78-.21-.79-.19a1.5,1.5,0,0,1-.68-.33,5.15,5.15,0,0,1-.94-1.17c-.24-.4-.48-.81-.71-1.22a2.69,2.69,0,0,1-.35-.75c0-.2.14-.35.43-.45a1.17,1.17,0,0,1,.39,0,12.35,12.35,0,0,1,1.64.13,3.77,3.77,0,0,1,1.08.24,5.77,5.77,0,0,1,.24,1.23c.08.66.23,1,.45,1s.5-.44.5-1.32c0-1.13-.3-1.83-.91-2.12A8.75,8.75,0,0,1,351,336.9a4.15,4.15,0,0,1-.8-2.78,4.4,4.4,0,0,1,.65-2.3,2.62,2.62,0,0,1,1.54-1.3,7.87,7.87,0,0,1,2.52.82c.13,0,.51.12,1.15.23a1.72,1.72,0,0,1,1,.45,2.77,2.77,0,0,1,.48,1.56c0,.53,0,1.06,0,1.59a7.49,7.49,0,0,1,.15.85.63.63,0,0,1-.59.69,3.58,3.58,0,0,1-1.19-.24,2.62,2.62,0,0,1-1.24-.66,9.06,9.06,0,0,1-.13-1.61c0-.95-.14-1.43-.3-1.43s-.42.28-.61.83a5.37,5.37,0,0,0-.28,1.74c0,.75.16,1.23.5,1.43.71.39,1.41.77,2.11,1.17a4.26,4.26,0,0,1,1.47,1.2A4,4,0,0,1,357.93,341.33Z"/><path class="cls-7" d="M368.35,339.7c.13.22-.15.85-.85,1.91a6.89,6.89,0,0,1-2.21,2.28.82.82,0,0,1-.39.07,6.66,6.66,0,0,1-2.21-.51,4.31,4.31,0,0,1-1.92-1.12,7.09,7.09,0,0,1-1.25-4.45,9.83,9.83,0,0,1,1.1-4.75c.8-1.5,1.81-2.26,3-2.29a4.31,4.31,0,0,1,1.63.35,5.23,5.23,0,0,1,1.93,1.22,2.52,2.52,0,0,1,.37,1.15,9.44,9.44,0,0,1,.22,2,3.14,3.14,0,0,1-.48,2,17.33,17.33,0,0,1-4.56.8,7.5,7.5,0,0,0,.26,2.2q.3,1.16.63,1.17c.29,0,.64-.22,1-.7a3.19,3.19,0,0,0,.68-1.05,11.12,11.12,0,0,1,.41-1.33,3.9,3.9,0,0,1,1.37.35A2.51,2.51,0,0,1,368.35,339.7Zm-3.86-6.55c-.25,0-.59.36-1,1.16a5.8,5.8,0,0,0-.77,2.29,2.86,2.86,0,0,0,1.56-.47c.23-.17.35-.89.35-2.14C364.6,333.46,364.56,333.18,364.49,333.15Z"/><path class="cls-7" d="M384.78,343a.73.73,0,0,1-.26.52.65.65,0,0,1-.54.17c-1.79-.24-2.79-.58-3-1a.47.47,0,0,1,0-.17.36.36,0,0,1,.1-.23.85.85,0,0,0,.12-.23.38.38,0,0,1,.09-.18,4.63,4.63,0,0,0,0-.75,4,4,0,0,0-.78,1,5.57,5.57,0,0,1-1,1.28A2.25,2.25,0,0,1,378,344a1.59,1.59,0,0,1-1-.4,10.05,10.05,0,0,1-.85-.84c-.7-.77-1.07-1.19-1.13-1.26a2,2,0,0,1-.46-1.13,1.41,1.41,0,0,1,.05-.35,6.48,6.48,0,0,1,2.56-3.57,25.22,25.22,0,0,1,4.43-2.59c0-.45-.12-.75-.35-.87s-.65.07-1.52.48a9.32,9.32,0,0,0-1.82,1,6.23,6.23,0,0,1-.57.48.84.84,0,0,1-.67.12,3.9,3.9,0,0,1-1-.77,3.44,3.44,0,0,1-.85-.94.73.73,0,0,1,.37-.9s.31-.1.87-.25l1.61-.86a8,8,0,0,1,2.86-.85,1.68,1.68,0,0,1,1.13.51l1.14,1c.38.32.78.63,1.18.93a1.62,1.62,0,0,1,.7,1.16v8.09A2,2,0,0,1,384.78,343Zm-3.47-6.24a4.58,4.58,0,0,0-1.82,1.24l-1.13,1.35a5,5,0,0,0-.86,1.16,2.51,2.51,0,0,0-.4,1.06c0,.12,0,.17.13.17.3,0,1-.64,2-1.93A13.39,13.39,0,0,0,381.31,336.73Z"/><path class="cls-7" d="M401.13,343a1,1,0,0,1-.48.8,1.65,1.65,0,0,1-.54.06,8.33,8.33,0,0,1-1.76-.22,3.05,3.05,0,0,1-1.23-.44.39.39,0,0,1-.09-.26,2.06,2.06,0,0,1,.19-.64l.29-.38a.84.84,0,0,0,.15-.52,80.81,80.81,0,0,0-.13-8.49c-.22-.08-.72.45-1.5,1.56a5.5,5.5,0,0,0-1.26,2.84V342a1,1,0,0,1,.24.9,1.16,1.16,0,0,1-.7.9.56.56,0,0,1-.26,0,8.53,8.53,0,0,1-1.71-.26,3.93,3.93,0,0,1-1.24-.4.76.76,0,0,1,0-.79.71.71,0,0,1,.21-.23.43.43,0,0,0,.18-.31V326.76a.94.94,0,0,0-.17-.45.53.53,0,0,1-.11-.47.81.81,0,0,1,.67-.58,4.62,4.62,0,0,1,1.63.23c.92.23,1.43.47,1.52.71a1.17,1.17,0,0,1-.07.71,3.82,3.82,0,0,0-.15,1.15v4a3.26,3.26,0,0,1,2.35-1.52,5.13,5.13,0,0,1,1.91.51c.78.33,1.23.64,1.34.91q.61,1.37.61,10.12A1.59,1.59,0,0,1,401.13,343Z"/><path class="cls-7" d="M411.75,339.7c.13.22-.16.85-.85,1.91a6.89,6.89,0,0,1-2.21,2.28.84.84,0,0,1-.4.07,6.71,6.71,0,0,1-2.21-.51,4.2,4.2,0,0,1-1.91-1.12,7,7,0,0,1-1.26-4.45,9.83,9.83,0,0,1,1.11-4.75c.79-1.5,1.81-2.26,3-2.29a4.31,4.31,0,0,1,1.63.35,5.32,5.32,0,0,1,1.93,1.22,2.65,2.65,0,0,1,.37,1.15,10.1,10.1,0,0,1,.21,2,3.21,3.21,0,0,1-.47,2,17.4,17.4,0,0,1-4.56.8,7.5,7.5,0,0,0,.26,2.2q.3,1.16.63,1.17c.29,0,.63-.22,1-.7a3,3,0,0,0,.67-1.05,11.12,11.12,0,0,1,.41-1.33,3.86,3.86,0,0,1,1.37.35A2.57,2.57,0,0,1,411.75,339.7Zm-3.87-6.55c-.24,0-.59.36-1,1.16a6,6,0,0,0-.77,2.29,2.86,2.86,0,0,0,1.56-.47c.23-.17.35-.89.35-2.14C408,333.46,408,333.18,407.88,333.15Z"/><path class="cls-7" d="M423.67,343a.78.78,0,0,1-.27.52.64.64,0,0,1-.54.17c-1.79-.24-2.79-.58-3-1a.34.34,0,0,1-.05-.17.36.36,0,0,1,.1-.23A.64.64,0,0,0,420,342a.38.38,0,0,1,.09-.18,3.66,3.66,0,0,0,0-.75,4.21,4.21,0,0,0-.78,1,5.29,5.29,0,0,1-1,1.28,2.25,2.25,0,0,1-1.58.64,1.59,1.59,0,0,1-1-.4,10.05,10.05,0,0,1-.85-.84l-1.13-1.26a1.93,1.93,0,0,1-.45-1.13,1.39,1.39,0,0,1,0-.35,6.48,6.48,0,0,1,2.56-3.57,25.22,25.22,0,0,1,4.43-2.59c0-.45-.12-.75-.35-.87s-.65.07-1.52.48a9.32,9.32,0,0,0-1.82,1,6.23,6.23,0,0,1-.57.48.84.84,0,0,1-.67.12,3.9,3.9,0,0,1-1-.77,3.44,3.44,0,0,1-.85-.94.73.73,0,0,1,.37-.9s.31-.1.87-.25l1.61-.86a8,8,0,0,1,2.86-.85,1.66,1.66,0,0,1,1.13.51l1.14,1c.39.32.78.63,1.18.93a1.62,1.62,0,0,1,.7,1.16v8.09A2.29,2.29,0,0,1,423.67,343Zm-3.48-6.24a4.58,4.58,0,0,0-1.82,1.24l-1.13,1.35a5.3,5.3,0,0,0-.86,1.16,2.51,2.51,0,0,0-.4,1.06c0,.12,0,.17.13.17.3,0,1-.64,2-1.93A13.39,13.39,0,0,0,420.19,336.73Z"/><path class="cls-7" d="M433.85,332.11a.49.49,0,0,1-.24.55c-.18.09-.34.18-.5.28q-1.37,2.06-3.71,5.54c0,2.27,0,3.44,0,3.51s.07.25.16.55a2.53,2.53,0,0,1,.14.69.55.55,0,0,1-.37.56,1.64,1.64,0,0,1-.65.1,5.38,5.38,0,0,1-1.82-.36c-.84-.28-1.26-.65-1.26-1.09a2,2,0,0,1,.17-.62,1.93,1.93,0,0,0,.18-.71v-8.47c-.16-.8-.24-1.21-.24-1.24a.77.77,0,0,1,.6-.83,2.38,2.38,0,0,1,.63-.07,5.48,5.48,0,0,1,1.6.25c.56.16.89.34,1,.52a.48.48,0,0,1,0,.22,8,8,0,0,1-.3,1v1l1-1.84c.45-.77.78-1.18,1-1.22a2.34,2.34,0,0,1,1.45.56C433.41,331.46,433.77,331.82,433.85,332.11Z"/><path class="cls-7" d="M443.05,333a1.15,1.15,0,0,1-.26.69.67.67,0,0,1-.52.3.33.33,0,0,1-.15,0,5.51,5.51,0,0,0-1.37-.1v8.45a2,2,0,0,1,.14.34,1.9,1.9,0,0,1,.14.64c0,.42-.29.64-.87.67a5.91,5.91,0,0,1-1.67-.39c-.88-.28-1.35-.55-1.41-.79a1.25,1.25,0,0,1,.15-.63,2.22,2.22,0,0,0,.2-.74V333.8h-.74q-.42,0-1-.72a2,2,0,0,1-.61-1.15.82.82,0,0,1,.25-.57.77.77,0,0,1,.55-.26h1.57v-1.93a1.46,1.46,0,0,1-.33-.92.51.51,0,0,1,.39-.55,2.62,2.62,0,0,1,.55,0,8.7,8.7,0,0,1,1.87.24,4.08,4.08,0,0,1,1.4.5.41.41,0,0,1,.16.3,1.29,1.29,0,0,1-.35.65,1.57,1.57,0,0,0-.37.59v1.16h.69c.15,0,.45.26.92.77S443.05,332.75,443.05,333Z"/><path class="cls-7" d="M453.12,337.13c0,.53-.16.82-.41.88a.78.78,0,0,1-.22,0,3.63,3.63,0,0,1-1.58-.49,5.17,5.17,0,0,1-1.56-1.18q-.27-.27,0-1l.26-.77v-8.09a.79.79,0,0,1,.65-.77,1.18,1.18,0,0,1,.37,0,4.6,4.6,0,0,1,1.39.25,1.85,1.85,0,0,1,1,.56,6,6,0,0,1,.05,1.15v8.73a2.21,2.21,0,0,0,0,.38A2.13,2.13,0,0,1,453.12,337.13Zm0,3.11a3.25,3.25,0,0,1,0,1c-.06.75-.08,1.2-.08,1.37A7.51,7.51,0,0,1,453,344a.65.65,0,0,1-.54.56,4,4,0,0,1-1.5-.43,3.82,3.82,0,0,1-1.56-.92c-.11-.16-.07-.41.1-.77a1.92,1.92,0,0,0,.16-.79,17,17,0,0,1,0-1.8c.05-.51.27-.76.65-.75a6.19,6.19,0,0,1,1.69.48C452.67,339.85,453.06,340.08,453.12,340.24Z"/></g></g></g></svg>