<svg id="Layer_1" data-name="Layer 1" xmlns="http://www.w3.org/2000/svg" width="200" height="495" viewBox="0 0 200 495"><defs><style>.cls-1{fill:#10735a;}.cls-2{fill:#e1ab85;}.cls-3{fill:#a67c52;}.cls-4{fill:#b9121b;}.cls-5{fill:#4c1b1b;}.cls-6{fill:#8c6239;}.cls-7{fill:#ff836a;}.cls-8{fill:#be393a;}.cls-9{fill:#4d4d4d;}.cls-10{fill:#b88d1e;}.cls-11{fill:#8c8c80;}.cls-12{fill:#104639;}</style></defs><path class="cls-1" d="M100.62,343.79,81.77,465.47C61,446.43,47.15,397.8,47.15,343.79c0-71.33,24.14-130,53.47-130s53.46,58.69,53.46,130c0,52-12.81,99.16-32.46,119.57Z"/><path d="M195,130c-4.19,8-27.77-13.63-35.41-8.77s7.56,28.73-.07,33.59-22.83-19-30.47-14.16,1.85,35.49-7.19,35.79-1.63-30.89-9.56-35.22-21.5,20.5-29.43,16.17,5.64-29.17-2.29-33.5-30,18.82-34.74,11.1,25.94-17,25.64-26.19-28.58-8.28-28.87-17.47,28-10.1,27.69-19.3S38.75,55.75,43,47.6s27.77,13.63,35.41,8.77-7.56-28.73.08-33.59,22.82,19,30.46,14.16-1.85-35.49,7.2-35.8S117.77,32,125.7,36.37s21.5-20.5,29.43-16.17-5.64,29.17,2.29,33.5,30-18.82,34.74-11.1-25.94,17-25.64,26.19,28.58,8.28,28.87,17.47-30.33,17.09-26.14,25.28C176,124.68,199.24,121.88,195,130Z"/><path d="M156.9,130c-4.19,8-27.77-13.64-35.41-8.78s7.56,28.73-.07,33.59-22.83-19-30.47-14.16,1.85,35.49-7.19,35.8-1.63-30.89-9.56-35.23-21.5,20.5-29.43,16.17,5.64-29.17-2.29-33.5-30,18.82-34.74,11.1,25.94-17,25.64-26.19S4.8,100.48,4.51,91.29,32.49,81.19,32.2,72,.67,55.67,4.92,47.52s27.77,13.63,35.41,8.77-7.56-28.73.08-33.59,22.82,19,30.46,14.16S69,1.37,78.07,1.07,79.69,32,87.62,36.29s21.5-20.5,29.43-16.16-5.64,29.16,2.29,33.5,30-18.83,34.74-11.11-25.94,17-25.64,26.19S157,77,157.32,86.18s-30.34,17.1-26.15,25.28C137.89,124.6,161.16,121.8,156.9,130Z"/><ellipse class="cls-2" cx="168.08" cy="196.48" rx="32.54" ry="8.13" transform="translate(-89.9 213.84) rotate(-53.3)"/><ellipse class="cls-2" cx="100.55" cy="121.23" rx="69.67" ry="70.7"/><ellipse class="cls-3" cx="76.85" cy="461.69" rx="7.57" ry="22.34"/><ellipse class="cls-3" cx="125.69" cy="459.65" rx="6.45" ry="18.84"/><rect class="cls-4" x="120.67" y="469.46" width="10.01" height="16.3" rx="2.6"/><rect class="cls-5" x="120.53" y="476.9" width="20.71" height="10.39" rx="2.6"/><rect class="cls-4" x="70.78" y="471.94" width="11.64" height="20.68" rx="2.6"/><rect class="cls-5" x="59.57" y="481.86" width="23.71" height="12.07" rx="2.6"/><ellipse class="cls-6" cx="88.98" cy="117.11" rx="6.14" ry="8.76"/><ellipse class="cls-6" cx="124.39" cy="117.4" rx="6.71" ry="9.93"/><path class="cls-7" d="M110.75,162.83l-22.46,7.41c0-.86,9.86-4.83,22-8.86,10.73-3.55,20.19-6.14,22.43-6.13Z"/><ellipse class="cls-8" cx="103.55" cy="218.44" rx="41.46" ry="26.57"/><path class="cls-9" d="M77.83,237.05a4.31,4.31,0,1,0,8.61,0V200.12a4.31,4.31,0,0,0-8.61,0Z"/><ellipse class="cls-8" cx="150.15" cy="214.6" rx="19.78" ry="10.65" transform="translate(-89.11 108.05) rotate(-31.02)"/><path class="cls-9" d="M118.66,238.65a3.88,3.88,0,1,0,7.75,0V198.82a3.88,3.88,0,1,0-7.75,0Z"/><ellipse cx="100.69" cy="67.18" rx="61.1" ry="26.72"/><ellipse cx="52.14" cy="83.5" rx="30.85" ry="12.67" transform="translate(-45.99 75.69) rotate(-53.47)"/><ellipse cx="151.76" cy="86.67" rx="8.68" ry="30.85" transform="translate(-21.72 107.79) rotate(-36.67)"/><ellipse class="cls-10" cx="122.68" cy="236.98" rx="3.71" ry="3.8"/><ellipse class="cls-11" cx="122.68" cy="237.28" rx="0.86" ry="0.88"/><ellipse class="cls-10" cx="82.13" cy="235.67" rx="3.43" ry="3.36"/><ellipse class="cls-11" cx="82.13" cy="236.25" rx="0.57" ry="0.73"/><path class="cls-12" d="M71.45,283.45l15,.59c-.13,20.74-6.87,37.63-15,37.63s-15-17.25-15-38.22Z"/><ellipse class="cls-2" cx="180.93" cy="160.17" rx="5.05" ry="19.87" transform="translate(-39.72 61.66) rotate(-17.46)"/><ellipse class="cls-2" cx="173.16" cy="135.96" rx="8.56" ry="8.75"/><ellipse class="cls-2" cx="44.86" cy="260.04" rx="40.95" ry="9.49" transform="translate(-218.87 269.1) rotate(-82.18)"/><ellipse class="cls-2" cx="39.94" cy="296.04" rx="19.9" ry="4.99" transform="translate(-258.34 312.34) rotate(-85.44)"/><ellipse class="cls-8" cx="53.69" cy="224.31" rx="19.1" ry="12.26" transform="translate(-168.89 163.83) rotate(-61.34)"/><ellipse class="cls-2" cx="39.54" cy="312.85" rx="8.56" ry="8.75"/></svg>