<svg id="Layer_1" data-name="Layer 1" xmlns="http://www.w3.org/2000/svg" width="615" height="525" viewBox="0 0 615 525"><defs><style>.cls-1{fill:#e0c791;}.cls-2{fill:#c89d66;}.cls-3{opacity:0.14;}.cls-4{fill:#fff;}.cls-5{fill:#8b8b80;}.cls-6{fill:#c7c7c6;}</style></defs><path class="cls-1" d="M264.47,62.51c-2.12,6.55-2.67,6.37-4.73,12.94s-1.15,6.85-3.21,13.41-1.12,6.86-3.17,13.43-3.06,6.26-5.11,12.84-3.13,6.23-5.18,12.8,1.21,7.6-.84,14.17-.53,8.65-4.84,14c-1-6.76-5.87-15.44-5.87-22.32,0-5.06,1.66-10.12,2.18-15,.54-5,4.34-9.37,5.4-14.16s.33-10.19,1.94-14.82c1.66-4.79.85-10.71,3-15.1,2.24-4.56,8.51-6.81,11.23-10.86,2.84-4.22,3.88-9.72,7.17-13.32,3.43-3.75,9.14-4.81,13-7.8s6.47-8.42,10.86-10.61,10.28-.56,15.1-1.73a57.65,57.65,0,0,1,14.23-1.64c5,0,9.86-1.33,14.67-.16s8.75,4.14,13.24,6.37,7.62,5.5,11.63,8.61,10.77,2.71,14.2,6.46c3.29,3.6,5.5,8.45,8.33,12.67,2.72,4.05,7.26,7.47,9.5,12,2.15,4.39,2.87,9.78,4.53,14.57a133.93,133.93,0,0,1,4.54,14.43c1.06,4.79-2.39,10.38-1.85,15.4s2.19,10.73,2.19,15.78c-4.94-4.56-.12-8.28-3.6-14s-8-3-11.47-8.77-.36-7.63-3.85-13.38-4.91-4.89-8.39-10.64-2.4-6.41-5.88-12.15-4.38-5.21-7.87-11-.75-7.78-4.91-13.07c-4.23-2.76-11.36-.55-16.22-1.83s-9-7.23-14.08-7.36-10.19,2.53-15.1,3.23c-5.12.72-9.81,3-14.42,4.26-5.3,1.48-9.23,5-13.29,6.74C270.45,60,265.2,60.74,264.47,62.51Z"/><path class="cls-2" d="M26.12,494.62c0,6.07,7,11.24,13.1,11.24,9.13,0,9.13,1.47,18.26,1.47s9.13-.26,18.26-.26S84.87,507,94,507s9.14-8,18.27-8,9.13,1.66,18.26,1.66,9.13,5.69,18.26,5.69,9.13-2.09,18.26-2.09,9.13-.62,18.27-.62,9.13.82,18.26.82,9.13,6.67,18.26,6.67,9.13-8.58,18.26-8.58,9.13.29,18.26.29,9.14-1.49,18.27-1.49,9.13,3.41,18.26,3.41,9.14,3.73,18.27,3.73,9.13-9.45,18.26-9.45,9.13-.26,18.26-.26,9.13,7.79,18.26,7.79,9.13-1.64,18.27-1.64,9.13,1.87,18.26,1.87,9.13,6.2,18.26,6.2,9.14-8.55,18.27-8.55,9.13,5,18.26,5,9.14-9.33,18.27-9.33,9.13,9.13,18.26,9.13,9.14.51,18.27.51,9.14.52,18.27.52,9.14,2.78,18.27,2.78,9.14-6.94,18.28-6.94c6.07,0,14.63-5.48,14.63-11.55,0-8.86,3.84-8.86,3.84-17.71s-14.3-8.86-14.3-17.71,4.82-8.86,4.82-17.71-3.21-8.86-3.21-17.71,5.09-8.86,5.09-17.72.43-8.85.43-17.71-2.89-8.85-2.89-17.71,2.8-8.86,2.8-17.71-7.44-8.86-7.44-17.71,9.48-8.86,9.48-17.71-3.75-8.86-3.75-17.71,8.46-8.86,8.46-17.71-2.9-8.86-2.9-17.72-6.65-8.85-6.65-17.71,3.26-8.85,3.26-17.71-4.6-8.86-4.6-17.72-1.61-8.85-1.61-17.71,7-8.85,7-17.71S579,167,579,158.09s-5.12-8.86-5.12-17.72,2.53-8.86,2.53-17.72c0-6.07-1.43-5.69-7.5-5.69-9.13,0-9.13-8.47-18.26-8.47s-9.14,7.6-18.27,7.6H514.09c-9.13,0-9.13-5.18-18.26-5.18s-9.13-6.74-18.26-6.74-9.13,1.77-18.26,1.77-9.13,6.17-18.26,6.17-9.14.57-18.27.57-9.13-4-18.26-4-9.13-1.06-18.26-1.06-9.13-1.88-18.26-1.88-9.14,8.45-18.27,8.45-9.13-5.78-18.26-5.78-9.13-1.24-18.27-1.24-9.13,2-18.26,2-9.13,3.59-18.26,3.59-9.13,4.72-18.26,4.72-9.14-5.87-18.27-5.87-9.13,3.85-18.26,3.85-9.13-9.75-18.26-9.75-9.14-.39-18.27-.39S176.23,118,167.1,118s-9.13-2.1-18.27-2.1-9.13,2-18.26,2-9.13.36-18.27.36S103.17,115.8,94,115.8,84.9,109,75.77,109s-9.14,6.93-18.28,6.93-9.13-5.67-18.27-5.67c-6.07,0-6,6.36-6,12.43,0,8.86-1.32,8.86-1.32,17.71s-9.57,8.86-9.57,17.71,9.09,8.86,9.09,17.71-9.25,8.86-9.25,17.71,8.32,8.86,8.32,17.71,4.71,8.86,4.71,17.72-9.81,8.85-9.81,17.71,9.33,8.85,9.33,17.71-9.52,8.86-9.52,17.71,2.12,8.85,2.12,17.71-1.95,8.85-1.95,17.71,3.78,8.86,3.78,17.71-6.41,8.86-6.41,17.71,6,8.86,6,17.72-5.37,8.85-5.37,17.71,4.25,8.86,4.25,17.71-2.27,8.86-2.27,17.71,2.1,8.86,2.1,17.72,5.37,8.86,5.37,17.72-.85,9.12-1.55,18S26.12,485.76,26.12,494.62Z"/><g class="cls-3"><path class="cls-4" d="M71.17,468.69c0,6.07-1.56,16.95,4.51,16.95,9.1,0,9.1-5.24,18.19-5.24s9.09-2.7,18.19-2.7,9.09-4.47,18.19-4.47,9.09,3.36,18.19,3.36,9.09,9.08,18.18,9.08,9.1-7.79,18.19-7.79,9.1.44,18.19.44,9.1,4.89,18.19,4.89,9.1-6.88,18.19-6.88,9.1-2,18.19-2,9.1,10,18.19,10,9.09-11.89,18.19-11.89,9.09,13.92,18.19,13.92,9.09-12.22,18.18-12.22,9.1.1,18.2.1,9.09,4.4,18.18,4.4,9.1,5.45,18.19,5.45,9.1-7.85,18.2-7.85,9.09-.81,18.19-.81,9.09,1.4,18.19,1.4,9.09,6.37,18.19,6.37,9.1,0,18.2,0,9.1-8.7,18.2-8.7,9.09,8.57,18.19,8.57c6.08,0,6.9-8.36,6.9-14.43,0-9.11,1.68-9.11,1.68-18.22s6.62-9.11,6.62-18.22-11-9.11-11-18.22,3-9.11,3-18.22,10-9.1,10-18.21-10.33-9.11-10.33-18.22,4.74-9.11,4.74-18.21.68-9.11.68-18.22,2.4-9.11,2.4-18.22-5.56-9.11-5.56-18.22,6.7-9.11,6.7-18.22-1-9.11-1-18.22-5.06-9.11-5.06-18.22-4.46-9.11-4.46-18.22,2.21-9.11,2.21-18.23,2.26-9.11,2.26-18.22-4.37-9.11-4.37-18.23c0-6.07.62-5.52-5.46-5.52-9.09,0-9.09-1-18.18-1s-9.1-6.65-18.19-6.65-9.1-3.74-18.19-3.74-9.1,10.56-18.19,10.56-9.09-11.81-18.19-11.81-9.09,2.51-18.19,2.51-9.09,2.81-18.19,2.81-9.09-.45-18.18-.45-9.1-2.42-18.2-2.42-9.09,3.33-18.19,3.33-9.09.47-18.19.47-9.09,4.81-18.18,4.81-9.1-3-18.19-3-9.09-4.68-18.19-4.68-9.09,11.15-18.19,11.15-9.09-8.92-18.19-8.92-9.09,3.21-18.19,3.21-9.09,3.2-18.19,3.2-9.1-10-18.19-10-9.1-.47-18.19-.47-9.1,11.5-18.2,11.5-9.09-12.57-18.19-12.57S103,144,93.88,144s-9.1.55-18.2.55c-6.07,0-12.52,8.35-12.52,14.42,0,9.11-3,9.11-3,18.22s0,9.11,0,18.22,10.23,9.11,10.23,18.22S59,222.72,59,231.83s-.28,9.1-.28,18.21-.84,9.11-.84,18.22,11.49,9.11,11.49,18.21-9.59,9.11-9.59,18.22S71.5,313.8,71.5,322.91s-7,9.11-7,18.22,0,9.11,0,18.22-4.67,9.11-4.67,18.22,5.26,9.11,5.26,18.22S57.2,404.9,57.2,414s10.71,9.11,10.71,18.23-9.12,10.25-7,19.12C63.15,460.9,71.17,459.57,71.17,468.69Z"/></g><polygon class="cls-5" points="323.97 49.34 325.88 51.48 323.02 52.71 324.16 55.34 322.95 57.04 320.97 57.92 318.89 58.21 317.75 60.27 315.82 60.93 313.77 60.86 311.96 59.58 310.22 59.11 307.81 59.67 307.08 57.32 304.77 56.89 303.86 55.06 304.11 52.86 301.74 51.46 302.09 49.34 304 47.62 302.74 45.32 304.33 43.89 305.51 42.41 307.11 41.4 308.1 39.52 310.3 39.79 311.98 39.16 313.77 38.11 315.86 37.51 317.75 38.41 319.39 39.62 321.49 40.15 322.95 41.64 324.01 43.43 323.78 45.7 323.61 47.6 323.97 49.34"/><polygon class="cls-6" points="317.35 49.34 316.31 50.81 315.37 52.12 313.77 52.69 311.98 52.44 310.82 51.04 310.84 49.34 310.88 47.67 312.12 46.47 313.77 46.28 315.48 46.38 316.82 47.58 317.35 49.34"/></svg>