<svg id="Layer_1" data-name="Layer 1" xmlns="http://www.w3.org/2000/svg" xmlns:xlink="http://www.w3.org/1999/xlink" width="310" height="120" viewBox="0 0 310 120"><defs><style>.cls-1{fill:none;}.cls-2{clip-path:url(#clip-path);}.cls-3{clip-path:url(#clip-path-2);}.cls-4{clip-path:url(#clip-path-4);}.cls-5{fill:#936037;}.cls-6{fill:#fff;}</style><clipPath id="clip-path"/><clipPath id="clip-path-2"><polyline class="cls-1" points="-834.48 254.97 445.52 254.97 445.52 -825.03 -834.48 -825.03"/></clipPath><clipPath id="clip-path-4"><rect class="cls-1" x="300.95" y="-786.96" width="595" height="842"/></clipPath></defs><path class="cls-5" d="M298.34,68.53c0,6.41,2.35,5.14-5.55,10.64a73.61,73.61,0,0,1-18,9.78c-6.44,2.43-8.58,21.31-16.52,23.28-6.91,1.7-16.41-4.88-24.26-3.59-7.15,1.18-14.58,3.4-22.38,4.2-7.29.74-15.26-5.06-23-4.68-7.38.36-14.73,9.84-22.44,9.84s-15.18-6.93-22.56-7.29c-7.75-.38-15.56,2.54-22.85,1.8-7.8-.8-17.09,8.37-24.23,7.19C88.7,118.41,86.21,92.94,79.3,91.23c-8-2-17.61,6.34-24,3.91C47.14,92.08,39,91.28,33.72,87.62c-7.89-5.5-21.49-12.68-21.49-19.09S27.25,57,35.14,51.48C40.4,47.81,44.5,38,52.62,34.94,59.06,32.51,69,38.08,76.9,36.11c6.91-1.7,12.55-12.89,20.41-14.18,7.15-1.18,15.49,1.57,23.29.77C127.89,22,136.26,34.34,144,34c7.38-.36,14.49-5.8,22.19-5.8s14.71,7.64,22.08,8c7.76.37,15.79-9.82,23.07-9.07,7.81.79,14.63,5.61,21.78,6.79,7.86,1.29,14.32,5.18,21.22,6.89,8,2,12,10.17,18.48,12.6C281,56.43,287.71,54,293,57.64c7.9,5.5,6.91,4.49,6.91,10.89"/><path class="cls-6" d="M91.3,60.13a2.06,2.06,0,0,1-.81-.24,1.39,1.39,0,0,0-.85-.17l-3.82,1V80.22a6.25,6.25,0,0,0,.52,2.33A2.8,2.8,0,0,1,86.27,84a2.14,2.14,0,0,1-.7,1.44,1,1,0,0,1-.37,0A17,17,0,0,1,81.79,85a6.42,6.42,0,0,1-2.88-1.08,1.57,1.57,0,0,1,0-1.77,3.69,3.69,0,0,0,.48-1.41V62.39l-2.62.66a2.1,2.1,0,0,0-.61.32,1,1,0,0,1-.73.2c-.56-.15-1.34-.88-2.33-2.2s-1.41-2.21-1.29-2.68a2.42,2.42,0,0,1,1.74-1.3,2.45,2.45,0,0,1,1,0,2.79,2.79,0,0,0,.92,0l12.88-3.3a7.51,7.51,0,0,0,1.07-.44,2,2,0,0,1,1.08-.19,1.74,1.74,0,0,1,1.4.82,7.11,7.11,0,0,1,.56,1.66,10.72,10.72,0,0,1,.37,2.52,2.92,2.92,0,0,1-.21,1.24C92.48,60,92,60.11,91.3,60.13Z"/><path class="cls-6" d="M116,79.81q.33.63-1.32,3.09c-1.09,1.64-2,2.45-2.75,2.43a2.23,2.23,0,0,1-1.89-1.26A4.63,4.63,0,0,0,109.5,83l-7.8-7.29v6.84a2.46,2.46,0,0,0,.31,1,2.48,2.48,0,0,1,.32.92c0,.74-.48,1.15-1.45,1.22a10.83,10.83,0,0,1-3.29-.4q-2.37-.52-2.37-1.11a1.89,1.89,0,0,1,.09-.5,2.6,2.6,0,0,0,.1-.8V57.1a1,1,0,0,0-.11-.47.64.64,0,0,1-.11-.31c0-.67.51-1.06,1.48-1.18a6.23,6.23,0,0,1,2,.35,8.65,8.65,0,0,0,2.24.39,9.25,9.25,0,0,0,2.57-1,7.84,7.84,0,0,1,3.39-1A6.46,6.46,0,0,1,108,54a4.26,4.26,0,0,1,1.89,1c.57.49,1.11,1,1.63,1.48,1.36,1.28,2.06,2,2.11,2a4,4,0,0,1,1,2.47q.22,4.31-7.32,11c1,.94,3.32,3.22,6.84,6.85a6.34,6.34,0,0,1,1,.44A5.92,5.92,0,0,1,116,79.81Zm-8.18-20.68q-1.74,0-6.14,3.63v5.66q1.59-.63,4.18-3.81t2.59-4.74C108.47,59.38,108.26,59.13,107.84,59.13Z"/><path class="cls-6" d="M140.07,56.91c.14,1.28-.15,2.1-.89,2.44a3.93,3.93,0,0,0-.59.3,83.26,83.26,0,0,0-5.66,11.58q-3.3,7.84-3.45,9.44a3.61,3.61,0,0,0,.15,1,3.94,3.94,0,0,1,.15,1.22q-.22,2.52-1.26,2.7a8.55,8.55,0,0,1-2.57-.55A13.63,13.63,0,0,1,123.19,84c-.83-.6-1.25-1.19-1.25-1.78a2.29,2.29,0,0,1,.26-1q.51-1.44,2.18-5.92-3.07-6.33-4.15-8.73a63.71,63.71,0,0,1-3-7.88,2.17,2.17,0,0,0-.42-.56,1,1,0,0,1-.36-.66c0-.37.48-.93,1.45-1.67,2-1.58,3.45-2.32,4.21-2.22a1.59,1.59,0,0,1,1.08.78,2.44,2.44,0,0,1,.48,1,17.61,17.61,0,0,0,.22,2.26,38,38,0,0,0,3.55,9.95q2.07-5.07,2.33-5.59a42.28,42.28,0,0,1,3.19-5.88,11.71,11.71,0,0,1,.51-1.52,2.15,2.15,0,0,1,2-.7,7.64,7.64,0,0,1,2.72,1.29C139.38,56,140,56.54,140.07,56.91Z"/><path class="cls-6" d="M173.62,82.7c0,.22-.07.75-.14,1.59a1.82,1.82,0,0,1-.3,1,1.22,1.22,0,0,1-.63.11,9.62,9.62,0,0,1-3-.63,5.73,5.73,0,0,1-2.67-1.4,6.3,6.3,0,0,1-.59-2.22,30.42,30.42,0,0,0-.92-4.11,26.47,26.47,0,0,0-4.11,1,16.1,16.1,0,0,0-3.52,1.38c-.36,1.07-.86,2.37-1.48,3.93-.07.34-.15.67-.24,1a1.27,1.27,0,0,1-.64.76.64.64,0,0,1-.34.07,8.75,8.75,0,0,1-3-.93c-1.4-.61-2.12-1-2.17-1.22a5.76,5.76,0,0,1,.7-2.55c.79-2,1.25-3.18,1.37-3.63a2.19,2.19,0,0,1-.77-1.55,3.17,3.17,0,0,1,0-.41c.05-.29.8-.82,2.26-1.59L158.23,57a6,6,0,0,0,0-1.63c-.05-.67,0-1.09.22-1.26a1.43,1.43,0,0,1,.89-.18,20.28,20.28,0,0,1,5,.88c2.14.59,3.43,1.13,3.85,1.59a111.73,111.73,0,0,0,1.66,12.32Q171.7,78.85,173.62,82.7ZM164,71.45c-.32-1.55-.52-2.57-.59-3.07a46.45,46.45,0,0,1-.56-5.14c-.49,1.21-1.07,2.88-1.74,5a27.67,27.67,0,0,0-1.14,4.22A34.73,34.73,0,0,1,164,71.45Z"/><path class="cls-6" d="M195.68,71.6a2,2,0,0,1-1.3,1.89.85.85,0,0,1-.52-.13,1,1,0,0,0-.48-.17,1.28,1.28,0,0,0-.48.11,59.94,59.94,0,0,1-2.26,7.4q-1.47,3.52-3.84,4.59a3,3,0,0,1-1.3.3,14,14,0,0,1-3.29-1c-.67-.17-1.72-.53-3.15-1.07s-2.54-2.28-3.33-4.77a27.27,27.27,0,0,1-1.07-8.1,32.4,32.4,0,0,1,1.7-10.88c1.24-3.48,2.86-5.43,4.89-5.85a5.15,5.15,0,0,1,.59,0,11.51,11.51,0,0,1,4.51,1.18,8.75,8.75,0,0,1,3.85,2.77A7.37,7.37,0,0,1,191.27,61c.23,1.43.36,2.21.41,2.33.07.42.17.93.3,1.52a2,2,0,0,1-.37,1.13,1.87,1.87,0,0,1-.78.79,7,7,0,0,1-2.89-.53,10.68,10.68,0,0,1-2.88-1.13,1.76,1.76,0,0,1-.56-1.74.85.85,0,0,1,.19-.46,1,1,0,0,0,.18-.5c0-1.75-.2-2.63-.59-2.63-.84,0-1.58,1.38-2.22,4.22a40.32,40.32,0,0,0-.89,8.73c0,4.69.66,7.38,2,8.07.4.19.93-.48,1.61-2A14.37,14.37,0,0,0,186,74.38a12.05,12.05,0,0,0-2.26-1.15q-1.33-.56-1.44-1a2.38,2.38,0,0,1,.37-1.58,2.86,2.86,0,0,1,1.09-1.31,3.76,3.76,0,0,1,1.61-.33A10.3,10.3,0,0,0,187,69a12.45,12.45,0,0,0,2-.63,5.56,5.56,0,0,1,1.74-.44,1.73,1.73,0,0,1,.41,0,7.54,7.54,0,0,1,2.72,1.66C195.12,70.59,195.7,71.26,195.68,71.6Z"/><path class="cls-6" d="M218.43,82.7l-.15,1.59a1.75,1.75,0,0,1-.29,1,1.27,1.27,0,0,1-.63.11,9.61,9.61,0,0,1-3-.63,5.74,5.74,0,0,1-2.66-1.4,6.08,6.08,0,0,1-.59-2.22,28.81,28.81,0,0,0-.93-4.11,26.69,26.69,0,0,0-4.1,1,15.87,15.87,0,0,0-3.52,1.38c-.37,1.07-.86,2.37-1.48,3.93-.07.34-.15.67-.24,1a1.28,1.28,0,0,1-.65.76.58.58,0,0,1-.33.07,8.85,8.85,0,0,1-3-.93c-1.39-.61-2.11-1-2.16-1.22a5.61,5.61,0,0,1,.7-2.55c.79-2,1.24-3.18,1.37-3.63A2.21,2.21,0,0,1,196,75.3a2.1,2.1,0,0,1,0-.41c.05-.29.8-.82,2.26-1.59L203,57a6.92,6.92,0,0,0,0-1.63c-.05-.67,0-1.09.22-1.26a1.41,1.41,0,0,1,.89-.18,20.14,20.14,0,0,1,4.95.88c2.15.59,3.43,1.13,3.85,1.59a114.87,114.87,0,0,0,1.67,12.32Q216.51,78.85,218.43,82.7Zm-9.66-11.25c-.32-1.55-.51-2.57-.59-3.07a49,49,0,0,1-.55-5.14c-.5,1.21-1.08,2.88-1.74,5a28.24,28.24,0,0,0-1.15,4.22A35.37,35.37,0,0,1,208.77,71.45Z"/><path class="cls-6" d="M228.75,55.69a2.1,2.1,0,0,1-.16.7l-.21.56a19.13,19.13,0,0,0-.44,2.29V82a1.46,1.46,0,0,0,.22.8,1.11,1.11,0,0,1,.22.57c0,1.58-.29,2.43-.88,2.55a11,11,0,0,1-2.59-.48,9.32,9.32,0,0,1-2.74-.92,1.87,1.87,0,0,1-.82-1.3.54.54,0,0,1,.15-.33,1,1,0,0,0,.15-.63V56.13a1,1,0,0,0-.13-.46.92.92,0,0,1-.13-.46c.05-.59.51-1,1.37-1.18a9,9,0,0,1,1.7,0,14.29,14.29,0,0,1,2.67.4Q228.75,54.88,228.75,55.69Z"/><path class="cls-6" d="M252.88,55.69a2.08,2.08,0,0,1-.15.78,5.17,5.17,0,0,0-.33,1V81.89c0-.08.06.38.18,1.37s0,1.87-.44,2.22-1.45.44-3,.29a13.08,13.08,0,0,1-3.07-.7c-1.51-.47-2.33-1-2.48-1.48a8.68,8.68,0,0,0-.11-1.59q-2.07-5.48-4.81-12v11a1.68,1.68,0,0,0,.26.78,5.94,5.94,0,0,1,.33.67,3.6,3.6,0,0,1,.19,1.11c0,1-.45,1.48-1.34,1.48a13.48,13.48,0,0,1-3.66-.74,7.09,7.09,0,0,1-2.52-1.15,1.42,1.42,0,0,1,0-1.52,4.2,4.2,0,0,0,.45-1.14V57.21a3.33,3.33,0,0,0-.11-.67,1.33,1.33,0,0,1,0-.7,2.47,2.47,0,0,1,1.44-1.7,2.73,2.73,0,0,1,.82-.08,12.83,12.83,0,0,1,3,.37,5.55,5.55,0,0,1,2.74,1.26q1,1.11,2.7,6.77a75,75,0,0,0,3.18,9.4V57.32a3.25,3.25,0,0,0-.15-.83,3.38,3.38,0,0,1-.15-.84,1.06,1.06,0,0,1,.08-.4c.12-.42.59-.73,1.4-.93a5.41,5.41,0,0,1,1.85-.18,11.5,11.5,0,0,1,2,.4C252.27,54.89,252.85,55.27,252.88,55.69Z"/></svg>